<?xml version="1.0" encoding="UTF-8" standalone="no"?>
<!-- Created with Inkscape (http://www.inkscape.org/) -->

<svg
   xmlns:dc="http://purl.org/dc/elements/1.1/"
   xmlns:cc="http://creativecommons.org/ns#"
   xmlns:rdf="http://www.w3.org/1999/02/22-rdf-syntax-ns#"
   xmlns:svg="http://www.w3.org/2000/svg"
   xmlns="http://www.w3.org/2000/svg"
   xmlns:sodipodi="http://sodipodi.sourceforge.net/DTD/sodipodi-0.dtd"
   xmlns:inkscape="http://www.inkscape.org/namespaces/inkscape"
   width="435"
   height="140"
   viewBox="0 0 435 140"
   id="svg2"
   version="1.1"
   inkscape:version="0.91 r13725"
   sodipodi:docname="Irrlicht.svg">
  <defs
     id="defs4" />
  <sodipodi:namedview
     id="base"
     pagecolor="#ffffff"
     bordercolor="#666666"
     borderopacity="1.0"
     inkscape:pageopacity="0.0"
     inkscape:pageshadow="2"
     inkscape:zoom="1.4"
     inkscape:cx="241.62632"
     inkscape:cy="153.6314"
     inkscape:document-units="px"
     inkscape:current-layer="layer1"
     showgrid="false"
     inkscape:window-width="1920"
     inkscape:window-height="1027"
     inkscape:window-x="-8"
     inkscape:window-y="-8"
     inkscape:window-maximized="1"
     units="px" />
  <metadata
     id="metadata7">
    <rdf:RDF>
      <cc:Work
         rdf:about="">
        <dc:format>image/svg+xml</dc:format>
        <dc:type
           rdf:resource="http://purl.org/dc/dcmitype/StillImage" />
        <dc:title></dc:title>
      </cc:Work>
    </rdf:RDF>
  </metadata>
  <g
     inkscape:label="Ebene 1"
     inkscape:groupmode="layer"
     id="layer1"
     transform="translate(0,-912.3622)">
    <g
       id="g3433"
       transform="translate(-164.37821,617.50002)">
      <path
         style="fill:#e6f2e7"
         d="m 180.04909,432.94702 c -2.23515,-2.23515 -2.35045,-2.82621 -6.41418,-32.88108 -2.58409,-19.11162 -3.0992,-27.96296 -3.0992,-53.25498 0,-30.33369 0,-30.33369 -3.125,-33.70563 -3.56358,-3.84515 -4.03299,-8.40656 -1.16072,-11.27883 1.68324,-1.68324 6.46743,-1.96037 33.4375,-1.93684 27.78554,0.0242 32.05905,0.29505 36.47322,2.31131 9.7061,4.43348 19.78622,18.46685 23.69801,32.99193 1.76246,6.54431 1.76246,6.54431 1.84472,-6.08567 0.0769,-11.79683 -0.12387,-12.85239 -3.04273,-16.0019 -3.56358,-3.84515 -4.03299,-8.40656 -1.16072,-11.27883 3.05769,-3.0577 34.2684,-2.77374 41.16072,0.37447 9.7061,4.43348 19.78622,18.46685 23.69801,32.99193 1.76246,6.54431 1.76246,6.54431 1.84472,-6.66777 0.0784,-12.58416 -0.0663,-13.34122 -3.04273,-15.92923 -3.55359,-3.08982 -4.06795,-7.86217 -1.16072,-10.7694 2.88279,-2.88279 34.43864,-2.88279 37.32143,0 2.85739,2.85738 2.40977,7.31446 -1.16071,11.55775 -3.125,3.71385 -3.125,3.71385 -3.125,48.22091 l 0,44.50705 8.25705,0 c 6.98383,0 8.82972,-0.48188 11.97091,-3.125 4.24329,-3.57049 8.70036,-4.0181 11.55775,-1.16071 2.86995,2.86995 2.8502,28.22123 -0.0242,31.09566 -1.72783,1.72783 -6.57804,1.97682 -36.9967,1.8994 -34.51584,-0.0879 -35.04604,-0.12831 -37.69899,-2.87621 -1.47994,-1.5329 -6.48767,-6.858 -11.1283,-11.83355 -8.02587,-8.60512 -8.4375,-8.87127 -8.4375,-5.45555 0,2.09779 1.2994,4.99297 3.125,6.96283 3.57346,3.85583 4.03155,8.408 1.13735,11.3022 -1.67075,1.67075 -5.38089,1.96982 -23.27037,1.87574 -20.24634,-0.1065 -21.41262,-0.2465 -23.94985,-2.87535 -1.46693,-1.51988 -6.464,-6.83432 -11.10463,-11.80987 -8.02587,-8.60512 -8.4375,-8.87127 -8.4375,-5.45555 0,2.09779 1.2994,4.99297 3.125,6.96283 3.56358,3.84515 4.03299,8.40657 1.16071,11.27884 -1.58913,1.58915 -5.11036,1.96064 -18.4375,1.94515 -9.06026,-0.01 -17.2002,-0.48035 -18.08873,-1.04405 -0.88854,-0.56369 -2.10582,-2.66445 -2.70507,-4.66835 -0.88033,-2.9439 -1.11016,-3.12059 -1.19697,-0.92025 -0.22998,5.82916 -7.74581,8.83485 -11.84405,4.7366 z m 19.23662,-23.89234 c 0,-6.78037 -0.43294,-9.19247 -1.64992,-9.19247 -1.13148,0 -2.11338,3.48116 -3.125,11.07917 -1.94806,14.63157 -1.95753,14.5702 1.64992,10.6777 2.74436,-2.96121 3.125,-4.49161 3.125,-12.5644 z m 62.5,0.19299 c 0,-8.1156 -0.29839,-9.3117 -2.4971,-10.00954 -4.12375,-1.30883 -4.33848,-6.21316 -0.78975,-18.03789 1.91215,-6.37147 3.2496,-13.77754 3.1978,-17.70757 -0.089,-6.75546 -0.089,-6.75546 -2.26924,0.74454 -2.45826,8.45663 -5.295,14.39014 -9.68311,20.2538 -2.99628,4.00379 -2.99628,4.00379 3.48805,19.62809 3.56637,8.59336 6.94985,15.33659 7.51883,14.98493 0.56898,-0.35165 1.03452,-4.78701 1.03452,-9.85636 z m 62.41095,-21.64673 c -0.089,-30.86373 -0.089,-30.86373 -2.26924,-23.36373 -2.45826,8.45663 -5.295,14.39014 -9.68311,20.2538 -2.99628,4.00379 -2.99628,4.00379 3.48805,19.62809 3.56637,8.59336 6.94985,15.33659 7.51883,14.98493 0.56898,-0.35165 0.99444,-14.52805 0.94547,-31.5031 z m -94.6964,-42.39112 c -1.07929,-2.95771 -1.26267,-2.26788 -1.23668,4.65239 0.0289,7.68393 0.0976,7.87244 1.26719,3.47261 0.82409,-3.10025 0.81391,-5.81094 -0.0305,-8.125 z m 62.5,0 c -1.07929,-2.95771 -1.26267,-2.26788 -1.23668,4.65239 0.0289,7.68393 0.0976,7.87244 1.26719,3.47261 0.82409,-3.10025 0.81391,-5.81094 -0.0305,-8.125 z m 104.29883,87.7372 c -2.23515,-2.23515 -2.35045,-2.82621 -6.41418,-32.88108 -2.58409,-19.11162 -3.0992,-27.96296 -3.0992,-53.25498 0,-30.33369 0,-30.33369 -3.125,-33.70563 -3.56358,-3.84515 -4.03299,-8.40656 -1.16072,-11.27883 2.95689,-2.95689 34.44559,-2.87584 37.41774,0.0962 1.91411,1.91412 2.36774,1.91412 6.38169,0 2.96412,-1.41349 7.65704,-2.06059 14.94385,-2.06059 11.31175,0 17.72721,1.84376 22.71287,6.52755 2.82957,2.65829 2.82957,2.65829 2.82957,0.0297 0,-6.64993 -0.90173,-6.55718 63.75,-6.55718 52.71645,0 60.05472,0.2333 61.78571,1.96429 2.85176,2.85176 2.85176,28.21966 0,31.07142 -2.88385,2.88385 -7.32535,2.40063 -11.6898,-1.27182 -3.84591,-3.23613 -3.84591,-3.23613 -3.84591,21.10177 0,20.46999 -0.59908,28.48359 -3.76953,50.42361 -2.07324,14.34715 -4.07947,27.06879 -4.45831,28.27033 -1.62341,5.14889 -12.38081,3.69794 -13.56466,-1.82959 -0.33632,-1.57026 -2.04048,-14.10501 -3.78704,-27.85501 -2.43104,-19.13865 -3.17496,-30.6676 -3.17301,-49.17361 0.003,-24.17363 0.003,-24.17363 -3.84337,-20.9375 -2.11523,1.77986 -4.92773,3.23611 -6.25,3.23611 -2.3237,0 -2.40408,1.38361 -2.40408,41.38205 0,41.38206 0,41.38206 3.125,45.09591 3.57048,4.24329 4.0181,8.70036 1.16071,11.55775 -1.6882,1.6882 -6.6829,1.96429 -35.53571,1.96429 -36.09903,0 -37.5,-0.24498 -37.5,-6.55718 0,-2.62861 0,-2.62861 -2.82957,0.0296 -4.99888,4.69621 -11.39696,6.52755 -22.80508,6.52755 -14.65924,0 -22.74395,-4.43311 -28.49545,-15.625 -2.18458,-4.25096 -2.72135,-3.45138 -3.97594,5.92256 -0.43596,3.25741 -1.64314,6.77304 -2.6826,7.8125 -2.43473,2.43474 -7.25054,2.4222 -9.69798,-0.0252 z m 110.19849,-41.00067 c 0.32899,-26.4492 0.2777,-27.08414 -2.1875,-27.08414 -2.45361,0 -2.52437,0.74749 -2.52437,26.66666 0,14.66668 0.38671,27.05339 0.85937,27.52605 2.90239,2.90239 3.53455,-1.54587 3.8525,-27.10857 z m -63.46187,11.07605 c 0,-1.93389 15.13977,-22.66068 18.51507,-25.34769 2.69755,-2.14746 7.1597,-1.95915 9.52064,0.40179 1.78571,1.78571 1.96429,1.28201 1.96429,-5.54076 0,-6.34158 -0.37765,-7.62493 -2.43607,-8.27823 -1.33982,-0.42525 -2.76623,-1.81349 -3.16978,-3.08497 -0.40357,-1.27149 -2.0005,-2.62973 -3.54877,-3.01832 -2.62048,-0.6577 -17.22928,-18.64505 -20.83088,-25.64838 -1.20747,-2.34795 -1.76618,-2.61353 -2.62972,-1.25 -1.22232,1.93004 -1.57187,68.51286 -0.37605,71.62913 0.9559,2.49105 2.99127,2.58455 2.99127,0.13743 z m 63.73086,-76.59769 c -0.0205,-10.39884 -1.48365,-14.95659 -3.71173,-11.5625 -0.67697,1.03125 -1.23947,6.23437 -1.25,11.5625 -0.0175,8.86055 0.19428,9.6875 2.48087,9.6875 2.28658,0 2.49836,-0.82695 2.48086,-9.6875 z m -34.98678,-11.2029 c -1.36201,-2.12411 -1.39728,-2.12139 -0.71347,0.0551 0.39566,1.25935 0.7638,2.94686 0.81807,3.75 0.0713,1.05395 0.26974,1.0386 0.71347,-0.0551 0.33813,-0.83348 -0.03,-2.52098 -0.81807,-3.75 z"
         id="path3447"
         inkscape:connector-curvature="0" />
      <path
         style="fill:#d6ead8"
         d="m 180.04909,432.94702 c -2.23515,-2.23515 -2.35045,-2.82621 -6.41418,-32.88108 -2.58409,-19.11162 -3.0992,-27.96296 -3.0992,-53.25498 0,-30.33369 0,-30.33369 -3.125,-33.70563 -3.56358,-3.84515 -4.03299,-8.40656 -1.16072,-11.27883 1.68324,-1.68324 6.46743,-1.96037 33.4375,-1.93684 27.78554,0.0242 32.05905,0.29505 36.47322,2.31131 9.7061,4.43348 19.78622,18.46685 23.69801,32.99193 1.76246,6.54431 1.76246,6.54431 1.84472,-6.08567 0.0769,-11.79683 -0.12387,-12.85239 -3.04273,-16.0019 -3.56358,-3.84515 -4.03299,-8.40656 -1.16072,-11.27883 3.05769,-3.0577 34.2684,-2.77374 41.16072,0.37447 9.7061,4.43348 19.78622,18.46685 23.69801,32.99193 1.76246,6.54431 1.76246,6.54431 1.84472,-6.66777 0.0784,-12.58416 -0.0663,-13.34122 -3.04273,-15.92923 -3.55359,-3.08982 -4.06795,-7.86217 -1.16072,-10.7694 2.88279,-2.88279 34.43864,-2.88279 37.32143,0 2.85739,2.85738 2.40977,7.31446 -1.16071,11.55775 -3.125,3.71385 -3.125,3.71385 -3.125,48.22091 l 0,44.50705 8.25705,0 c 6.98383,0 8.82972,-0.48188 11.97091,-3.125 4.24329,-3.57049 8.70036,-4.0181 11.55775,-1.16071 2.86995,2.86995 2.8502,28.22123 -0.0242,31.09566 -1.72783,1.72783 -6.57804,1.97682 -36.9967,1.8994 -34.51584,-0.0879 -35.04604,-0.12831 -37.69899,-2.87621 -1.47994,-1.5329 -6.48767,-6.858 -11.1283,-11.83355 -8.02587,-8.60512 -8.4375,-8.87127 -8.4375,-5.45555 0,2.09779 1.2994,4.99297 3.125,6.96283 3.57346,3.85583 4.03155,8.408 1.13735,11.3022 -1.67075,1.67075 -5.38089,1.96982 -23.27037,1.87574 -20.24634,-0.1065 -21.41262,-0.2465 -23.94985,-2.87535 -1.46693,-1.51988 -6.464,-6.83432 -11.10463,-11.80987 -8.02587,-8.60512 -8.4375,-8.87127 -8.4375,-5.45555 0,2.09779 1.2994,4.99297 3.125,6.96283 3.56358,3.84515 4.03299,8.40657 1.16071,11.27884 -1.58913,1.58915 -5.11036,1.96064 -18.4375,1.94515 -9.06026,-0.01 -17.2002,-0.48035 -18.08873,-1.04405 -0.88854,-0.56369 -2.10582,-2.66445 -2.70507,-4.66835 -0.88033,-2.9439 -1.11016,-3.12059 -1.19697,-0.92025 -0.22998,5.82916 -7.74581,8.83485 -11.84405,4.7366 z m 19.23662,-23.89234 c 0,-6.78037 -0.43294,-9.19247 -1.64992,-9.19247 -1.13148,0 -2.11338,3.48116 -3.125,11.07917 -1.94806,14.63157 -1.95753,14.5702 1.64992,10.6777 2.74436,-2.96121 3.125,-4.49161 3.125,-12.5644 z m 62.5,0.19299 c 0,-8.1156 -0.29839,-9.3117 -2.4971,-10.00954 -4.12375,-1.30883 -4.33848,-6.21316 -0.78975,-18.03789 1.91215,-6.37147 3.2496,-13.77754 3.1978,-17.70757 -0.089,-6.75546 -0.089,-6.75546 -2.26924,0.74454 -2.45826,8.45663 -5.295,14.39014 -9.68311,20.2538 -2.99628,4.00379 -2.99628,4.00379 3.48805,19.62809 3.56637,8.59336 6.94985,15.33659 7.51883,14.98493 0.56898,-0.35165 1.03452,-4.78701 1.03452,-9.85636 z m 62.41095,-21.64673 c -0.089,-30.86373 -0.089,-30.86373 -2.26924,-23.36373 -2.45826,8.45663 -5.295,14.39014 -9.68311,20.2538 -2.99628,4.00379 -2.99628,4.00379 3.48805,19.62809 3.56637,8.59336 6.94985,15.33659 7.51883,14.98493 0.56898,-0.35165 0.99444,-14.52805 0.94547,-31.5031 z m -94.6964,-42.39112 c -1.07929,-2.95771 -1.26267,-2.26788 -1.23668,4.65239 0.0289,7.68393 0.0976,7.87244 1.26719,3.47261 0.82409,-3.10025 0.81391,-5.81094 -0.0305,-8.125 z m 62.5,0 c -1.07929,-2.95771 -1.26267,-2.26788 -1.23668,4.65239 0.0289,7.68393 0.0976,7.87244 1.26719,3.47261 0.82409,-3.10025 0.81391,-5.81094 -0.0305,-8.125 z m -98.96455,-18.80341 c 0.51831,-12.4759 1.0315,-15.49215 3.00623,-17.66911 2.38124,-2.62509 2.38124,-2.62509 -11.50568,-2.62509 -13.88692,0 -13.88692,0 -10.81874,3.06819 2.90099,2.90097 3.06819,3.84965 3.06819,17.40834 0,16.08441 -0.4295,15.43743 10,15.06341 5.625,-0.20172 5.625,-0.20172 6.25,-15.24574 z m 17.5,14.64627 c 0,-0.4256 0.81901,-0.77381 1.82001,-0.77381 1.00101,0 1.53031,0.46875 1.17622,1.04168 -0.87032,1.40821 0.41484,1.31101 3.33594,-0.25232 1.66666,-0.89197 2.41783,-0.89197 2.41783,0 0,0.71169 0.47723,1.29398 1.06053,1.29398 0.58329,0 1.17922,-4.06468 1.32428,-9.03261 0.14506,-4.96794 0.49401,-9.26288 0.77545,-9.54433 1.45184,-1.45182 7.31576,4.49214 10.16706,10.30585 2.77035,5.64863 3.72541,6.58419 6.52166,6.38853 1.80182,-0.12608 3.83852,0.0895 4.52602,0.47901 2.1406,1.21286 4.33492,1.22966 5.0709,0.0389 0.4166,-0.67407 1.69916,-0.61042 3.12996,0.15532 3.02132,1.61696 3.01885,0.82933 -0.0251,-8.01825 -3.86543,-11.23507 -11.04331,-20.51149 -19.0634,-24.63683 -3.74442,-1.92606 -7.31336,-2.38556 -18.52826,-2.38556 -13.89052,0 -13.89052,0 -11.2998,3.29358 2.28426,2.90397 2.59073,5.01631 2.59073,17.85713 0,13.73024 0.14305,14.56358 2.5,14.56358 1.375,0 2.5,-0.34821 2.5,-0.77382 z m 69.75536,-0.41427 c 0.86715,-0.53594 1.50267,-0.2368 1.51377,0.71252 0.0139,1.18899 0.35038,1.12374 1.23087,-0.23872 0.66645,-1.03125 1.22033,-5.39063 1.23086,-9.6875 0.01,-4.29688 0.45647,-7.8125 0.991,-7.8125 2.7504,0 7.15316,4.84715 10.14065,11.16417 3.35351,7.09103 3.35351,7.09103 12.3705,7.09677 4.95935,0.004 9.01699,-0.35995 9.01699,-0.8069 0,-2.44014 -5.28884,-15.61997 -7.65042,-19.06489 -9.22203,-13.45254 -14.18913,-15.88915 -32.39051,-15.88915 -13.89052,0 -13.89052,0 -11.2998,3.29358 2.28469,2.9045 2.59073,5.01609 2.59073,17.87523 0,14.58165 0,14.58165 5.38036,14.43139 2.95919,-0.0826 6.05294,-0.56595 6.875,-1.074 z m 63.05714,0.7083 c 3.4375,-0.2345 3.4375,-0.2345 3.4375,-14.42698 0,-13.33242 0.18575,-14.3929 3.06531,-17.5 3.06531,-3.30752 3.06531,-3.30752 -10.71573,-3.30752 -13.78103,0 -13.78103,0 -11.19031,3.29358 2.28425,2.90396 2.59073,5.01632 2.59073,17.85669 0,16.08589 -0.96585,15.02417 12.8125,14.08423 z m 52.95088,91.60031 c -2.23515,-2.23515 -2.35045,-2.82621 -6.41418,-32.88108 -2.58409,-19.11162 -3.0992,-27.96296 -3.0992,-53.25498 0,-30.33369 0,-30.33369 -3.125,-33.70563 -3.56358,-3.84515 -4.03299,-8.40656 -1.16072,-11.27883 2.95689,-2.95689 34.44559,-2.87584 37.41774,0.0962 1.91411,1.91412 2.36774,1.91412 6.38169,0 2.96412,-1.41349 7.65704,-2.06059 14.94385,-2.06059 11.31175,0 17.72721,1.84376 22.71287,6.52755 2.82957,2.65829 2.82957,2.65829 2.82957,0.0297 0,-6.64993 -0.90173,-6.55718 63.75,-6.55718 52.71645,0 60.05472,0.2333 61.78571,1.96429 2.85176,2.85176 2.85176,28.21966 0,31.07142 -2.88385,2.88385 -7.32535,2.40063 -11.6898,-1.27182 -3.84591,-3.23613 -3.84591,-3.23613 -3.84591,21.10177 0,20.46999 -0.59908,28.48359 -3.76953,50.42361 -2.07324,14.34715 -4.07947,27.06879 -4.45831,28.27033 -1.62341,5.14889 -12.38081,3.69794 -13.56466,-1.82959 -0.33632,-1.57026 -2.04048,-14.10501 -3.78704,-27.85501 -2.43104,-19.13865 -3.17496,-30.6676 -3.17301,-49.17361 0.003,-24.17363 0.003,-24.17363 -3.84337,-20.9375 -2.11523,1.77986 -4.92773,3.23611 -6.25,3.23611 -2.3237,0 -2.40408,1.38361 -2.40408,41.38205 0,41.38206 0,41.38206 3.125,45.09591 3.57048,4.24329 4.0181,8.70036 1.16071,11.55775 -1.6882,1.6882 -6.6829,1.96429 -35.53571,1.96429 -36.09903,0 -37.5,-0.24498 -37.5,-6.55718 0,-2.62861 0,-2.62861 -2.82957,0.0296 -4.99888,4.69621 -11.39696,6.52755 -22.80508,6.52755 -14.65924,0 -22.74395,-4.43311 -28.49545,-15.625 -2.18458,-4.25096 -2.72135,-3.45138 -3.97594,5.92256 -0.43596,3.25741 -1.64314,6.77304 -2.6826,7.8125 -2.43473,2.43474 -7.25054,2.4222 -9.69798,-0.0252 z m 110.19849,-41.00067 c 0.32899,-26.4492 0.2777,-27.08414 -2.1875,-27.08414 -2.45361,0 -2.52437,0.74749 -2.52437,26.66666 0,14.66668 0.38671,27.05339 0.85937,27.52605 2.90239,2.90239 3.53455,-1.54587 3.8525,-27.10857 z m -63.46187,11.07605 c 0,-1.93389 15.13977,-22.66068 18.51507,-25.34769 2.69755,-2.14746 7.1597,-1.95915 9.52064,0.40179 1.78571,1.78571 1.96429,1.28201 1.96429,-5.54076 0,-6.34158 -0.37765,-7.62493 -2.43607,-8.27823 -1.33982,-0.42525 -2.76623,-1.81349 -3.16978,-3.08497 -0.40357,-1.27149 -2.0005,-2.62973 -3.54877,-3.01832 -2.62048,-0.6577 -17.22928,-18.64505 -20.83088,-25.64838 -1.20747,-2.34795 -1.76618,-2.61353 -2.62972,-1.25 -1.22232,1.93004 -1.57187,68.51286 -0.37605,71.62913 0.9559,2.49105 2.99127,2.58455 2.99127,0.13743 z m -42.621,-60.88243 c 1.0978,0.50092 2.83975,0.82071 3.871,0.71068 1.03125,-0.11 2.57812,-0.26495 3.4375,-0.34425 1.15411,-0.1065 1.5625,-4.0207 1.5625,-14.97561 0,-13.11182 0.30037,-15.2133 2.59072,-18.125 2.59073,-3.29358 2.59073,-3.29358 -11.19319,-3.29358 -13.7839,0 -13.7839,0 -10.71572,3.06819 2.91559,2.91559 3.06819,3.81184 3.06819,18.02082 0,10.82324 0.43151,15.11088 1.5625,15.52558 0.85937,0.3151 2.07055,0.107 2.6915,-0.46234 0.62093,-0.56937 2.02718,-0.6254 3.125,-0.1245 z m 23.26388,0.25118 c -0.46928,-0.75933 1.15717,-0.95365 4.30123,-0.51388 5.05589,0.70718 5.05589,0.70718 5.05589,-5.73612 0,-3.54382 0.57538,-7.51843 1.27865,-8.83247 3.1474,-5.88098 11.62686,-5.91436 14.16501,-0.0557 2.583,5.96214 8.88751,13.80539 11.11884,13.83262 1.20312,0.0146 2.1875,0.65806 2.1875,1.42973 0,0.91429 0.73677,0.80542 2.11495,-0.3125 1.43707,-1.16568 1.81407,-1.21475 1.17622,-0.15305 -0.5163,0.85938 -0.34302,1.5625 0.38505,1.5625 2.0936,0 1.63111,-18.09472 -0.5989,-23.43189 -3.97574,-9.51532 -11.40172,-14.06813 -22.94615,-14.06813 -16.95209,0 -25.13117,8.7034 -25.13117,26.74217 0,9.23146 0.0406,9.34793 3.4375,9.86252 1.89062,0.2864 3.61132,0.60501 3.82377,0.70802 0.21245,0.103 0.0466,-0.36219 -0.36839,-1.03377 z m 70.29462,0.0885 c 1.15702,-0.087 1.5625,-4.02478 1.5625,-15.17425 0,-14.31959 0.15022,-15.20705 3.06818,-18.125 3.06818,-3.06819 3.06818,-3.06819 -11.19318,-3.06819 -14.26137,0 -14.26137,0 -11.19319,3.06819 2.91559,2.91559 3.06819,3.81184 3.06819,18.02082 0,8.84691 0.5099,15.1228 1.24873,15.36933 1.0652,0.35542 8.13707,0.3076 13.43877,-0.0909 z m 26.8676,0.0903 c 8.32066,1.86956 8.4449,1.64887 8.4449,-14.99989 0,-13.1515 0.29951,-15.25141 2.59072,-18.16423 2.59073,-3.29357 2.59073,-3.29357 -10.71572,-3.29357 -13.30645,0 -13.30645,0 -10.71573,3.29358 2.30876,2.93511 2.59073,5.00297 2.59073,18.99999 0,11.21517 0.38478,15.32164 1.34563,14.36079 0.90853,-0.90852 3.00682,-0.9724 6.45947,-0.19664 z m 38.727,-0.42904 c 0.30945,-0.92835 1.14055,-1.06952 2.25207,-0.38256 0.96891,0.59881 3.32634,1.16194 5.23874,1.25139 3.47709,0.16266 3.47709,0.16266 3.47709,-10.2424 0,-10.40508 0,-10.40508 5.11953,-10.40508 3.17209,0 6.50055,0.98338 8.75,2.58511 3.63047,2.58513 3.63047,2.58513 3.63047,-8.125 l 0,-10.71011 -25.625,0 -25.625,0 0,10.71573 c 0,10.71572 0,10.71572 3.29357,8.125 2.18953,-1.72229 5.12263,-2.59073 8.75,-2.59073 5.45643,0 5.45643,0 5.45643,9.89584 0,9.34905 0.52757,10.8492 3.95833,11.25547 0.45833,0.0542 1.05403,-0.5634 1.32377,-1.37262 z m -52.80124,-15.71615 c -0.0205,-10.39884 -1.48365,-14.95659 -3.71173,-11.5625 -0.67697,1.03125 -1.23947,6.23437 -1.25,11.5625 -0.0175,8.86055 0.19428,9.6875 2.48087,9.6875 2.28658,0 2.49836,-0.82695 2.48086,-9.6875 z m -34.98678,-11.2029 c -1.36201,-2.12411 -1.39728,-2.12139 -0.71347,0.0551 0.39566,1.25935 0.7638,2.94686 0.81807,3.75 0.0713,1.05395 0.26974,1.0386 0.71347,-0.0551 0.33813,-0.83348 -0.03,-2.52098 -0.81807,-3.75 z"
         id="path3445"
         inkscape:connector-curvature="0" />
      <path
         style="fill:#c6e2c9"
         d="m 180.04909,432.94702 c -2.23515,-2.23515 -2.35045,-2.82621 -6.41418,-32.88108 -2.58409,-19.11162 -3.0992,-27.96296 -3.0992,-53.25498 0,-30.33369 0,-30.33369 -3.125,-33.70563 -3.56358,-3.84515 -4.03299,-8.40656 -1.16072,-11.27883 1.68324,-1.68324 6.46743,-1.96037 33.4375,-1.93684 27.78554,0.0242 32.05905,0.29505 36.47322,2.31131 9.7061,4.43348 19.78622,18.46685 23.69801,32.99193 1.76246,6.54431 1.76246,6.54431 1.84472,-6.08567 0.0769,-11.79683 -0.12387,-12.85239 -3.04273,-16.0019 -3.56358,-3.84515 -4.03299,-8.40656 -1.16072,-11.27883 3.05769,-3.0577 34.2684,-2.77374 41.16072,0.37447 9.7061,4.43348 19.78622,18.46685 23.69801,32.99193 1.76246,6.54431 1.76246,6.54431 1.84472,-6.66777 0.0784,-12.58416 -0.0663,-13.34122 -3.04273,-15.92923 -3.55359,-3.08982 -4.06795,-7.86217 -1.16072,-10.7694 2.88279,-2.88279 34.43864,-2.88279 37.32143,0 2.85739,2.85738 2.40977,7.31446 -1.16071,11.55775 -3.125,3.71385 -3.125,3.71385 -3.125,48.22091 l 0,44.50705 8.25705,0 c 6.98383,0 8.82972,-0.48188 11.97091,-3.125 4.24329,-3.57049 8.70036,-4.0181 11.55775,-1.16071 2.86995,2.86995 2.8502,28.22123 -0.0242,31.09566 -1.72783,1.72783 -6.57804,1.97682 -36.9967,1.8994 -34.51584,-0.0879 -35.04604,-0.12831 -37.69899,-2.87621 -1.47994,-1.5329 -6.48767,-6.858 -11.1283,-11.83355 -8.02587,-8.60512 -8.4375,-8.87127 -8.4375,-5.45555 0,2.09779 1.2994,4.99297 3.125,6.96283 3.57346,3.85583 4.03155,8.408 1.13735,11.3022 -1.67075,1.67075 -5.38089,1.96982 -23.27037,1.87574 -20.24634,-0.1065 -21.41262,-0.2465 -23.94985,-2.87535 -1.46693,-1.51988 -6.464,-6.83432 -11.10463,-11.80987 -8.02587,-8.60512 -8.4375,-8.87127 -8.4375,-5.45555 0,2.09779 1.2994,4.99297 3.125,6.96283 3.56358,3.84515 4.03299,8.40657 1.16071,11.27884 -1.58913,1.58915 -5.11036,1.96064 -18.4375,1.94515 -9.06026,-0.01 -17.2002,-0.48035 -18.08873,-1.04405 -0.88854,-0.56369 -2.10582,-2.66445 -2.70507,-4.66835 -0.88033,-2.9439 -1.11016,-3.12059 -1.19697,-0.92025 -0.22998,5.82916 -7.74581,8.83485 -11.84405,4.7366 z m 19.23662,-23.89234 c 0,-6.78037 -0.43294,-9.19247 -1.64992,-9.19247 -1.13148,0 -2.11338,3.48116 -3.125,11.07917 -1.94806,14.63157 -1.95753,14.5702 1.64992,10.6777 2.74436,-2.96121 3.125,-4.49161 3.125,-12.5644 z m 62.5,0.19299 c 0,-8.1156 -0.29839,-9.3117 -2.4971,-10.00954 -4.12375,-1.30883 -4.33848,-6.21316 -0.78975,-18.03789 1.91215,-6.37147 3.2496,-13.77754 3.1978,-17.70757 -0.089,-6.75546 -0.089,-6.75546 -2.26924,0.74454 -2.45826,8.45663 -5.295,14.39014 -9.68311,20.2538 -2.99628,4.00379 -2.99628,4.00379 3.48805,19.62809 3.56637,8.59336 6.94985,15.33659 7.51883,14.98493 0.56898,-0.35165 1.03452,-4.78701 1.03452,-9.85636 z m 62.41095,-21.64673 c -0.089,-30.86373 -0.089,-30.86373 -2.26924,-23.36373 -2.45826,8.45663 -5.295,14.39014 -9.68311,20.2538 -2.99628,4.00379 -2.99628,4.00379 3.48805,19.62809 3.56637,8.59336 6.94985,15.33659 7.51883,14.98493 0.56898,-0.35165 0.99444,-14.52805 0.94547,-31.5031 z m -137.55364,-4.43357 c 4.66216,0.17287 4.88899,-0.004 5.61185,-4.375 0.41432,-2.50533 0.75951,-18.40117 0.76707,-35.32408 0.0131,-29.22422 0.14383,-30.93428 2.60449,-34.0625 2.59073,-3.29358 2.59073,-3.29358 -11.38847,-3.29358 -13.95529,0 -13.97417,0.004 -11.02823,2.38686 2.94851,2.38488 2.9515,2.41672 3.57598,38.17192 0.52376,29.98891 0.9287,35.97343 2.5,36.94808 1.03125,0.63966 2.01535,0.75918 2.18688,0.26558 0.17154,-0.49359 2.49823,-0.81637 5.17043,-0.71728 z m 26.08019,-1.10635 c 1.06206,-0.853 1.5625,-0.81812 1.5625,0.10888 0,0.7501 0.85091,1.0373 1.89091,0.63821 1.04001,-0.39909 2.72751,-0.0312 3.75,0.81729 1.0225,0.8486 1.85909,1.05215 1.85909,0.45234 0,-0.59981 3.375,-1.09056 7.5,-1.09056 4.125,0 7.5,0.40982 7.5,0.9107 0,2.546 6.70425,-2.65817 9.88448,-7.67283 4.15204,-6.54698 8.86552,-20.89548 8.86552,-26.98784 0,-5.84488 -4.63445,-20.35811 -8.3823,-26.25 -8.97525,-14.10976 -14.36787,-16.875 -32.90863,-16.875 -13.89052,0 -13.89052,0 -11.2998,3.29358 2.4624,3.13043 2.59073,4.82533 2.59073,34.21783 0,23.09618 -0.43662,32.16177 -1.72482,35.8129 -1.7248,4.88861 -1.7248,4.88861 2.8125,4.38403 2.49553,-0.27753 5.24044,-1.06932 6.09982,-1.75953 z m 9.0625,-32.82381 c 0,-14.09375 0.43733,-25.625 0.97186,-25.625 4.36077,0 11.61956,11.1496 13.91766,21.37772 1.50463,6.69657 -2.09012,18.67297 -7.61741,25.37854 -6.91226,8.38576 -7.27211,7.3401 -7.27211,-21.13126 z m 7.71455,-4.02739 c -1.07929,-2.95771 -1.26267,-2.26789 -1.23668,4.65239 0.0289,7.68393 0.0976,7.87244 1.26719,3.47261 0.82409,-3.10025 0.81391,-5.81094 -0.0305,-8.125 z m 43.0585,37.71246 c -0.51399,-1.33943 -0.26519,-1.62962 0.80376,-0.9375 0.8515,0.55134 5.36051,1.06475 10.02002,1.14094 4.65953,0.0761 8.77999,0.44664 9.1566,0.82325 0.37662,0.37661 2.18928,0.25706 4.02815,-0.26566 1.83888,-0.52272 4.33435,-0.80138 5.54549,-0.61921 4.91368,0.739 15.92293,-22.5911 15.92293,-33.74284 0,-5.91764 -4.61203,-20.40691 -8.3823,-26.33405 -8.96814,-14.09857 -14.37379,-16.875 -32.85533,-16.875 -13.83721,0 -13.83721,0 -11.23926,3.51391 2.50271,3.3851 2.58169,4.70256 2.15429,35.9375 -0.24403,17.83298 -0.88823,33.6466 -1.43157,35.14139 -0.84725,2.3309 -0.48132,2.79357 2.57064,3.2502 1.95719,0.29284 3.75933,0.6167 4.00476,0.71971 0.24543,0.103 0.11125,-0.68567 -0.29818,-1.75264 z m 11.72695,-33.68507 c 0,-14.09375 0.43733,-25.625 0.97186,-25.625 4.36077,0 11.61956,11.1496 13.91766,21.37772 1.50463,6.69657 -2.09012,18.67297 -7.61741,25.37854 -6.91226,8.38576 -7.27211,7.3401 -7.27211,-21.13126 z m 7.71455,-4.02739 c -1.07929,-2.95771 -1.26267,-2.26789 -1.23668,4.65239 0.0289,7.68393 0.0976,7.87244 1.26719,3.47261 0.82409,-3.10025 0.81391,-5.81094 -0.0305,-8.125 z m 50.13455,37.95598 c -0.3642,-0.58929 0.53326,-0.692 1.99436,-0.22828 2.65654,0.84316 2.65654,0.84316 2.65654,-34.68355 0,-35.5267 0,-35.5267 3.06531,-38.83423 3.06531,-3.30753 3.06531,-3.30753 -10.71573,-3.30753 -13.78103,0 -13.78103,0 -11.19031,3.29358 2.48234,3.15578 2.59073,4.7734 2.59073,38.66697 0,35.3734 0,35.3734 3.4375,35.76892 5.90957,0.67997 8.84911,0.43654 8.1616,-0.67588 z m 54.16428,49.78122 c -2.23515,-2.23515 -2.35045,-2.82621 -6.41418,-32.88108 -2.58409,-19.11162 -3.0992,-27.96296 -3.0992,-53.25498 0,-30.33369 0,-30.33369 -3.125,-33.70563 -3.56358,-3.84515 -4.03299,-8.40656 -1.16072,-11.27883 2.95689,-2.95689 34.44559,-2.87584 37.41774,0.0962 1.91411,1.91412 2.36774,1.91412 6.38169,0 2.96412,-1.41349 7.65704,-2.06059 14.94385,-2.06059 11.31175,0 17.72721,1.84376 22.71287,6.52755 2.82957,2.65829 2.82957,2.65829 2.82957,0.0297 0,-6.64993 -0.90173,-6.55718 63.75,-6.55718 52.71645,0 60.05472,0.2333 61.78571,1.96429 2.85176,2.85176 2.85176,28.21966 0,31.07142 -2.88385,2.88385 -7.32535,2.40063 -11.6898,-1.27182 -3.84591,-3.23613 -3.84591,-3.23613 -3.84591,21.10177 0,20.46999 -0.59908,28.48359 -3.76953,50.42361 -2.07324,14.34715 -4.07947,27.06879 -4.45831,28.27033 -1.62341,5.14889 -12.38081,3.69794 -13.56466,-1.82959 -0.33632,-1.57026 -2.04048,-14.10501 -3.78704,-27.85501 -2.43104,-19.13865 -3.17496,-30.6676 -3.17301,-49.17361 0.003,-24.17363 0.003,-24.17363 -3.84337,-20.9375 -2.11523,1.77986 -4.92773,3.23611 -6.25,3.23611 -2.3237,0 -2.40408,1.38361 -2.40408,41.38205 0,41.38206 0,41.38206 3.125,45.09591 3.57048,4.24329 4.0181,8.70036 1.16071,11.55775 -1.6882,1.6882 -6.6829,1.96429 -35.53571,1.96429 -36.09903,0 -37.5,-0.24498 -37.5,-6.55718 0,-2.62861 0,-2.62861 -2.82957,0.0296 -4.99888,4.69621 -11.39696,6.52755 -22.80508,6.52755 -14.65924,0 -22.74395,-4.43311 -28.49545,-15.625 -2.18458,-4.25096 -2.72135,-3.45138 -3.97594,5.92256 -0.43596,3.25741 -1.64314,6.77304 -2.6826,7.8125 -2.43473,2.43474 -7.25054,2.4222 -9.69798,-0.0252 z m 110.19849,-41.00067 c 0.32899,-26.4492 0.2777,-27.08414 -2.1875,-27.08414 -2.45361,0 -2.52437,0.74749 -2.52437,26.66666 0,14.66668 0.38671,27.05339 0.85937,27.52605 2.90239,2.90239 3.53455,-1.54587 3.8525,-27.10857 z m -63.46187,11.07605 c 0,-1.93389 15.13977,-22.66068 18.51507,-25.34769 2.69755,-2.14746 7.1597,-1.95915 9.52064,0.40179 1.78571,1.78571 1.96429,1.28201 1.96429,-5.54076 0,-6.34158 -0.37765,-7.62493 -2.43607,-8.27823 -1.33982,-0.42525 -2.76623,-1.81349 -3.16978,-3.08497 -0.40357,-1.27149 -2.0005,-2.62973 -3.54877,-3.01832 -2.62048,-0.6577 -17.22928,-18.64505 -20.83088,-25.64838 -1.20747,-2.34795 -1.76618,-2.61353 -2.62972,-1.25 -1.22232,1.93004 -1.57187,68.51286 -0.37605,71.62913 0.9559,2.49105 2.99127,2.58455 2.99127,0.13743 z m -40.85767,-19.78699 c 5.51317,0.4146 5.52585,0.40596 6.30222,-4.29139 0.42786,-2.58875 0.78412,-18.55282 0.79168,-35.47573 0.0131,-29.22422 0.14383,-30.93428 2.60449,-34.0625 2.59073,-3.29358 2.59073,-3.29358 -11.19319,-3.29358 -13.7839,0 -13.7839,0 -10.71572,3.06819 3.06819,3.06817 3.06819,3.06817 3.07905,33.4375 0.0113,31.55281 0.85564,45.11882 2.61277,41.979 0.68752,-1.22853 2.69934,-1.64871 6.5187,-1.36149 z m 86.72915,0.15066 c 2.19807,-0.31432 3.71174,-0.11075 3.36373,0.45232 -0.34801,0.5631 0.24419,1.02382 1.31601,1.02382 1.6413,0 1.94878,-2.07085 1.94878,-13.125 0,-13.125 0,-13.125 8.75,-13.125 8.75,0 8.75,0 8.76913,13.4375 0.013,9.13766 0.40688,12.83753 1.23087,11.5625 0.66645,-1.03125 1.22033,-1.3125 1.23086,-0.625 0.01,0.6875 3.11289,1.25 6.89414,1.25 6.875,0 6.875,0 6.875,-35.76892 0,-34.29372 0.10687,-35.90477 2.59072,-39.0625 2.59073,-3.29358 2.59073,-3.29358 -10.71572,-3.29358 -13.30645,0 -13.30645,0 -10.71573,3.29358 2.29035,2.9117 2.59073,5.01318 2.59073,18.125 0,14.83142 0,14.83142 -8.75,14.83142 -8.75,0 -8.75,0 -8.75,-15.05681 0,-14.31959 0.15022,-15.20705 3.06818,-18.125 3.06818,-3.06819 3.06818,-3.06819 -11.19318,-3.06819 -14.26137,0 -14.26137,0 -11.19319,3.06819 2.89779,2.89777 3.06819,3.8575 3.06819,17.28105 0,11.78445 -0.52122,15.74532 -3.05054,23.18182 -3.05053,8.96894 -3.05053,8.96894 0,8.96894 3.02966,0 3.05054,0.0851 3.05054,12.43789 0,10.51444 0.33605,12.62595 2.17306,13.654 1.19519,0.66885 2.46081,0.77451 2.8125,0.23479 0.35169,-0.53972 2.43785,-1.23849 4.63592,-1.55282 z m -56.80898,0.28743 c 0.51562,-0.0337 0.9375,-12.46185 0.9375,-27.6181 0,-27.55683 0,-27.55683 3.06818,-30.625 1.6875,-1.6875 3.61963,-3.06819 4.29363,-3.06819 3.28881,0 7.52022,2.65937 8.33894,5.2409 0.93643,2.95268 14.54568,21.49132 16.79928,22.88412 2.14377,1.32492 1.56028,-24.96265 -0.67271,-30.30692 -3.97574,-9.51529 -11.40172,-14.0681 -22.94615,-14.0681 -11.90105,0 -17.94687,3.39127 -22.75282,12.7627 -2.14628,4.18516 -2.37835,7.61647 -2.37835,35.1648 0,33.29718 -1.33072,30.72188 15.3125,29.63379 z m 130.67975,-0.48972 c 0.92727,-0.59446 2.34637,-0.43168 3.32622,0.38152 1.28854,1.06938 1.96696,1.01898 2.75774,-0.20489 0.57684,-0.89276 1.23402,-14.98258 1.46044,-31.3107 0.41165,-29.6875 0.41165,-29.6875 5.43203,-29.6875 3.07185,0 6.42947,1.00335 8.65085,2.58511 3.63047,2.58513 3.63047,2.58513 3.63047,-8.125 l 0,-10.71011 -25.625,0 -25.625,0 0,10.71573 c 0,10.71572 0,10.71572 3.29357,8.125 2.18953,-1.72229 5.12263,-2.59073 8.75,-2.59073 5.45643,0 5.45643,0 5.47019,26.5625 0.0165,31.83242 0.44319,35.45017 4.17072,35.36055 1.47979,-0.0356 3.41828,-0.53124 4.30777,-1.10148 z m -56.01139,-56.75907 c -0.0205,-10.39884 -1.48365,-14.95659 -3.71173,-11.5625 -0.67697,1.03125 -1.23947,6.23437 -1.25,11.5625 -0.0175,8.86055 0.19428,9.6875 2.48087,9.6875 2.28658,0 2.49836,-0.82695 2.48086,-9.6875 z m -34.98678,-11.2029 c -1.36201,-2.12411 -1.39728,-2.12139 -0.71347,0.0551 0.39566,1.25935 0.7638,2.94686 0.81807,3.75 0.0713,1.05395 0.26974,1.0386 0.71347,-0.0551 0.33813,-0.83348 -0.03,-2.52098 -0.81807,-3.75 z"
         id="path3443"
         inkscape:connector-curvature="0" />
      <path
         style="fill:#bedec1"
         d="m 180.04909,432.94702 c -2.23515,-2.23515 -2.35045,-2.82621 -6.41418,-32.88108 -2.58409,-19.11162 -3.0992,-27.96296 -3.0992,-53.25498 0,-30.33369 0,-30.33369 -3.125,-33.70563 -3.56358,-3.84515 -4.03299,-8.40656 -1.16072,-11.27883 1.68324,-1.68324 6.46743,-1.96037 33.4375,-1.93684 27.78554,0.0242 32.05905,0.29505 36.47322,2.31131 9.7061,4.43348 19.78622,18.46685 23.69801,32.99193 1.76246,6.54431 1.76246,6.54431 1.84472,-6.08567 0.0769,-11.79683 -0.12387,-12.85239 -3.04273,-16.0019 -3.56358,-3.84515 -4.03299,-8.40656 -1.16072,-11.27883 3.05769,-3.0577 34.2684,-2.77374 41.16072,0.37447 9.7061,4.43348 19.78622,18.46685 23.69801,32.99193 1.76246,6.54431 1.76246,6.54431 1.84472,-6.66777 0.0784,-12.58416 -0.0663,-13.34122 -3.04273,-15.92923 -3.55359,-3.08982 -4.06795,-7.86217 -1.16072,-10.7694 2.88279,-2.88279 34.43864,-2.88279 37.32143,0 2.85739,2.85738 2.40977,7.31446 -1.16071,11.55775 -3.125,3.71385 -3.125,3.71385 -3.125,48.22091 l 0,44.50705 8.25705,0 c 6.98383,0 8.82972,-0.48188 11.97091,-3.125 4.24329,-3.57049 8.70036,-4.0181 11.55775,-1.16071 2.86995,2.86995 2.8502,28.22123 -0.0242,31.09566 -1.72783,1.72783 -6.57804,1.97682 -36.9967,1.8994 -34.51584,-0.0879 -35.04604,-0.12831 -37.69899,-2.87621 -1.47994,-1.5329 -6.48767,-6.858 -11.1283,-11.83355 -8.02587,-8.60512 -8.4375,-8.87127 -8.4375,-5.45555 0,2.09779 1.2994,4.99297 3.125,6.96283 3.57346,3.85583 4.03155,8.408 1.13735,11.3022 -1.67075,1.67075 -5.38089,1.96982 -23.27037,1.87574 -20.24634,-0.1065 -21.41262,-0.2465 -23.94985,-2.87535 -1.46693,-1.51988 -6.464,-6.83432 -11.10463,-11.80987 -8.02587,-8.60512 -8.4375,-8.87127 -8.4375,-5.45555 0,2.09779 1.2994,4.99297 3.125,6.96283 3.56358,3.84515 4.03299,8.40657 1.16071,11.27884 -1.58913,1.58915 -5.11036,1.96064 -18.4375,1.94515 -9.06026,-0.01 -17.2002,-0.48035 -18.08873,-1.04405 -0.88854,-0.56369 -2.10582,-2.66445 -2.70507,-4.66835 -0.88033,-2.9439 -1.11016,-3.12059 -1.19697,-0.92025 -0.22998,5.82916 -7.74581,8.83485 -11.84405,4.7366 z m 19.23662,-23.89234 c 0,-6.78037 -0.43294,-9.19247 -1.64992,-9.19247 -1.13148,0 -2.11338,3.48116 -3.125,11.07917 -1.94806,14.63157 -1.95753,14.5702 1.64992,10.6777 2.74436,-2.96121 3.125,-4.49161 3.125,-12.5644 z m 62.5,0.19299 c 0,-8.1156 -0.29839,-9.3117 -2.4971,-10.00954 -4.12375,-1.30883 -4.33848,-6.21316 -0.78975,-18.03789 1.91215,-6.37147 3.2496,-13.77754 3.1978,-17.70757 -0.089,-6.75546 -0.089,-6.75546 -2.26924,0.74454 -2.45826,8.45663 -5.295,14.39014 -9.68311,20.2538 -2.99628,4.00379 -2.99628,4.00379 3.48805,19.62809 3.56637,8.59336 6.94985,15.33659 7.51883,14.98493 0.56898,-0.35165 1.03452,-4.78701 1.03452,-9.85636 z m 62.41095,-21.64673 c -0.089,-30.86373 -0.089,-30.86373 -2.26924,-23.36373 -2.45826,8.45663 -5.295,14.39014 -9.68311,20.2538 -2.99628,4.00379 -2.99628,4.00379 3.48805,19.62809 3.56637,8.59336 6.94985,15.33659 7.51883,14.98493 0.56898,-0.35165 0.99444,-14.52805 0.94547,-31.5031 z m -112.49882,26.47682 c 0.0635,1.69254 0.52047,1.999 1.65037,1.1069 0.85937,-0.67852 3.08723,-1.01236 4.95081,-0.74189 3.3883,0.49179 3.3883,0.49179 3.75,-10.00541 l 0.36169,-10.49721 9.375,10.23175 c 7.1115,7.76138 10.19971,10.26676 12.79077,10.37681 1.87869,0.0797 3.70715,-0.32638 4.06325,-0.90257 0.35611,-0.57619 -1.83239,-6.96668 -4.86332,-14.20107 -5.37883,-12.83841 -5.45403,-13.20482 -3.14004,-15.29896 6.71266,-6.07488 14.89934,-25.25612 14.89934,-34.9089 0,-5.37339 -4.53414,-20.0873 -7.8757,-25.55775 -4.2745,-6.99774 -9.69042,-12.55018 -14.76865,-15.14089 -3.86332,-1.97092 -7.36339,-2.42636 -18.64658,-2.42636 -13.89052,0 -13.89052,0 -11.2998,3.29358 2.46209,3.13002 2.59073,4.82606 2.59073,34.15606 0,29.34068 -0.14874,31.2998 -3.01657,39.73152 -3.14397,9.24368 -3.06843,10.31884 0.7249,10.31884 2.03125,0 2.29167,1.13636 2.29167,10 0,8.05555 0.36458,10 1.875,10 1.03125,0 1.91453,0.70312 1.96286,1.5625 0.0482,0.85937 0.57127,0.4375 1.16214,-0.9375 0.99965,-2.3263 1.08038,-2.33738 1.16213,-0.15945 z m 10.08787,-64.84055 c 0,-14.09375 0.43733,-25.625 0.97186,-25.625 4.36077,0 11.61956,11.1496 13.91766,21.37772 1.50463,6.69657 -2.09012,18.67297 -7.61741,25.37854 -6.91226,8.38576 -7.27211,7.3401 -7.27211,-21.13126 z m 7.71455,-4.02739 c -1.07929,-2.95771 -1.26267,-2.26789 -1.23668,4.65239 0.0289,7.68393 0.0976,7.87244 1.26719,3.47261 0.82409,-3.10025 0.81391,-5.81094 -0.0305,-8.125 z m 42.97357,68.50453 c -0.30114,-0.48725 2.21295,-0.53176 5.58686,-0.0989 6.13439,0.78698 6.13439,0.78698 6.4922,-9.47854 l 0.35782,-10.26552 10,10.95739 c 8.34848,9.14775 10.51145,10.86853 13.09683,10.41942 1.70327,-0.29589 3.33714,-0.77825 3.63083,-1.07194 0.29367,-0.29368 -2.02865,-6.69138 -5.16074,-14.21712 -5.55012,-13.33575 -5.63474,-13.73741 -3.3326,-15.82083 6.70436,-6.06743 14.89068,-25.25466 14.89068,-34.90112 0,-5.37339 -4.53414,-20.0873 -7.8757,-25.55775 -4.2745,-6.99774 -9.69042,-12.55018 -14.76865,-15.14089 -3.86332,-1.97092 -7.36339,-2.42636 -18.64658,-2.42636 -13.89052,0 -13.89052,0 -11.2998,3.29358 2.46209,3.13002 2.59073,4.82606 2.59073,34.15606 0,29.34068 -0.14874,31.2998 -3.01657,39.73152 -3.14397,9.24368 -3.06843,10.31884 0.7249,10.31884 2.03889,0 2.29167,1.14899 2.29167,10.41666 0,5.72918 0.33623,10.75292 0.74721,11.16388 1.00215,1.00216 4.38624,-0.35334 3.69091,-1.4784 z m 11.81188,-64.47714 c 0,-14.09375 0.43733,-25.625 0.97186,-25.625 4.36077,0 11.61956,11.1496 13.91766,21.37772 1.50463,6.69657 -2.09012,18.67297 -7.61741,25.37854 -6.91226,8.38576 -7.27211,7.3401 -7.27211,-21.13126 z m 7.71455,-4.02739 c -1.07929,-2.95771 -1.26267,-2.26789 -1.23668,4.65239 0.0289,7.68393 0.0976,7.87244 1.26719,3.47261 0.82409,-3.10025 0.81391,-5.81094 -0.0305,-8.125 z m 76.7701,69.38843 c 1.0326,-0.59968 2.50351,-0.53247 6.14035,0.28057 4.02391,0.89956 5.625,-0.17256 5.625,-3.76661 0,-4.42368 -0.47394,-4.5704 -4.03797,-1.25 -2.34036,2.18037 -4.41125,2.5 -16.19773,2.5 l -13.5143,0 0,-49.81748 c 0,-49.81746 0,-49.81746 3.06531,-53.125 3.06531,-3.30752 3.06531,-3.30752 -10.71573,-3.30752 -13.78103,0 -13.78103,0 -11.19031,3.29358 2.52449,3.20936 2.59073,4.59304 2.59073,54.11725 0,50.82368 0,50.82368 5.3125,50.76863 2.92187,-0.0303 7.84375,0.22743 10.9375,0.57267 7.01148,0.78243 20.4594,0.61967 21.98465,-0.26609 z M 190.32539,392.67471 c 2.18289,-16.57951 2.75185,-27.08165 2.73349,-50.45642 -0.022,-27.98957 0.111,-29.68957 2.56755,-32.8125 2.59073,-3.29358 2.59073,-3.29358 -11.38847,-3.29358 -13.95529,0 -13.97417,0.004 -11.02823,2.38686 2.9433,2.38065 2.9528,2.47902 3.65375,37.8125 0.48389,24.39219 1.41898,40.38943 3.00234,51.36314 2.13419,14.79142 2.49382,15.9375 5.00122,15.9375 2.55165,0 2.85475,-1.16265 5.45835,-20.9375 z m 205.9737,40.27231 c -2.23515,-2.23515 -2.35045,-2.82621 -6.41418,-32.88108 -2.58409,-19.11162 -3.0992,-27.96296 -3.0992,-53.25498 0,-30.33369 0,-30.33369 -3.125,-33.70563 -3.56358,-3.84515 -4.03299,-8.40656 -1.16072,-11.27883 2.95689,-2.95689 34.44559,-2.87584 37.41774,0.0962 1.91411,1.91412 2.36774,1.91412 6.38169,0 2.96412,-1.41349 7.65704,-2.06059 14.94385,-2.06059 11.31175,0 17.72721,1.84376 22.71287,6.52755 2.82957,2.65829 2.82957,2.65829 2.82957,0.0297 0,-6.64993 -0.90173,-6.55718 63.75,-6.55718 52.71645,0 60.05472,0.2333 61.78571,1.96429 2.85176,2.85176 2.85176,28.21966 0,31.07142 -2.88385,2.88385 -7.32535,2.40063 -11.6898,-1.27182 -3.84591,-3.23613 -3.84591,-3.23613 -3.84591,21.10177 0,20.46999 -0.59908,28.48359 -3.76953,50.42361 -2.07324,14.34715 -4.07947,27.06879 -4.45831,28.27033 -1.62341,5.14889 -12.38081,3.69794 -13.56466,-1.82959 -0.33632,-1.57026 -2.04048,-14.10501 -3.78704,-27.85501 -2.43104,-19.13865 -3.17496,-30.6676 -3.17301,-49.17361 0.003,-24.17363 0.003,-24.17363 -3.84337,-20.9375 -2.11523,1.77986 -4.92773,3.23611 -6.25,3.23611 -2.3237,0 -2.40408,1.38361 -2.40408,41.38205 0,41.38206 0,41.38206 3.125,45.09591 3.57048,4.24329 4.0181,8.70036 1.16071,11.55775 -1.6882,1.6882 -6.6829,1.96429 -35.53571,1.96429 -36.09903,0 -37.5,-0.24498 -37.5,-6.55718 0,-2.62861 0,-2.62861 -2.82957,0.0296 -4.99888,4.69621 -11.39696,6.52755 -22.80508,6.52755 -14.65924,0 -22.74395,-4.43311 -28.49545,-15.625 -2.18458,-4.25096 -2.72135,-3.45138 -3.97594,5.92256 -0.43596,3.25741 -1.64314,6.77304 -2.6826,7.8125 -2.43473,2.43474 -7.25054,2.4222 -9.69798,-0.0252 z m 110.19849,-41.00067 c 0.32899,-26.4492 0.2777,-27.08414 -2.1875,-27.08414 -2.45361,0 -2.52437,0.74749 -2.52437,26.66666 0,14.66668 0.38671,27.05339 0.85937,27.52605 2.90239,2.90239 3.53455,-1.54587 3.8525,-27.10857 z m -57.83687,24.16586 c -0.69093,-1.11794 4.17782,-1.96161 7.4886,-1.29766 0.68123,0.13662 2.36873,0.31687 3.75,0.40056 1.38127,0.0836 2.9761,0.74165 3.54406,1.46212 0.63817,0.80955 0.83501,0.5937 0.51529,-0.56502 -0.28457,-1.03125 0.25478,-2.44434 1.19855,-3.1402 1.31996,-0.97323 1.63373,-4.57896 1.35972,-15.625 l -0.35622,-14.3598 -8.27162,10.625 c -4.54937,5.84375 -8.67563,11.92285 -9.16945,13.5091 -0.80333,2.58049 -5.02786,5.2409 -8.32212,5.2409 -0.674,0 -2.60613,-1.38069 -4.29363,-3.06819 -3.06818,-3.06817 -3.06818,-3.06817 -3.06818,-41.93181 0,-38.86364 0,-38.86364 3.06818,-41.93181 1.6875,-1.6875 3.61963,-3.06819 4.29363,-3.06819 3.28881,0 7.52022,2.65937 8.33894,5.2409 0.93643,2.95268 14.54568,21.49132 16.79928,22.88412 2.14377,1.32492 1.56028,-24.96265 -0.67271,-30.30692 -3.97574,-9.51529 -11.40172,-14.0681 -22.94615,-14.0681 -11.90105,0 -17.94687,3.39127 -22.75282,12.7627 -2.20644,4.30248 -2.37697,7.82625 -2.35922,48.75 0.01,24.26176 0.4324,44.71582 0.9375,45.45348 1.17917,1.72205 4.83329,3.07723 5.77048,2.14004 1.19992,-1.19992 8.29085,-1.39656 7.55725,-0.20956 -0.37505,0.60684 -0.0863,1.10334 0.64186,1.10334 0.72808,0 1.32378,-0.50326 1.32378,-1.11836 0,-0.64398 1.95908,-0.67651 4.6185,-0.0768 2.54017,0.57291 5.06697,0.76447 5.6151,0.42571 0.54812,-0.33876 1.98542,-0.0401 3.194,0.66371 2.79848,1.62969 3.14973,1.64658 2.1974,0.10563 z m -41.93789,-23.78269 c 1.97581,-14.96202 2.56289,-26.30519 2.56289,-49.51892 0,-28.56999 0.13261,-30.27983 2.59072,-33.40481 2.59073,-3.29358 2.59073,-3.29358 -11.19319,-3.29358 -13.7839,0 -13.7839,0 -10.71572,3.06819 3.06819,3.06817 3.06819,3.06817 3.04212,32.8125 -0.0305,34.8397 3.78857,72.40649 7.4415,73.19883 2.87065,0.62268 3.44855,-1.48395 6.27168,-22.86221 z m 83.56531,21.85217 c 0.89508,-0.29747 1.3048,-0.0189 0.91048,0.61918 -0.39432,0.63803 0.42022,1.07438 1.81008,0.96968 2.45652,-0.18504 2.52702,-0.98495 2.52702,-28.67434 l 0,-28.484 8.75,0 8.75,0 0,28.5 c 0,28.5 0,28.5 6.16926,28.5 3.3931,0 5.92356,-0.39754 5.62327,-0.88342 -0.30028,-0.48589 0.57979,-0.58903 1.95574,-0.22922 2.47225,0.64652 2.50173,0.0506 2.50173,-50.573 0,-49.93245 0.0655,-51.31046 2.59072,-54.52078 2.59073,-3.29358 2.59073,-3.29358 -10.71572,-3.29358 -13.30645,0 -13.30645,0 -10.71573,3.29358 2.29035,2.9117 2.59073,5.01318 2.59073,18.125 0,14.83142 0,14.83142 -8.75,14.83142 -8.75,0 -8.75,0 -8.75,-15.05681 0,-14.31959 0.15022,-15.20705 3.06818,-18.125 3.06818,-3.06819 3.06818,-3.06819 -11.19318,-3.06819 -14.26137,0 -14.26137,0 -11.19319,3.06819 2.89779,2.89777 3.06819,3.8575 3.06819,17.28105 0,11.78445 -0.52122,15.74532 -3.05054,23.18182 -3.05053,8.96894 -3.05053,8.96894 0,8.96894 3.05054,0 3.05054,0 3.05054,28.61261 0,28.6126 0,28.6126 4.6875,28.05515 2.57812,-0.3066 5.41983,-0.80082 6.31492,-1.09828 z m 71.51671,0.36802 c 0.0134,-1.08875 0.36232,-1.02022 1.15097,0.22601 1.30991,2.06995 1.43905,1.46128 5.10183,-24.04457 1.82728,-12.72424 2.47807,-23.96774 2.47807,-42.8125 0,-25.55644 0,-25.55644 5.11953,-25.55644 3.17209,0 6.50055,0.98338 8.75,2.58511 3.63047,2.58513 3.63047,2.58513 3.63047,-8.125 l 0,-10.71011 -25.625,0 -25.625,0 0,10.71573 c 0,10.71572 0,10.71572 3.29357,8.125 2.18953,-1.72229 5.12263,-2.59073 8.75,-2.59073 5.45643,0 5.45643,0 5.44603,25.3125 -0.01,25.36379 4.07907,68.4375 6.49758,68.4375 0.55705,0 1.02143,-0.70313 1.03195,-1.5625 z M 443.03571,403.0224 c 0,-1.93389 15.13977,-22.66068 18.51507,-25.34769 2.69755,-2.14746 7.1597,-1.95915 9.52064,0.40179 1.78571,1.78571 1.96429,1.28201 1.96429,-5.54076 0,-6.34158 -0.37765,-7.62493 -2.43607,-8.27823 -1.33982,-0.42525 -2.76623,-1.81349 -3.16978,-3.08497 -0.40357,-1.27149 -2.0005,-2.62973 -3.54877,-3.01832 -2.62048,-0.6577 -17.22928,-18.64505 -20.83088,-25.64838 -1.20747,-2.34795 -1.76618,-2.61353 -2.62972,-1.25 -1.22232,1.93004 -1.57187,68.51286 -0.37605,71.62913 0.9559,2.49105 2.99127,2.58455 2.99127,0.13743 z m 63.73086,-76.59769 c -0.0205,-10.39884 -1.48365,-14.95659 -3.71173,-11.5625 -0.67697,1.03125 -1.23947,6.23437 -1.25,11.5625 -0.0175,8.86055 0.19428,9.6875 2.48087,9.6875 2.28658,0 2.49836,-0.82695 2.48086,-9.6875 z m -34.98678,-11.2029 c -1.36201,-2.12411 -1.39728,-2.12139 -0.71347,0.0551 0.39566,1.25935 0.7638,2.94686 0.81807,3.75 0.0713,1.05395 0.26974,1.0386 0.71347,-0.0551 0.33813,-0.83348 -0.03,-2.52098 -0.81807,-3.75 z"
         id="path3441"
         inkscape:connector-curvature="0" />
      <path
         style="fill:#232722"
         d="m 180.04909,432.94702 c -2.23515,-2.23515 -2.35045,-2.82621 -6.41418,-32.88108 -2.58409,-19.11162 -3.0992,-27.96296 -3.0992,-53.25498 0,-30.33369 0,-30.33369 -3.125,-33.70563 -3.56358,-3.84515 -4.03299,-8.40656 -1.16072,-11.27883 1.68324,-1.68324 6.46743,-1.96037 33.4375,-1.93684 27.78554,0.0242 32.05905,0.29505 36.47322,2.31131 9.7061,4.43348 19.78622,18.46685 23.69801,32.99193 1.76246,6.54431 1.76246,6.54431 1.84472,-6.08567 0.0769,-11.79683 -0.12387,-12.85239 -3.04273,-16.0019 -3.56358,-3.84515 -4.03299,-8.40656 -1.16072,-11.27883 3.05769,-3.0577 34.2684,-2.77374 41.16072,0.37447 9.7061,4.43348 19.78622,18.46685 23.69801,32.99193 1.76246,6.54431 1.76246,6.54431 1.84472,-6.66777 0.0784,-12.58416 -0.0663,-13.34122 -3.04273,-15.92923 -3.55359,-3.08982 -4.06795,-7.86217 -1.16072,-10.7694 2.88279,-2.88279 34.43864,-2.88279 37.32143,0 2.85739,2.85738 2.40977,7.31446 -1.16071,11.55775 -3.125,3.71385 -3.125,3.71385 -3.125,48.22091 l 0,44.50705 8.25705,0 c 6.98383,0 8.82972,-0.48188 11.97091,-3.125 4.24329,-3.57049 8.70036,-4.0181 11.55775,-1.16071 2.86995,2.86995 2.8502,28.22123 -0.0242,31.09566 -1.72783,1.72783 -6.57804,1.97682 -36.9967,1.8994 -34.51584,-0.0879 -35.04604,-0.12831 -37.69899,-2.87621 -1.47994,-1.5329 -6.48767,-6.858 -11.1283,-11.83355 -8.02587,-8.60512 -8.4375,-8.87127 -8.4375,-5.45555 0,2.09779 1.2994,4.99297 3.125,6.96283 3.57346,3.85583 4.03155,8.408 1.13735,11.3022 -1.67075,1.67075 -5.38089,1.96982 -23.27037,1.87574 -20.24634,-0.1065 -21.41262,-0.2465 -23.94985,-2.87535 -1.46693,-1.51988 -6.464,-6.83432 -11.10463,-11.80987 -8.02587,-8.60512 -8.4375,-8.87127 -8.4375,-5.45555 0,2.09779 1.2994,4.99297 3.125,6.96283 3.56358,3.84515 4.03299,8.40657 1.16071,11.27884 -1.58913,1.58915 -5.11036,1.96064 -18.4375,1.94515 -9.06026,-0.01 -17.2002,-0.48035 -18.08873,-1.04405 -0.88854,-0.56369 -2.10582,-2.66445 -2.70507,-4.66835 -0.88033,-2.9439 -1.11016,-3.12059 -1.19697,-0.92025 -0.22998,5.82916 -7.74581,8.83485 -11.84405,4.7366 z m 9.2206,-32.54825 c 3.32528,-24.20707 3.7655,-30.93547 3.76574,-57.55548 2.6e-4,-28.60284 0.13273,-30.31232 2.591,-33.4375 2.59073,-3.29358 2.59073,-3.29358 -11.19319,-3.29358 -13.7839,0 -13.7839,0 -10.71572,3.06819 3.06819,3.06817 3.06819,3.06817 3.06819,33.60551 0,25.62211 0.50901,34.33305 3.16242,54.11932 3.58339,26.72105 4.44405,32.01718 5.09689,31.36433 0.25257,-0.25256 2.15367,-12.79442 4.22467,-27.87079 z m 35.01008,24.72274 c -2.30281,-3.11471 -2.54246,-4.97974 -2.22493,-17.31514 l 0.35587,-13.82445 16.08266,17.37831 c 8.84546,9.55808 16.29709,17.16389 16.55916,16.90182 0.26208,-0.26208 -3.37262,-9.71238 -8.07711,-21.00067 -8.5536,-20.52417 -8.5536,-20.52417 -5.25019,-24.34142 7.34621,-8.48886 13.81048,-24.25473 13.81048,-33.68275 0,-5.37339 -4.53414,-20.0873 -7.8757,-25.55775 -4.2745,-6.99774 -9.69042,-12.55018 -14.76865,-15.14089 -3.86332,-1.97092 -7.36339,-2.42636 -18.64658,-2.42636 -13.89052,0 -13.89052,0 -11.2998,3.29358 2.46209,3.13002 2.59073,4.82606 2.59073,34.15606 0,29.34068 -0.14874,31.2998 -3.01657,39.73152 -3.14397,9.24368 -3.06843,10.31884 0.7249,10.31884 2.08779,0 2.29167,1.26382 2.29167,14.20642 0,12.47952 -0.31493,14.60679 -2.59073,17.5 -2.59072,3.29358 -2.59072,3.29358 10.66243,3.29358 13.25313,0 13.25313,0 10.67236,-3.4907 z m -2.49406,-75.8843 c 0,-14.09375 0.43733,-25.625 0.97186,-25.625 4.36077,0 11.61956,11.1496 13.91766,21.37772 1.50463,6.69657 -2.09012,18.67297 -7.61741,25.37854 -6.91226,8.38576 -7.27211,7.3401 -7.27211,-21.13126 z m 7.71455,-4.02739 c -1.07929,-2.95771 -1.26267,-2.26789 -1.23668,4.65239 0.0289,7.68393 0.0976,7.87244 1.26719,3.47261 0.82409,-3.10025 0.81391,-5.81094 -0.0305,-8.125 z m 57.27951,79.91169 c -2.30281,-3.11471 -2.54246,-4.97974 -2.22493,-17.31514 l 0.35587,-13.82445 16.08266,17.37831 c 8.84546,9.55808 16.30916,17.15182 16.586,16.87498 0.27684,-0.27683 -3.35793,-9.72713 -8.07725,-21.00066 -8.58058,-20.49734 -8.58058,-20.49734 -5.27701,-24.31459 7.3462,-8.4885 13.8106,-24.25457 13.8106,-33.68275 0,-5.37339 -4.53414,-20.0873 -7.8757,-25.55775 -4.2745,-6.99774 -9.69042,-12.55018 -14.76865,-15.14089 -3.86332,-1.97092 -7.36339,-2.42636 -18.64658,-2.42636 -13.89052,0 -13.89052,0 -11.2998,3.29358 2.46209,3.13002 2.59073,4.82606 2.59073,34.15606 0,29.34068 -0.14874,31.2998 -3.01657,39.73152 -3.14397,9.24368 -3.06843,10.31884 0.7249,10.31884 2.08779,0 2.29167,1.26382 2.29167,14.20642 0,12.47952 -0.31493,14.60679 -2.59073,17.5 -2.59072,3.29358 -2.59072,3.29358 10.66243,3.29358 13.25313,0 13.25313,0 10.67236,-3.4907 z m -2.49406,-75.8843 c 0,-14.09375 0.43733,-25.625 0.97186,-25.625 4.36077,0 11.61956,11.1496 13.91766,21.37772 1.50463,6.69657 -2.09012,18.67297 -7.61741,25.37854 -6.91226,8.38576 -7.27211,7.3401 -7.27211,-21.13126 z m 7.71455,-4.02739 c -1.07929,-2.95771 -1.26267,-2.26789 -1.23668,4.65239 0.0289,7.68393 0.0976,7.87244 1.26719,3.47261 0.82409,-3.10025 0.81391,-5.81094 -0.0305,-8.125 z m 88.53545,72.77739 c 0,-5.84375 -0.30478,-10.625 -0.67727,-10.625 -0.3725,0 -1.88481,1.125 -3.3607,2.5 -2.34036,2.18038 -4.41125,2.5 -16.19773,2.5 l -13.5143,0 0,-49.81748 c 0,-49.81746 0,-49.81746 3.06531,-53.125 3.06531,-3.30752 3.06531,-3.30752 -10.71573,-3.30752 -13.78103,0 -13.78103,0 -11.19031,3.29358 2.53126,3.21797 2.59073,4.54823 2.59073,57.95642 0,53.40819 -0.0595,54.73845 -2.59073,57.95642 -2.59072,3.29358 -2.59072,3.29358 25,3.29358 l 27.59073,0 0,-10.625 z m -181.25,-8.93253 c 0,-6.78037 -0.43294,-9.19247 -1.64992,-9.19247 -1.13148,0 -2.11338,3.48116 -3.125,11.07917 -1.94806,14.63157 -1.95753,14.5702 1.64992,10.6777 2.74436,-2.96121 3.125,-4.49161 3.125,-12.5644 z m 62.5,0.19299 c 0,-8.1156 -0.29839,-9.3117 -2.4971,-10.00954 -4.12375,-1.30883 -4.33848,-6.21316 -0.78975,-18.03789 1.91215,-6.37147 3.2496,-13.77754 3.1978,-17.70757 -0.089,-6.75546 -0.089,-6.75546 -2.26924,0.74454 -2.45826,8.45663 -5.295,14.39014 -9.68311,20.2538 -2.99628,4.00379 -2.99628,4.00379 3.48805,19.62809 3.56637,8.59336 6.94985,15.33659 7.51883,14.98493 0.56898,-0.35165 1.03452,-4.78701 1.03452,-9.85636 z m 62.41095,-21.64673 c -0.089,-30.86373 -0.089,-30.86373 -2.26924,-23.36373 -2.45826,8.45663 -5.295,14.39014 -9.68311,20.2538 -2.99628,4.00379 -2.99628,4.00379 3.48805,19.62809 3.56637,8.59336 6.94985,15.33659 7.51883,14.98493 0.56898,-0.35165 0.99444,-14.52805 0.94547,-31.5031 z m 72.10243,45.34608 c -2.23515,-2.23515 -2.35045,-2.82621 -6.41418,-32.88108 -2.58409,-19.11162 -3.0992,-27.96296 -3.0992,-53.25498 0,-30.33369 0,-30.33369 -3.125,-33.70563 -3.56358,-3.84515 -4.03299,-8.40656 -1.16072,-11.27883 2.95689,-2.95689 34.44559,-2.87584 37.41774,0.0962 1.91411,1.91412 2.36774,1.91412 6.38169,0 2.96412,-1.41349 7.65704,-2.06059 14.94385,-2.06059 11.31175,0 17.72721,1.84376 22.71287,6.52755 2.82957,2.65829 2.82957,2.65829 2.82957,0.0297 0,-6.64993 -0.90173,-6.55718 63.75,-6.55718 52.71645,0 60.05472,0.2333 61.78571,1.96429 2.85176,2.85176 2.85176,28.21966 0,31.07142 -2.88385,2.88385 -7.32535,2.40063 -11.6898,-1.27182 -3.84591,-3.23613 -3.84591,-3.23613 -3.84591,21.10177 0,20.46999 -0.59908,28.48359 -3.76953,50.42361 -2.07324,14.34715 -4.07947,27.06879 -4.45831,28.27033 -1.62341,5.14889 -12.38081,3.69794 -13.56466,-1.82959 -0.33632,-1.57026 -2.04048,-14.10501 -3.78704,-27.85501 -2.43104,-19.13865 -3.17496,-30.6676 -3.17301,-49.17361 0.003,-24.17363 0.003,-24.17363 -3.84337,-20.9375 -2.11523,1.77986 -4.92773,3.23611 -6.25,3.23611 -2.3237,0 -2.40408,1.38361 -2.40408,41.38205 0,41.38206 0,41.38206 3.125,45.09591 3.57048,4.24329 4.0181,8.70036 1.16071,11.55775 -1.6882,1.6882 -6.6829,1.96429 -35.53571,1.96429 -36.09903,0 -37.5,-0.24498 -37.5,-6.55718 0,-2.62861 0,-2.62861 -2.82957,0.0296 -4.99888,4.69621 -11.39696,6.52755 -22.80508,6.52755 -14.65924,0 -22.74395,-4.43311 -28.49545,-15.625 -2.18458,-4.25096 -2.72135,-3.45138 -3.97594,5.92256 -0.43596,3.25741 -1.64314,6.77304 -2.6826,7.8125 -2.43473,2.43474 -7.25054,2.4222 -9.69798,-0.0252 z m 9.2206,-32.54825 c 3.32528,-24.20707 3.7655,-30.93547 3.76574,-57.55548 2.6e-4,-28.60284 0.13273,-30.31232 2.591,-33.4375 2.59073,-3.29358 2.59073,-3.29358 -11.19319,-3.29358 -13.7839,0 -13.7839,0 -10.71572,3.06819 3.06819,3.06817 3.06819,3.06817 3.06819,33.60551 0,25.62211 0.50901,34.33305 3.16242,54.11932 3.58339,26.72105 4.44405,32.01718 5.09689,31.36433 0.25257,-0.25256 2.15367,-12.79442 4.22467,-27.87079 z m 48.50332,25.84645 c 10.40901,-5.31255 12.94305,-11.23885 12.49098,-29.2123 l -0.35328,-14.04571 -8.27162,10.625 c -4.54937,5.84375 -8.67563,11.92285 -9.16945,13.5091 -0.80333,2.58049 -5.02786,5.2409 -8.32212,5.2409 -0.674,0 -2.60613,-1.38069 -4.29363,-3.06819 -3.06818,-3.06817 -3.06818,-3.06817 -3.06818,-41.93181 0,-38.86364 0,-38.86364 3.06818,-41.93181 1.6875,-1.6875 3.61963,-3.06819 4.29363,-3.06819 3.28881,0 7.52022,2.65937 8.33894,5.2409 0.93643,2.95268 14.54568,21.49132 16.79928,22.88412 2.14377,1.32492 1.56028,-24.96265 -0.67271,-30.30692 -3.97574,-9.51529 -11.40172,-14.0681 -22.94615,-14.0681 -11.90105,0 -17.94687,3.39127 -22.75282,12.7627 -2.20447,4.29864 -2.37835,7.84361 -2.37835,48.4873 0,40.64369 0.17388,44.18866 2.37835,48.4873 2.77635,5.41377 6.97108,9.60339 11.37228,11.35839 5.45935,2.17693 18.37215,1.64766 23.48667,-0.96268 z m 44.80815,-0.92846 c -3.29545,-3.29546 -3.29545,-3.29546 -3.29545,-35 l 0,-31.70455 8.75,0 8.75,0 0,31.70455 c 0,31.70454 0,31.70454 -3.29545,35 -3.29547,3.29545 -3.29547,3.29545 10.71011,3.29545 14.00557,0 14.00557,0 11.42045,-3.63046 -2.51814,-3.53642 -2.58511,-5.03786 -2.58511,-57.95643 0,-53.06737 0.06,-54.40227 2.59072,-57.61953 2.59073,-3.29358 2.59073,-3.29358 -10.71572,-3.29358 -13.30645,0 -13.30645,0 -10.71573,3.29358 2.29035,2.9117 2.59073,5.01318 2.59073,18.125 0,14.83142 0,14.83142 -8.75,14.83142 -8.75,0 -8.75,0 -8.75,-15.05681 0,-14.31959 0.15022,-15.20705 3.06818,-18.125 3.06818,-3.06819 3.06818,-3.06819 -11.19318,-3.06819 -14.26137,0 -14.26137,0 -11.19319,3.06819 2.89779,2.89777 3.06819,3.8575 3.06819,17.28105 0,11.78445 -0.52122,15.74532 -3.05054,23.18182 -3.05053,8.96894 -3.05053,8.96894 0,8.96894 3.05054,0 3.05054,0 3.05054,31.69247 0,31.69247 0,31.69247 -3.06532,35 -3.06531,3.30753 -3.06531,3.30753 11.42045,3.30753 14.48578,0 14.48578,0 11.19032,-3.29545 z m 67.89796,-25.309 c 3.24256,-22.76895 3.80659,-30.50159 3.80659,-52.1875 0,-25.45805 0,-25.45805 5.11953,-25.45805 3.17209,0 6.50055,0.98338 8.75,2.58511 3.63047,2.58513 3.63047,2.58513 3.63047,-8.125 l 0,-10.71011 -25.625,0 -25.625,0 0,10.71573 c 0,10.71572 0,10.71572 3.29357,8.125 2.18953,-1.72229 5.12263,-2.59073 8.75,-2.59073 5.45643,0 5.45643,0 5.45643,25.77741 0,20.30571 0.67265,30.98539 3.1689,50.3125 3.28707,25.45013 4.34952,31.65949 5.05362,29.53509 0.22786,-0.6875 2.12725,-13.27825 4.22089,-27.97945 z m -60.23154,-8.06141 c 0.32899,-26.4492 0.2777,-27.08414 -2.1875,-27.08414 -2.45361,0 -2.52437,0.74749 -2.52437,26.66666 0,14.66668 0.38671,27.05339 0.85937,27.52605 2.90239,2.90239 3.53455,-1.54587 3.8525,-27.10857 z m -63.46187,11.07605 c 0,-1.93389 15.13977,-22.66068 18.51507,-25.34769 2.69755,-2.14746 7.1597,-1.95915 9.52064,0.40179 1.78571,1.78571 1.96429,1.28201 1.96429,-5.54076 0,-6.34158 -0.37765,-7.62493 -2.43607,-8.27823 -1.33982,-0.42525 -2.76623,-1.81349 -3.16978,-3.08497 -0.40357,-1.27149 -2.0005,-2.62973 -3.54877,-3.01832 -2.62048,-0.6577 -17.22928,-18.64505 -20.83088,-25.64838 -1.20747,-2.34795 -1.76618,-2.61353 -2.62972,-1.25 -1.22232,1.93004 -1.57187,68.51286 -0.37605,71.62913 0.9559,2.49105 2.99127,2.58455 2.99127,0.13743 z m 63.73086,-76.59769 c -0.0205,-10.39884 -1.48365,-14.95659 -3.71173,-11.5625 -0.67697,1.03125 -1.23947,6.23437 -1.25,11.5625 -0.0175,8.86055 0.19428,9.6875 2.48087,9.6875 2.28658,0 2.49836,-0.82695 2.48086,-9.6875 z m -34.98678,-11.2029 c -1.36201,-2.12411 -1.39728,-2.12139 -0.71347,0.0551 0.39566,1.25935 0.7638,2.94686 0.81807,3.75 0.0713,1.05395 0.26974,1.0386 0.71347,-0.0551 0.33813,-0.83348 -0.03,-2.52098 -0.81807,-3.75 z"
         id="path3439"
         inkscape:connector-curvature="0" />
      <path
         style="fill:#1c221b"
         d="m 557.47272,417.64495 c -1.25905,-1.18675 -1.8955,-1.45462 -1.41433,-0.59524 0.50922,0.90946 0.17157,1.5625 -0.80791,1.5625 -0.92552,0 -1.77019,-0.98438 -1.87704,-2.1875 -0.10687,-1.20313 -1.15235,-8.375 -2.32333,-15.9375 -1.26804,-8.18929 -2.43448,-25.55379 -2.88424,-42.93726 -0.75516,-29.18725 -0.75516,-29.18725 -4.25706,-25.9375 -1.92605,1.78737 -4.59034,3.24976 -5.92065,3.24976 -2.33643,0 -2.42997,1.41105 -2.7481,41.45925 -0.32935,41.45924 -0.32935,41.45924 -3.14185,41.6661 -2.8125,0.20685 -2.8125,0.20685 -2.8125,-52.54068 0,-51.47051 0.0628,-52.82726 2.59072,-56.04109 2.59073,-3.29358 2.59073,-3.29358 -10.71572,-3.29358 -13.30645,0 -13.30645,0 -10.71573,3.29358 2.29035,2.9117 2.59073,5.01318 2.59073,18.125 0,14.83142 0,14.83142 -8.75,14.83142 -8.75,0 -8.75,0 -8.75,-15.05681 0,-14.31959 0.15022,-15.20705 3.06818,-18.125 3.06818,-3.06819 3.06818,-3.06819 -11.19318,-3.06819 -14.26137,0 -14.26137,0 -11.19319,3.06819 2.89779,2.89777 3.06819,3.8575 3.06819,17.28105 0,11.78445 -0.52122,15.74532 -3.05054,23.18182 -3.05053,8.96894 -3.05053,8.96894 0.023,8.96894 3.07357,0 3.07357,0 2.73803,29.0625 -0.33553,29.0625 -0.33553,29.0625 -3.14803,29.20432 -1.54688,0.078 -2.8125,-0.37706 -2.8125,-1.01126 0,-0.63421 -0.70313,-0.7143 -1.5625,-0.178 -5.10617,3.1866 -5.46858,2.22211 -4.9223,-13.09947 0.76448,-21.44194 0.91713,-21.28427 -8.67567,-8.96115 -4.54176,5.83444 -8.66178,11.90591 -9.1556,13.49216 -1.94031,6.23271 -12.03587,5.9233 -14.45635,-0.44306 -0.70435,-1.85258 -1.22758,-19.20198 -1.22758,-40.70423 0,-37.47545 0,-37.47545 3.06818,-40.54362 1.6875,-1.6875 3.61963,-3.06819 4.29363,-3.06819 3.28881,0 7.52022,2.65938 8.33894,5.2409 0.93643,2.95268 14.54568,21.49133 16.79928,22.88412 2.14377,1.32492 1.56028,-24.96265 -0.67271,-30.30692 -3.97574,-9.51529 -11.40172,-14.0681 -22.94615,-14.0681 -11.90105,0 -17.94687,3.39127 -22.75282,12.7627 -2.20407,4.29785 -2.37835,7.84137 -2.37835,48.35613 0,24.23481 0.52322,45.09461 1.17403,46.80638 1.04949,2.76035 0.87104,3.05471 -1.68195,2.77447 -1.57078,-0.17243 -3.50536,-0.71484 -4.29903,-1.20537 -0.79368,-0.49052 -1.44305,-0.38001 -1.44305,0.24556 0,0.62558 -1.54688,1.08065 -3.4375,1.01127 -4.00953,-0.14713 -3.99858,1.21988 -0.21073,-26.30002 1.8177,-13.20614 2.39823,-24.73911 2.39823,-47.64392 0,-28.68008 0.13202,-30.38789 2.59072,-33.51362 2.59073,-3.29358 2.59073,-3.29358 -11.19319,-3.29358 -13.7839,0 -13.7839,0 -10.71572,3.06819 3.06819,3.06817 3.06819,3.06817 3.11467,34.0625 0.0375,24.97326 0.5998,35.14628 2.89474,52.36728 2.84825,21.37298 2.84825,21.37298 -0.35899,21.25 -3.16777,-0.12149 -3.24073,-0.35366 -5.93027,-18.87297 -2.1966,-15.12517 -2.74033,-24.8165 -2.8125,-50.12997 -0.0895,-31.37997 -0.0895,-31.37997 -3.21446,-34.7519 -3.56358,-3.84516 -4.03299,-8.40657 -1.16072,-11.27884 2.95689,-2.95689 34.44559,-2.87584 37.41774,0.0962 1.91411,1.91412 2.36774,1.91412 6.38169,0 2.96412,-1.41349 7.65704,-2.06059 14.94385,-2.06059 11.31175,0 17.72721,1.84376 22.71287,6.52755 2.82957,2.65829 2.82957,2.65829 2.82957,0.0297 0,-6.64993 -0.90173,-6.55718 63.75,-6.55718 52.71645,0 60.05472,0.2333 61.78571,1.96429 2.85176,2.85176 2.85176,28.21966 0,31.07142 -2.90341,2.90343 -7.44658,2.39149 -11.40881,-1.28557 -3.5019,-3.24985 -3.5019,-3.24985 -4.24573,25.3125 -0.43086,16.54485 -1.62967,34.34762 -2.84924,42.31236 -2.99036,19.52939 -2.95387,19.40938 -5.77076,18.97949 -1.34571,-0.20536 -2.72332,-0.64998 -3.06136,-0.98802 -0.33804,-0.33803 0.77246,-10.425 2.46779,-22.41548 2.45773,-17.38283 3.0824,-26.93312 3.0824,-47.12593 0,-25.32506 0,-25.32506 5.11953,-25.32506 3.17209,0 6.50055,0.98338 8.75,2.58511 3.63047,2.58513 3.63047,2.58513 3.63047,-8.125 l 0,-10.71011 -25.625,0 -25.625,0 0,10.71573 c 0,10.71572 0,10.71572 3.29357,8.125 2.18953,-1.72229 5.12263,-2.59073 8.75,-2.59073 5.45643,0 5.45643,0 5.47841,25.9375 0.017,20.00676 0.69848,31.08224 2.98059,48.4375 1.62724,12.375 2.84949,22.62724 2.71611,22.78274 -0.13337,0.15551 -1.27262,-0.68824 -2.53167,-1.875 z M 443.03571,403.06882 c 0,-1.88416 15.19925,-22.70465 18.53807,-25.39411 2.66675,-2.14811 7.13685,-1.95901 9.49764,0.40179 1.78571,1.78571 1.96429,1.28201 1.96429,-5.54076 0,-6.34158 -0.37765,-7.62493 -2.43607,-8.27823 -1.33982,-0.42525 -2.76623,-1.81349 -3.16978,-3.08497 -0.40357,-1.27149 -1.98398,-2.62558 -3.51204,-3.0091 -2.99048,-0.75057 -20.88211,-23.46018 -20.88211,-26.50539 0,-2.41188 -2.04369,-2.28795 -2.99127,0.1814 -0.41731,1.08747 -0.75873,17.07272 -0.75873,35.52276 0,18.45004 0.34142,34.43529 0.75873,35.52276 0.9471,2.46813 2.99127,2.59376 2.99127,0.18385 z m 63.75,-77.50783 c 0,-6.39315 -0.54769,-10.88972 -1.38975,-11.41015 -2.44635,-1.51193 -3.57147,2.33358 -3.59112,12.27387 -0.0175,8.86055 0.19428,9.6875 2.48087,9.6875 2.30255,0 2.5,-0.83334 2.5,-10.55122 z m -35.00592,-10.33918 c -1.36201,-2.12411 -1.39728,-2.12139 -0.71347,0.0551 0.39566,1.25935 0.7638,2.94686 0.81807,3.75 0.0713,1.05395 0.26974,1.0386 0.71347,-0.0551 0.33813,-0.83348 -0.03,-2.52098 -0.81807,-3.75 z m 26.95079,102.25346 c -0.47719,-0.77211 -1.39125,-1.08022 -2.03125,-0.68467 -0.70559,0.43607 -1.16362,-10.87268 -1.16362,-28.72961 l 0,-29.44878 8.75,0 8.75,0 0,29.82932 c 0,29.82934 0,29.82934 -2.8125,29.6875 -2.8125,-0.14182 -2.8125,-0.14182 -3.14987,-26.70432 -0.3242,-25.52665 -0.43387,-26.5625 -2.8125,-26.5625 -2.38473,0 -2.47583,0.92453 -2.49427,25.3125 -0.0179,23.57955 -0.82879,30.87189 -3.03599,27.30056 z m -213.91302,-1.78005 c -0.35183,-0.91684 -0.47479,-6.22365 -0.27327,-11.7929 l 0.36642,-10.1259 9.0625,10.07713 c 4.98437,5.54241 9.01808,10.98983 8.96381,12.10538 -0.0581,1.19458 -0.34925,1.41177 -0.7083,0.52839 -0.4322,-1.06339 -1.5156,-1.15544 -3.72275,-0.31629 -1.71223,0.65099 -2.8577,0.76344 -2.54549,0.2499 0.3122,-0.51355 -0.78065,-1.94436 -2.42856,-3.17957 -2.5688,-1.92549 -2.99621,-1.97006 -2.99621,-0.3125 0,1.06334 -0.87695,1.93335 -1.94878,1.93335 -1.07182,0 -1.60112,0.5625 -1.17622,1.25 0.4249,0.6875 0.15918,1.25 -0.59047,1.25 -0.74965,0 -1.65086,-0.75015 -2.00268,-1.66699 z m 42.28065,0.64255 c -2.8125,-0.39944 -2.8125,-0.39944 -2.90155,-30 -0.089,-29.60056 -0.089,-29.60056 -2.26924,-22.10056 -2.46198,8.4694 -5.29551,14.39107 -9.70565,20.28332 -3.01879,4.03334 -3.01879,4.03334 1.53425,15 7.24169,17.44268 6.97472,15.96953 2.9038,16.02366 -3.39029,0.0451 -3.90415,-0.71679 -9.69874,-14.37969 -6.11877,-14.42729 -6.11877,-14.42729 -3.30349,-17.55229 5.19778,-5.76956 9.15792,-13.0643 11.77723,-21.69418 3.26044,-10.74218 3.25716,-14.64781 -0.0213,-25.36165 -4.13935,-13.52721 -11.32329,-23.57997 -20.02218,-28.01781 -3.86335,-1.97092 -7.36342,-2.42636 -18.64661,-2.42636 -13.89052,0 -13.89052,0 -11.2998,3.29358 2.46209,3.13002 2.59073,4.82606 2.59073,34.15606 0,29.34068 -0.14874,31.2998 -3.01657,39.73152 -3.14397,9.24368 -3.06843,10.31884 0.7249,10.31884 2.04769,0 2.29157,1.16445 2.29078,10.9375 -8.6e-4,10.78417 -0.0446,10.94002 -3.125,11.11776 -3.02195,0.17438 -3.12411,-0.0784 -3.12411,-7.72826 0,-6.80764 -0.3476,-8.01885 -2.4971,-8.70108 -4.13308,-1.31178 -4.34555,-6.22397 -0.77529,-17.92372 1.99245,-6.52924 3.26237,-13.5563 3.19915,-17.7022 -0.10488,-6.875 -0.10488,-6.875 -2.28505,0.625 -2.46356,8.47489 -5.29574,14.39149 -9.71535,20.29605 -3.0285,4.04606 -3.0285,4.04606 2.02256,16.13469 2.77809,6.64875 5.05108,12.73115 5.05108,13.51645 0,0.7853 -1.39439,1.42781 -3.09864,1.42781 -2.76756,0 -3.74973,-1.54251 -9.1927,-14.4375 -6.09408,-14.4375 -6.09408,-14.4375 -2.77989,-18.25475 5.36774,-6.18251 8.41024,-11.8882 11.19905,-21.00193 3.28278,-10.72798 3.28278,-14.63366 0,-25.36165 -4.13935,-13.52721 -11.32329,-23.57997 -20.02217,-28.01781 -3.86332,-1.97092 -7.36339,-2.42636 -18.64658,-2.42636 -13.89052,0 -13.89052,0 -11.2998,3.29358 2.46209,3.13002 2.59073,4.82606 2.59073,34.15606 0,29.34068 -0.14874,31.2998 -3.01657,39.73152 -3.14397,9.24368 -3.06843,10.31884 0.7249,10.31884 2.04123,0 2.29167,1.15306 2.29167,10.55122 0,5.80318 -0.5625,10.89888 -1.25,11.32378 -0.6875,0.4249 -1.25,0.1945 -1.25,-0.512 0,-0.7065 -0.84375,-0.96076 -1.875,-0.56504 -1.53828,0.5903 -1.875,-0.62737 -1.875,-6.78049 0,-5.51356 -0.49662,-7.69057 -1.875,-8.21951 -1.4266,-0.54744 -1.87667,0.24265 -1.88198,3.30376 -0.004,2.2128 -0.60331,6.17084 -1.33217,8.79563 -1.16452,4.19365 -1.57172,4.57259 -3.35798,3.125 -1.72534,-1.39821 -1.87422,-1.36378 -0.98444,0.22765 0.84822,1.51709 0.72977,1.57951 -0.62048,0.32707 -1.38895,-1.28835 -1.20619,-5.06162 1.0898,-22.5 2.18501,-16.59548 2.75378,-27.08997 2.73542,-50.471 -0.022,-27.98956 0.111,-29.68956 2.56755,-32.8125 2.59073,-3.29357 2.59073,-3.29357 -11.19319,-3.29357 -13.7839,0 -13.7839,0 -10.71572,3.06819 3.06819,3.06817 3.06819,3.06817 3.06819,33.58164 0,23.52622 0.57247,34.74098 2.5,48.97517 2.84888,21.03817 2.98983,23.57529 1.25,22.5 -0.6875,-0.4249 -1.25,-0.2706 -1.25,0.3429 0,0.61349 -0.77482,1.11544 -1.72182,1.11544 -3.42782,0 -7.02818,-35.44649 -7.02818,-69.19437 0,-30.02391 0,-30.02391 -3.125,-33.39585 -3.56358,-3.84515 -4.03299,-8.40656 -1.16072,-11.27883 1.68143,-1.68143 6.48469,-1.96429 33.35534,-1.96429 29.09028,0 31.779,0.1878 36.68385,2.56219 10.10216,4.89038 18.76085,16.79736 23.13406,31.81281 2.18437,7.5 2.18437,7.5 2.27342,-5.12998 0.0832,-11.80153 -0.11588,-12.85113 -3.03595,-16.0019 -3.56358,-3.84515 -4.03299,-8.40656 -1.16072,-11.27883 3.05769,-3.0577 34.2684,-2.77374 41.16072,0.37447 9.7061,4.43348 19.78622,18.46685 23.69801,32.99193 1.76246,6.54431 1.76246,6.54431 1.84472,-6.38353 0.0707,-11.11206 -0.26887,-13.37424 -2.41773,-16.10607 -3.00159,-3.8159 -3.21729,-8.19524 -0.53572,-10.8768 1.58202,-1.58201 5.09199,-1.96429 18.03572,-1.96429 12.94372,0 16.4537,0.38228 18.03571,1.96429 2.87227,2.87227 2.40286,7.43368 -1.16071,11.27883 -3.125,3.37194 -3.125,3.37194 -3.125,48.1894 l 0,44.81748 8.25705,0 c 6.98383,0 8.82972,-0.48188 11.97091,-3.125 7.36725,-6.19914 13.52204,-3.09558 13.52204,6.8185 0,4.90389 -0.44842,6.13219 -2.42763,6.64976 -3.29605,0.86194 -3.82237,0.0652 -3.82237,-5.78546 0,-5.02552 0,-5.02552 -3.5059,-1.66666 -3.35809,3.21725 -4.06955,3.35886 -16.875,3.35886 l -13.3691,0 0,-49.81748 c 0,-49.81746 0,-49.81746 3.06531,-53.125 3.06531,-3.30752 3.06531,-3.30752 -10.66243,-3.30752 -13.72772,0 -13.72772,0 -11.17635,3.45092 2.4851,3.36128 2.54289,4.798 2.22492,55.3125 -0.32645,51.86158 -0.32645,51.86158 -3.13895,51.46214 z m -105.3125,-11.8989 c 0,-6.39611 0.46718,-10.80974 1.07322,-10.13916 0.59029,0.65312 4.80904,5.30994 9.375,10.34847 4.56598,5.03854 8.30178,9.60538 8.30178,10.14854 0,1.69981 -7.81663,0.16643 -10.21473,-2.00384 -1.99382,-1.80438 -2.28527,-1.82288 -2.28527,-0.14512 0,1.05858 -1.40475,2.19154 -3.125,2.52039 -3.125,0.59738 -3.125,0.59738 -3.125,-10.72928 z m 0,-55.20166 c 0,-14.09375 0.43733,-25.625 0.97186,-25.625 4.36077,0 11.61956,11.1496 13.91766,21.37772 1.50463,6.69657 -2.09012,18.67297 -7.61741,25.37854 -6.91226,8.38576 -7.27211,7.3401 -7.27211,-21.13126 z m 7.80843,-3.4375 c -1.18728,-3.70113 -1.30321,-3.33976 -1.30321,4.0625 0,7.40226 0.11588,7.76363 1.30321,4.0625 0.90429,-2.81893 0.90429,-5.30607 0,-8.125 z m 54.69157,3.4375 c 0,-14.09375 0.43733,-25.625 0.97186,-25.625 4.36077,0 11.61956,11.1496 13.91766,21.37772 1.50463,6.69657 -2.09012,18.67297 -7.61741,25.37854 -6.91226,8.38576 -7.27211,7.3401 -7.27211,-21.13126 z m 7.80843,-3.4375 c -1.18728,-3.70113 -1.30321,-3.33976 -1.30321,4.0625 0,7.40226 0.11588,7.76363 1.30321,4.0625 0.90429,-2.81893 0.90429,-5.30607 0,-8.125 z"
         id="path3437"
         inkscape:connector-curvature="0" />
      <path
         style="fill:#081207"
         d="m 532.09821,378.3366 c -2.80858,-1.35453 -2.8125,-1.40128 -2.8125,-33.49684 0,-30.62284 0.12237,-32.29591 2.59072,-35.43398 2.59073,-3.29357 2.59073,-3.29357 -10.71572,-3.29357 -13.30645,0 -13.30645,0 -10.71573,3.29358 2.29035,2.9117 2.59073,5.01318 2.59073,18.125 0,14.83142 0,14.83142 -8.75,14.83142 -8.75,0 -8.75,0 -8.75,-15.05681 0,-14.31959 0.15022,-15.20705 3.06818,-18.125 3.06818,-3.06819 3.06818,-3.06819 -11.19318,-3.06819 -14.26137,0 -14.26137,0 -11.19319,3.06819 2.89779,2.89777 3.06819,3.8575 3.06819,17.28105 0,11.78445 -0.52122,15.74532 -3.05054,23.18182 -3.05053,8.96894 -3.05053,8.96894 0,8.96894 2.95861,0 3.05054,0.27812 3.05054,9.22921 0,8.08623 -0.30065,9.30783 -2.42763,9.86405 -3.37089,0.8815 -3.82237,0.0881 -3.82237,-6.71736 0,-4.80749 -0.47023,-6.10668 -2.43607,-6.7306 -1.33982,-0.42525 -2.76623,-1.81349 -3.16978,-3.08497 -0.40357,-1.27149 -1.98398,-2.62558 -3.51204,-3.0091 -2.99048,-0.75057 -20.88211,-23.46018 -20.88211,-26.50539 0,-2.41188 -2.04369,-2.28795 -2.99127,0.1814 -0.41731,1.08747 -0.75913,11.63435 -0.75962,23.4375 -8.8e-4,21.46026 -8.8e-4,21.46026 -3.125,21.64052 -3.12411,0.18028 -3.12411,0.18028 -3.12411,-24.11931 0,-24.1329 0.021,-24.32064 3.06818,-27.36776 1.6875,-1.6875 3.61963,-3.06819 4.29363,-3.06819 3.28881,0 7.52022,2.65937 8.33894,5.2409 0.93643,2.95268 14.54568,21.49132 16.79928,22.88412 2.14377,1.32492 1.56028,-24.96265 -0.67271,-30.30692 -3.97574,-9.51529 -11.40172,-14.0681 -22.94615,-14.0681 -11.90105,0 -17.94687,3.39127 -22.75282,12.7627 -2.12125,4.13636 -2.37835,7.55631 -2.37835,31.63627 0,17.68074 -0.4314,26.73195 -1.25,26.22603 -0.6875,-0.4249 -1.25,-0.22661 -1.25,0.44062 0,0.66724 -0.98438,1.06894 -2.1875,0.89267 -2.00877,-0.29431 -2.2148,-2.96439 -2.52169,-32.67802 -0.3194,-30.92566 -0.22095,-32.51068 2.22492,-35.8189 2.5591,-3.46137 2.5591,-3.46137 -11.1715,-3.46137 -13.7306,0 -13.7306,0 -10.66242,3.06819 3.06819,3.06817 3.06819,3.06817 3.06819,36.5 0,24.70876 -0.36589,33.06592 -1.40233,32.02948 -0.77127,-0.77127 -2.17752,-1.10483 -3.125,-0.74126 -1.43464,0.55053 -1.72267,-4.45142 -1.72267,-29.91515 0,-30.5762 0,-30.5762 -3.125,-33.94814 -3.56358,-3.84515 -4.03299,-8.40656 -1.16072,-11.27883 2.95689,-2.95689 34.44559,-2.87584 37.41774,0.0962 1.91411,1.91412 2.36774,1.91412 6.38169,0 2.96412,-1.41349 7.65704,-2.06059 14.94385,-2.06059 11.31175,0 17.72721,1.84376 22.71287,6.52755 2.82957,2.65829 2.82957,2.65829 2.82957,0.0297 0,-6.64993 -0.90173,-6.55718 63.75,-6.55718 52.71645,0 60.05472,0.2333 61.78571,1.96429 1.54449,1.54449 1.96429,4.86471 1.96429,15.53571 0,10.671 -0.4198,13.99122 -1.96429,15.53571 -2.9026,2.9026 -7.44583,2.3918 -11.40881,-1.2827 -3.5019,-3.24697 -3.5019,-3.24697 -3.83984,21.73415 -0.33793,24.98111 -0.33793,24.98111 -3.75,25.6366 -1.87664,0.36051 -3.41206,0.56453 -3.41206,0.45336 0,-0.11112 0.16116,-12.999 0.35813,-28.63962 0.35814,-28.4375 0.35814,-28.4375 5.43204,-28.4375 3.12595,0 6.4677,0.99247 8.70436,2.58511 3.63047,2.58513 3.63047,2.58513 3.63047,-8.125 l 0,-10.71011 -25.625,0 -25.625,0 0,10.71573 c 0,10.71572 0,10.71572 3.29357,8.125 2.18953,-1.72229 5.12263,-2.59073 8.75,-2.59073 5.45643,0 5.45643,0 5.45643,27.97928 0,27.97928 0,27.97928 -3.10019,28.57192 -3.10018,0.59264 -3.10018,0.59264 -3.4375,-24.9762 -0.33731,-25.56884 -0.33731,-25.56884 -3.83921,-22.32193 -1.92605,1.78582 -4.59793,3.24693 -5.9375,3.24693 -2.31429,0 -2.44298,1.07404 -2.58363,21.5625 -0.0814,11.85937 -0.0814,21.98437 0,22.5 0.17555,1.11179 0.27041,1.12875 -3.28947,-0.58811 z m -25.3125,-52.77561 c 0,-6.39315 -0.54769,-10.88972 -1.38975,-11.41015 -2.44635,-1.51193 -3.57147,2.33358 -3.59112,12.27387 -0.0175,8.86055 0.19428,9.6875 2.48087,9.6875 2.30255,0 2.5,-0.83334 2.5,-10.55122 z m -35.00592,-10.33918 c -1.36201,-2.12411 -1.39728,-2.12139 -0.71347,0.0551 0.39566,1.25935 0.7638,2.94686 0.81807,3.75 0.0713,1.05395 0.26974,1.0386 0.71347,-0.0551 0.33813,-0.83348 -0.03,-2.52098 -0.81807,-3.75 z m -119.72311,62.4529 c -0.14904,-0.85938 -0.69285,-1.49589 -1.20847,-1.41448 -3.96325,0.62578 -4.0625,-0.15208 -4.0625,-31.8405 0,-31.69246 0,-31.69246 3.06531,-35 3.06531,-3.30752 3.06531,-3.30752 -10.71573,-3.30752 -13.78103,0 -13.78103,0 -11.19031,3.29358 2.4656,3.1345 2.59073,4.81791 2.59073,34.85427 0,31.56071 0,31.56071 -3.125,32.15809 -3.12003,0.59643 -3.12514,0.58125 -3.21405,-9.54178 -0.089,-10.13916 -0.089,-10.13916 -2.261,-2.63916 -3.02682,10.45194 -4.48832,12.76104 -7.8972,12.47724 -3.38504,-0.28182 -3.36543,-1.25763 0.22348,-11.12037 4.20169,-11.54669 4.50023,-17.87282 1.34123,-28.42034 -4.15579,-13.87568 -11.3875,-24.07612 -20.33016,-28.676 -3.74123,-1.92441 -7.31248,-2.38553 -18.47493,-2.38553 -13.83721,0 -13.83721,0 -11.27734,3.46244 2.44217,3.30318 2.54449,4.89851 2.22493,34.6875 -0.33496,31.22506 -0.33496,31.22506 -3.45325,31.2103 -3.07071,-0.0145 -3.11398,-0.15754 -2.83611,-9.375 0.28217,-9.36024 0.28217,-9.36024 -1.94969,-1.79565 -2.14424,7.26761 -6.47091,15.31378 -6.47091,12.03375 0,-0.87062 -0.98438,-1.41765 -2.1875,-1.21564 -2.54472,0.42728 -2.52392,0.22108 0.9608,-9.52582 4.15613,-11.62489 4.4423,-17.90913 1.29416,-28.42035 -4.15579,-13.87568 -11.3875,-24.07612 -20.33016,-28.676 -3.74439,-1.92603 -7.31333,-2.38553 -18.52823,-2.38553 -13.89052,0 -13.89052,0 -11.2998,3.29358 2.46246,3.13051 2.59073,4.8252 2.59073,34.22927 0,30.93571 0,30.93571 -3.43432,31.59221 -1.88887,0.36109 -3.78731,0.0854 -4.21875,-0.61272 -0.51562,-0.8343 -1.08175,-0.78818 -1.65206,0.1346 -2.51595,4.07089 -3.19487,-2.52572 -3.19487,-31.04214 0,-29.47686 0.1279,-31.17025 2.59072,-34.30122 2.59073,-3.29358 2.59073,-3.29358 -11.19319,-3.29358 -13.7839,0 -13.7839,0 -10.71572,3.06819 3.06819,3.06817 3.06819,3.06817 3.06819,34.22927 0,31.1611 0,31.1611 -3.125,31.75848 -3.125,0.59738 -3.125,0.59738 -3.125,-29.04675 0,-29.64413 0,-29.64413 -3.125,-33.01606 -3.56358,-3.84516 -4.03299,-8.40657 -1.16072,-11.27884 1.68143,-1.68143 6.48469,-1.96429 33.35534,-1.96429 29.09028,0 31.779,0.1878 36.68385,2.56219 10.10216,4.89038 18.76085,16.79736 23.13406,31.81281 2.18437,7.5 2.18437,7.5 2.27342,-5.2481 0.0832,-11.92741 -0.11213,-12.96516 -3.03595,-16.12002 -3.56812,-3.85005 -4.02325,-8.18007 -1.16072,-11.04259 1.59332,-1.59333 5.17787,-1.96429 18.98034,-1.96429 14.59898,0 17.76789,0.36395 22.30885,2.56219 10.10216,4.89038 18.76085,16.79736 23.13406,31.81281 2.18437,7.5 2.18437,7.5 2.27342,-5.42784 0.0766,-11.11836 -0.26087,-13.37269 -2.41095,-16.10607 -3.00159,-3.8159 -3.21729,-8.19524 -0.53572,-10.8768 2.87755,-2.87755 33.19388,-2.87755 36.07143,0 2.80075,2.80075 2.42754,7.57286 -0.84821,10.84576 -2.73098,2.7286 -2.83183,3.73414 -3.47903,34.6875 -0.36659,17.5326 -0.78846,31.17432 -0.9375,30.31495 z m 110.97903,-0.3265 c 0,-0.6798 1.40625,-1.236 3.125,-1.236 1.71875,0 3.125,0.43981 3.125,0.97736 0,0.53755 -1.40625,1.09375 -3.125,1.236 -1.71875,0.14225 -3.125,-0.29756 -3.125,-0.97736 z m 32.5,-8.60226 c 0,-10.13374 0,-10.13374 8.80257,-10.13374 8.80259,0 8.80259,0 8.4375,9.56649 -0.33699,8.83051 -0.58145,9.59924 -3.17757,9.99216 -2.62703,0.39759 -2.8125,-0.0272 -2.8125,-6.44149 0,-6.03382 -0.30338,-6.86716 -2.5,-6.86716 -2.16667,0 -2.5,0.83334 -2.5,6.25 0,3.4375 -0.5165,6.25 -1.14777,6.25 -0.63127,0 -2.03752,0.34143 -3.125,0.75874 -1.70277,0.65341 -1.97723,-0.64792 -1.97723,-9.375 z m -273.75,-19.50874 c 0,-14.09375 0.48663,-25.625 1.08142,-25.625 5.06878,0 14.08595,16.12941 14.22683,25.44812 0.13871,9.17548 -9.02888,25.80188 -14.22683,25.80188 -0.59479,0 -1.08142,-11.53125 -1.08142,-25.625 z m 7.80843,-3.4375 c -1.18728,-3.70113 -1.30321,-3.33976 -1.30321,4.0625 0,7.40226 0.11588,7.76363 1.30321,4.0625 0.90429,-2.81893 0.90429,-5.30607 0,-8.125 z m 54.69157,3.4375 c 0,-14.09375 0.48663,-25.625 1.08142,-25.625 5.06878,0 14.08595,16.12941 14.22683,25.44812 0.13871,9.17548 -9.02888,25.80188 -14.22683,25.80188 -0.59479,0 -1.08142,-11.53125 -1.08142,-25.625 z m 7.80843,-3.4375 c -1.18728,-3.70113 -1.30321,-3.33976 -1.30321,4.0625 0,7.40226 0.11588,7.76363 1.30321,4.0625 0.90429,-2.81893 0.90429,-5.30607 0,-8.125 z"
         id="path3435"
         inkscape:connector-curvature="0" />
    </g>
  </g>
</svg>
