<?xml version="1.0" encoding="UTF-8" standalone="no"?>
<!-- Created with Inkscape (http://www.inkscape.org/) -->

<svg
   xmlns:dc="http://purl.org/dc/elements/1.1/"
   xmlns:cc="http://creativecommons.org/ns#"
   xmlns:rdf="http://www.w3.org/1999/02/22-rdf-syntax-ns#"
   xmlns:svg="http://www.w3.org/2000/svg"
   xmlns="http://www.w3.org/2000/svg"
   xmlns:sodipodi="http://sodipodi.sourceforge.net/DTD/sodipodi-0.dtd"
   xmlns:inkscape="http://www.inkscape.org/namespaces/inkscape"
   width="435"
   height="140"
   viewBox="0 0 435 140"
   id="svg2"
   version="1.1"
   inkscape:version="0.91 r13725"
   sodipodi:docname="Irrlicht.svg">
  <defs
     id="defs4" />
  <sodipodi:namedview
     id="base"
     pagecolor="#000000"
     bordercolor="#666666"
     borderopacity="1.0"
     inkscape:pageopacity="0"
     inkscape:pageshadow="2"
     inkscape:zoom="0.5"
     inkscape:cx="922.48678"
     inkscape:cy="-71.542904"
     inkscape:document-units="px"
     inkscape:current-layer="layer1"
     showgrid="false"
     inkscape:window-width="1920"
     inkscape:window-height="1027"
     inkscape:window-x="-8"
     inkscape:window-y="-8"
     inkscape:window-maximized="1"
     inkscape:snap-global="false"
     units="px" />
  <metadata
     id="metadata7">
    <rdf:RDF>
      <cc:Work
         rdf:about="">
        <dc:format>image/svg+xml</dc:format>
        <dc:type
           rdf:resource="http://purl.org/dc/dcmitype/StillImage" />
        <dc:title></dc:title>
      </cc:Work>
    </rdf:RDF>
  </metadata>
  <g
     inkscape:label="Ebene 1"
     inkscape:groupmode="layer"
     id="layer1"
     transform="translate(0,-912.36216)">
    <g
       id="g5410"
       transform="translate(-56.256435,730.04277)">
      <path
         style="fill:#e6f2e7"
         d="m 227.96484,183.23828 c -5.94239,0.41159 -15.60783,-1.31953 -17.62695,6.28125 -1.58319,4.96305 2.42363,8.93125 5.26953,12.27344 0.83631,3.90738 0.42901,7.95304 0.52539,11.91992 -5.19861,-12.33938 -13.51971,-25.86206 -27.30078,-29.4707 -11.76629,-1.43124 -23.86021,-1.53813 -35.62695,-0.14258 -7.16104,1.73046 -6.92256,11.56187 -2.0957,15.70703 3.76758,3.57155 2.12101,9.31261 2.52539,13.91016 -5.1483,-12.20381 -13.30447,-25.54073 -26.83399,-29.33399 -19.07273,-2.05094 -38.377596,-0.94557 -57.537108,-0.90039 -4.960469,-0.21283 -12.141727,0.56372 -12.837891,6.78906 -1.147801,5.41451 3.835095,9.45996 6.039063,13.34766 -0.03845,30.37145 -0.89747,60.93538 4.326956,90.99254 1.832048,7.91079 0.931462,16.90321 4.917184,24.17348 3.531827,5.30421 11.820239,3.62714 14.794922,-0.47266 2.707401,5.34994 10.027824,2.82956 14.744144,3.79883 8.40248,-0.39149 17.39299,1.34306 25.41992,-1.65821 5.6174,-3.7956 3.51848,-11.94529 -0.90235,-15.81445 -2.60256,-3.82353 0.10239,-1.36435 1.88779,0.82201 5.54899,4.77361 9.31896,11.99615 15.83487,15.53151 12.43632,2.09588 25.26,0.93949 37.84269,1.00285 4.88611,0.47677 10.96875,-1.72181 11.24325,-7.38566 0.78616,-5.11271 -3.77259,-8.45327 -5.6875,-12.58399 6.479,5.86897 11.34434,13.76654 18.54687,18.72656 12.51362,2.61287 25.58801,0.75925 38.29297,1.42807 11.59277,-0.57034 23.59809,1.22178 34.96094,-1.48666 5.74957,-3.78863 3.27662,-12.21566 4.02734,-17.98633 -0.64693,-6.1284 1.81743,-15.69535 -5.34765,-18.79883 -5.76502,-2.44483 -10.61016,2.72425 -15.23438,5.05664 -4.3294,0.86728 -8.78644,0.34973 -13.16797,0.50391 0,-28.76172 0,-57.52344 0,-86.28516 4.57745,-4.10808 9.07389,-12.25866 3.60547,-17.50195 -6.44977,-3.97923 -14.80371,-1.73911 -21.98826,-2.45443 -0.8724,0.004 -1.7448,0.007 -2.61721,0.0111 z m 62.5,0 c -5.92708,0.41916 -15.5612,-1.32472 -17.61132,6.23242 -1.75049,5.63373 3.4578,10.15469 5.86132,14.14844 -0.0384,30.37145 -0.89747,60.93538 4.32696,90.99254 1.83205,7.91079 0.93146,16.90321 4.91718,24.17348 4.25335,5.8557 14.97335,3.6797 15.7424,-3.88588 0.98413,-2.46878 0.89419,-6.87405 1.71464,-8.26842 5.33809,9.49527 15.62439,16.42359 26.79492,15.56055 9.17616,0.16304 19.61594,-0.12584 26.74414,-6.76953 1.12022,6.80103 9.07906,6.49548 14.30416,6.57338 19.5578,0.017 39.24702,1.09262 58.72904,-0.77065 6.7916,-1.40769 6.91722,-10.67765 2.80078,-14.97461 -5.98772,-4.90708 -2.34146,-13.27848 -3.32422,-19.99414 0.41325,-21.28889 -0.84973,-43.00209 0.78711,-64.05664 2.94267,-0.45875 5.47473,-2.28417 7.71289,-4.1543 -0.60071,27.4956 0.57067,55.02781 4.86489,82.21983 1.95643,6.55106 -0.55475,15.97523 6.08238,20.30361 5.20595,3.25029 14.44975,0.87551 14.11133,-6.36524 4.58978,-27.47065 8.71666,-55.17573 7.6914,-83.11718 1.02489,-2.81271 -2.01438,-14.13852 1.41797,-11.88672 4.3678,4.15377 13.43142,4.15671 15.19922,-2.59766 1.27625,-9.38333 1.56661,-19.22142 -0.24805,-28.53906 -2.47675,-5.97186 -10.58205,-3.63113 -15.55433,-4.53617 -35.50811,-0.25826 -71.06569,-0.92521 -106.55113,0.44242 -4.0091,-0.51003 -7.37927,2.94848 -8.26172,5.83203 -9.5298,-8.04666 -23.18009,-7.08937 -34.79492,-5.75195 -2.9209,-0.24767 -5.84552,3.47113 -8.37891,2.0957 -5.95708,-4.65677 -14.48003,-2.11933 -21.46093,-2.92155 -1.20573,0.005 -2.41146,0.0102 -3.6172,0.0153 z m 107.86328,21.33399 c 0.21309,4.80342 1.0499,10.69957 -0.28124,14.86914 -0.58631,-5.22078 -0.36844,-10.54153 0.16796,-15.76172 l 0.11328,0.89258 z m -61.7871,16.39257 c 6.31924,8.42408 11.6552,18.35323 20.48828,24.39649 3.21659,1.14314 3.59266,5.78847 7.38476,6.40625 0.65577,2.60548 1.0664,7.59721 0.0156,8.81054 -5.74827,-3.18397 -11.92992,1.0414 -14.83594,6.03321 -4.91666,6.30099 -9.81827,12.66746 -13.88086,19.5625 -0.8079,-21.96423 -0.60127,-44.1706 0.23047,-66.14063 l 0.53995,0.8417 0.0577,0.0899 z m 61.74023,32.03907 c 0.63975,14.21697 0.0897,28.51957 -0.32031,42.69531 -0.15789,-14.33553 -0.72442,-28.73025 0.26562,-43.03711 l 0.0547,0.3418 z M 216.125,272.95703 c 0.004,8.4349 -0.0323,16.94226 -0.36328,25.29492 -3.78194,-7.88397 -6.88116,-16.07051 -10.30078,-24.11328 4.50429,-5.62118 8.29037,-11.86502 10.61328,-18.70898 0.0169,5.84245 0.0339,11.68489 0.0508,17.52734 z m -63.78711,-14.18945 c -1.09639,8.18708 -6.89276,17.05692 -3.10547,25.28711 1.33037,2.43194 5.56429,1.97311 4.4043,5.7832 -0.19958,1.99043 0.87394,11.13609 -0.87305,7.39063 -3.53477,-7.5803 -6.54335,-15.39021 -9.80273,-23.08985 3.69636,-4.51505 7.47866,-10.70389 9.37695,-15.37109 z m -61.144531,33.32031 c -0.256954,4.19284 0.872898,9.04276 -1.802734,12.65234 0.549786,-4.38465 1.037751,-8.79908 1.787109,-13.10156 l 0.01563,0.44922 z"
         id="path5424"
         inkscape:connector-curvature="0" />
      <path
         style="fill:#d6ead8"
         d="m 227.96484,183.23828 c -5.94239,0.41159 -15.60783,-1.31953 -17.62695,6.28125 -1.58319,4.96305 2.42363,8.93125 5.26953,12.27344 0.83631,3.90738 0.42901,7.95304 0.52539,11.91992 -5.19861,-12.33938 -13.51971,-25.86206 -27.30078,-29.4707 -11.76629,-1.43124 -23.86021,-1.53813 -35.62695,-0.14258 -7.16104,1.73046 -6.92256,11.56187 -2.0957,15.70703 3.76758,3.57155 2.12101,9.31261 2.52539,13.91016 -5.1483,-12.20381 -13.30447,-25.54073 -26.83399,-29.33399 -19.07273,-2.05094 -38.377596,-0.94557 -57.537108,-0.90039 -4.960469,-0.21283 -12.141727,0.56372 -12.837891,6.78906 -1.147801,5.41451 3.835095,9.45996 6.039063,13.34766 -0.03845,30.37145 -0.89747,60.93538 4.326956,90.99254 1.832048,7.91079 0.931462,16.90321 4.917184,24.17348 3.531827,5.30421 11.820239,3.62714 14.794922,-0.47266 2.707401,5.34994 10.027824,2.82956 14.744144,3.79883 8.40248,-0.39149 17.39299,1.34306 25.41992,-1.65821 5.6174,-3.7956 3.51848,-11.94529 -0.90235,-15.81445 -2.60256,-3.82353 0.10239,-1.36435 1.88779,0.82201 5.54899,4.77361 9.31896,11.99615 15.83487,15.53151 12.43632,2.09588 25.26,0.93949 37.84269,1.00285 4.88611,0.47677 10.96875,-1.72181 11.24325,-7.38566 0.78616,-5.11271 -3.77259,-8.45327 -5.6875,-12.58399 6.479,5.86897 11.34434,13.76654 18.54687,18.72656 12.51362,2.61287 25.58801,0.75925 38.29297,1.42807 11.59277,-0.57034 23.59809,1.22178 34.96094,-1.48666 5.74957,-3.78863 3.27662,-12.21566 4.02734,-17.98633 -0.64693,-6.1284 1.81743,-15.69535 -5.34765,-18.79883 -5.76502,-2.44483 -10.61016,2.72425 -15.23438,5.05664 -4.3294,0.86728 -8.78644,0.34973 -13.16797,0.50391 0,-28.76172 0,-57.52344 0,-86.28516 4.57745,-4.10808 9.07389,-12.25866 3.60547,-17.50195 -6.44977,-3.97923 -14.80371,-1.73911 -21.98826,-2.45443 -0.8724,0.004 -1.7448,0.007 -2.61721,0.0111 z m 62.5,0 c -5.92708,0.41916 -15.5612,-1.32472 -17.61132,6.23242 -1.75049,5.63373 3.4578,10.15469 5.86132,14.14844 -0.0384,30.37145 -0.89747,60.93538 4.32696,90.99254 1.83205,7.91079 0.93146,16.90321 4.91718,24.17348 4.25335,5.8557 14.97335,3.6797 15.7424,-3.88588 0.98413,-2.46878 0.89419,-6.87405 1.71464,-8.26842 5.33809,9.49527 15.62439,16.42359 26.79492,15.56055 9.17616,0.16304 19.61594,-0.12584 26.74414,-6.76953 1.12022,6.80103 9.07906,6.49548 14.30416,6.57338 19.5578,0.017 39.24702,1.09262 58.72904,-0.77065 6.7916,-1.40769 6.91722,-10.67765 2.80078,-14.97461 -5.98772,-4.90708 -2.34146,-13.27848 -3.32422,-19.99414 0.41325,-21.28889 -0.84973,-43.00209 0.78711,-64.05664 2.94267,-0.45875 5.47473,-2.28417 7.71289,-4.1543 -0.60071,27.4956 0.57067,55.02781 4.86489,82.21983 1.95643,6.55106 -0.55475,15.97523 6.08238,20.30361 5.20595,3.25029 14.44975,0.87551 14.11133,-6.36524 4.58978,-27.47065 8.71666,-55.17573 7.6914,-83.11718 1.02489,-2.81271 -2.01438,-14.13852 1.41797,-11.88672 4.3678,4.15377 13.43142,4.15671 15.19922,-2.59766 1.27625,-9.38333 1.56661,-19.22142 -0.24805,-28.53906 -2.47675,-5.97186 -10.58205,-3.63113 -15.55433,-4.53617 -35.50811,-0.25826 -71.06569,-0.92521 -106.55113,0.44242 -4.0091,-0.51003 -7.37927,2.94848 -8.26172,5.83203 -9.5298,-8.04666 -23.18009,-7.08937 -34.79492,-5.75195 -2.9209,-0.24767 -5.84552,3.47113 -8.37891,2.0957 -5.95708,-4.65677 -14.48003,-2.11933 -21.46093,-2.92155 -1.20573,0.005 -2.41146,0.0102 -3.6172,0.0153 z m 44.44141,10.2207 c 10.35109,-0.74877 21.73001,5.50245 22.97852,16.57618 0.36059,4.73694 1.81769,10.73814 0.1914,14.90625 -1.47483,1.46984 -3.51656,-0.60434 -5.25,-1.08594 -5.25394,-4.02041 -6.96967,-10.76092 -11.17578,-15.50391 -6.53355,-5.58103 -17.1712,0.5665 -16.45508,8.92578 -1.14581,2.86517 2.04036,10.01385 -3.04492,7.97071 -2.62018,-0.9234 -5.21961,0.28844 -7.30598,0.91152 -3.95828,0.13146 -1.29921,-5.67872 -2.12957,-7.95449 -1.29244,-11.24754 6.2995,-24.2429 18.35157,-24.61133 1.20504,-0.10077 2.46982,-0.14431 3.83984,-0.13477 z m -256.441406,0.01 c 2.21702,1.02534 11.295543,-2.19372 8.40625,1.83789 -2.709448,9.56204 -1.520963,19.76155 -2.453125,29.56836 -3.361424,-0.7748 -8.896091,2.05196 -11.234375,-1.01758 -1.789856,-9.2993 1.461257,-19.46621 -2.169922,-28.39258 -4.996219,-4.24898 5.627806,-0.9524 7.451172,-1.99609 z m 29.697266,0 c 8.91339,-0.41267 18.91971,0.26211 25.00391,7.75586 6.08488,6.20175 10.43113,15.12661 12.08398,22.90625 -2.86461,-1.27982 -4.73946,2.77321 -7.43945,0.12109 -3.19435,-0.95372 -7.62995,0.86908 -8.52735,-3.81054 -2.84534,-5.45934 -6.51453,-13.1436 -13.56836,-13.23438 -3.37138,3.48595 -1.24916,9.67845 -2.25214,14.15989 1.03978,3.12787 -2.93089,2.57508 -4.45489,3.37722 -2.07639,-2.64261 -5.40961,0.1111 -7.16015,0.21289 -1.60473,-9.88206 1.68679,-20.8087 -2.546879,-30.23633 -3.373575,-3.08763 7.631079,-0.31364 8.861329,-1.25195 z m 62.5,0 c 9.23915,-0.56275 19.53385,0.53662 25.63086,8.41406 5.82541,6.3063 10.33909,15.39506 11.55859,23.125 -4.64119,-0.11949 -10.65016,1.2871 -14.33181,-0.68721 -3.28405,-6.34906 -6.33297,-15.60001 -14.21506,-17.34794 -4.4891,1.27258 -2.46253,7.85435 -3.13867,11.3789 -0.44083,2.23473 0.82029,6.04468 -2.4336,5.64453 -3.02536,1.36888 -6.54231,0.9192 -9.76758,1.16797 -0.82094,-9.82351 1.65724,-20.33226 -1.77539,-29.78125 -3.79177,-4.08844 5.67826,-0.93822 7.70899,-1.91406 l 0.76367,0 z m 62.40234,0 c 2.21548,0.8365 11.68398,-1.93359 7.66993,1.87109 -3.81597,7.61722 -1.13863,16.78242 -2.01954,24.9375 1.99709,5.86374 -3.81916,4.34887 -7.55078,4.71875 -7.60507,2.29755 -3.84088,-7.18659 -4.69922,-11.86718 -0.49545,-6.49178 1.25562,-14.11029 -3.0664,-19.66016 3.222,0 6.44401,0 9.66601,0 z m 61.54688,0 c 1.79317,1.04262 11.47791,-2.03949 8.69336,1.36914 -4.18744,9.74831 -0.72422,20.89425 -2.69727,31.11914 -3.66516,1.44323 -7.61693,-2.48849 -10.94726,0.24414 -1.97481,-9.96355 1.04686,-20.60736 -2.1543,-30.31445 -1.37027,-1.97169 -2.78242,-3.15599 1.14453,-2.41797 1.98698,0 3.97396,0 5.96094,0 z m 86.72851,0 c 1.83639,0.92754 11.64401,-1.90762 8.1836,1.45703 -3.82514,7.12466 -1.1561,15.88144 -2.11738,23.57579 -0.44042,3.01927 1.14275,8.84133 -3.78497,7.56874 -2.79005,-0.5932 -9.01726,2.18273 -8.0664,-2.77929 -1.37384,-9.13833 1.39907,-19.0217 -2.00586,-27.77149 -4.11859,-3.808 3.98273,-1.38721 6.35156,-2.05078 l 1,0 0.43945,0 z m 33.75,0 c 1.6486,1.03474 11.15542,-2.03546 8.21289,1.37109 -4.29443,9.96195 -0.52575,21.51297 -2.86328,31.75391 -3.66547,-0.003 -7.76113,-1.42345 -11.16797,-1.24609 -1.25135,-9.89671 1.34734,-20.41051 -2.06836,-29.94141 -4.64515,-4.34094 6.43076,-0.77633 7.88672,-1.9375 z m 41.25,0 c 7.875,0 15.75,0 23.625,0 -0.35738,4.69816 0.69745,12.13116 -0.51172,15.17969 -4.90787,-3.54091 -11.2893,-2.99613 -16.98828,-2.92969 0,6.90495 0,13.8099 0,20.71484 -3.50118,1.03916 -8.40337,-4.33777 -10.76562,0.16993 -2.40997,-0.90822 -1.01008,-6.04315 -1.48211,-8.35742 -0.9791,-4.8689 3.16394,-14.84939 -5.00227,-12.52735 -4.31446,-0.17943 -9.01904,0.2313 -12.5,3.06445 1.46551,-4.63931 -3.25919,-15.46883 3,-15.31445 6.875,0 13.75,0 20.625,0 z m -58.01172,11.10352 c 0.21309,4.80342 1.0499,10.69957 -0.28124,14.86914 -0.58631,-5.22078 -0.36844,-10.54153 0.16796,-15.76172 l 0.11328,0.89258 z m -61.7871,16.39257 c 6.31924,8.42408 11.6552,18.35323 20.48828,24.39649 3.21659,1.14314 3.59266,5.78847 7.38476,6.40625 0.65577,2.60548 1.0664,7.59721 0.0156,8.81054 -5.74827,-3.18397 -11.92992,1.0414 -14.83594,6.03321 -4.91666,6.30099 -9.81827,12.66746 -13.88086,19.5625 -0.8079,-21.96423 -0.60127,-44.1706 0.23047,-66.14063 l 0.53995,0.8417 0.0577,0.0899 z m 61.74023,32.03907 c 0.63975,14.21697 0.0897,28.51957 -0.32031,42.69531 -0.15789,-14.33553 -0.72442,-28.73025 0.26562,-43.03711 l 0.0547,0.3418 z M 216.125,272.95703 c 0.004,8.4349 -0.0323,16.94226 -0.36328,25.29492 -3.78194,-7.88397 -6.88116,-16.07051 -10.30078,-24.11328 4.50429,-5.62118 8.29037,-11.86502 10.61328,-18.70898 0.0169,5.84245 0.0339,11.68489 0.0508,17.52734 z m -63.78711,-14.18945 c -1.09639,8.18708 -6.89276,17.05692 -3.10547,25.28711 1.33037,2.43194 5.56429,1.97311 4.4043,5.7832 -0.19958,1.99043 0.87394,11.13609 -0.87305,7.39063 -3.53477,-7.5803 -6.54335,-15.39021 -9.80273,-23.08985 3.69636,-4.51505 7.47866,-10.70389 9.37695,-15.37109 z m -61.144531,33.32031 c -0.256954,4.19284 0.872898,9.04276 -1.802734,12.65234 0.549786,-4.38465 1.037751,-8.79908 1.787109,-13.10156 l 0.01563,0.44922 z"
         id="path5422"
         inkscape:connector-curvature="0" />
      <path
         style="fill:#c6e2c9"
         d="m 227.96484,183.23828 c -5.94239,0.41159 -15.60783,-1.31953 -17.62695,6.28125 -1.58319,4.96305 2.42363,8.93125 5.26953,12.27344 0.83631,3.90738 0.42901,7.95304 0.52539,11.91992 -5.19861,-12.33938 -13.51971,-25.86206 -27.30078,-29.4707 -11.76629,-1.43124 -23.86021,-1.53813 -35.62695,-0.14258 -7.16104,1.73046 -6.92256,11.56187 -2.0957,15.70703 3.76758,3.57155 2.12101,9.31261 2.52539,13.91016 -5.1483,-12.20381 -13.30447,-25.54073 -26.83399,-29.33399 -19.07273,-2.05094 -38.377596,-0.94557 -57.537108,-0.90039 -4.960469,-0.21283 -12.141727,0.56372 -12.837891,6.78906 -1.147801,5.41451 3.835095,9.45996 6.039063,13.34766 -0.03845,30.37145 -0.89747,60.93538 4.326956,90.99254 1.832048,7.91079 0.931462,16.90321 4.917184,24.17348 3.531827,5.30421 11.820239,3.62714 14.794922,-0.47266 2.707401,5.34994 10.027824,2.82956 14.744144,3.79883 8.40248,-0.39149 17.39299,1.34306 25.41992,-1.65821 5.6174,-3.7956 3.51848,-11.94529 -0.90235,-15.81445 -2.60256,-3.82353 0.10239,-1.36435 1.88779,0.82201 5.54899,4.77361 9.31896,11.99615 15.83487,15.53151 12.43632,2.09588 25.26,0.93949 37.84269,1.00285 4.88611,0.47677 10.96875,-1.72181 11.24325,-7.38566 0.78616,-5.11271 -3.77259,-8.45327 -5.6875,-12.58399 6.479,5.86897 11.34434,13.76654 18.54687,18.72656 12.51362,2.61287 25.58801,0.75925 38.29297,1.42807 11.59277,-0.57034 23.59809,1.22178 34.96094,-1.48666 5.74957,-3.78863 3.27662,-12.21566 4.02734,-17.98633 -0.64693,-6.1284 1.81743,-15.69535 -5.34765,-18.79883 -5.76502,-2.44483 -10.61016,2.72425 -15.23438,5.05664 -4.3294,0.86728 -8.78644,0.34973 -13.16797,0.50391 0,-28.76172 0,-57.52344 0,-86.28516 4.57745,-4.10808 9.07389,-12.25866 3.60547,-17.50195 -6.44977,-3.97923 -14.80371,-1.73911 -21.98826,-2.45443 -0.8724,0.004 -1.7448,0.007 -2.61721,0.0111 z m 62.5,0 c -5.92708,0.41916 -15.5612,-1.32472 -17.61132,6.23242 -1.75049,5.63373 3.4578,10.15469 5.86132,14.14844 -0.0384,30.37145 -0.89747,60.93538 4.32696,90.99254 1.83205,7.91079 0.93146,16.90321 4.91718,24.17348 4.25335,5.8557 14.97335,3.6797 15.7424,-3.88588 0.98413,-2.46878 0.89419,-6.87405 1.71464,-8.26842 5.33809,9.49527 15.62439,16.42359 26.79492,15.56055 9.17616,0.16304 19.61594,-0.12584 26.74414,-6.76953 1.12022,6.80103 9.07906,6.49548 14.30416,6.57338 19.5578,0.017 39.24702,1.09262 58.72904,-0.77065 6.7916,-1.40769 6.91722,-10.67765 2.80078,-14.97461 -5.98772,-4.90708 -2.34146,-13.27848 -3.32422,-19.99414 0.41325,-21.28889 -0.84973,-43.00209 0.78711,-64.05664 2.94267,-0.45875 5.47473,-2.28417 7.71289,-4.1543 -0.60071,27.4956 0.57067,55.02781 4.86489,82.21983 1.95643,6.55106 -0.55475,15.97523 6.08238,20.30361 5.20595,3.25029 14.44975,0.87551 14.11133,-6.36524 4.58978,-27.47065 8.71666,-55.17573 7.6914,-83.11718 1.02489,-2.81271 -2.01438,-14.13852 1.41797,-11.88672 4.3678,4.15377 13.43142,4.15671 15.19922,-2.59766 1.27625,-9.38333 1.56661,-19.22142 -0.24805,-28.53906 -2.47675,-5.97186 -10.58205,-3.63113 -15.55433,-4.53617 -35.50811,-0.25826 -71.06569,-0.92521 -106.55113,0.44242 -4.0091,-0.51003 -7.37927,2.94848 -8.26172,5.83203 -9.5298,-8.04666 -23.18009,-7.08937 -34.79492,-5.75195 -2.9209,-0.24767 -5.84552,3.47113 -8.37891,2.0957 -5.95708,-4.65677 -14.48003,-2.11933 -21.46093,-2.92155 -1.20573,0.005 -2.41146,0.0102 -3.6172,0.0153 z m 44.44141,10.2207 c 10.22431,-0.67971 21.81582,5.27556 22.89648,16.42383 1.19552,7.27401 1.00891,14.70185 0.67188,22.03907 -5.84091,-6.95004 -10.98081,-14.52197 -15.57617,-22.27735 -3.42535,-3.79019 -10.1154,-5.77534 -13.60938,-0.91601 -6.75023,3.8269 -3.67862,11.75849 -4.32422,18.12695 -0.0688,13.38202 0.22858,27.05108 -0.60937,40.27148 -4.55069,-0.72514 -14.21614,3.95979 -11.64063,-4.32226 0.52966,-18.35584 -1.12946,-36.89908 1.1543,-55.14258 2.89406,-9.13832 11.73245,-15.19021 21.03711,-14.20313 z m -256.738281,0.01 c 1.875321,0.95685 10.996761,-1.79784 9.058593,1.09961 -3.713138,7.85852 -1.518727,17.13411 -2.263124,25.5293 -0.429359,15.44383 0.801125,31.1136 -1.357969,46.35937 -2.956072,-0.0219 -6.801611,0.13395 -9.271485,0.65625 -2.83472,-23.15854 -0.514702,-46.76562 -2.984375,-70.00586 0.0476,-2.02845 -3.462928,-4.69761 0.845606,-3.61931 1.990802,-0.0266 3.981846,-0.0116 5.972754,-0.0194 z m 29.994141,0 c 9.18015,-0.51507 19.43812,0.45973 25.52344,8.30078 8.27593,9.42709 13.20478,22.0716 13.66797,34.54883 -2.33301,10.87045 -5.17441,23.39445 -14.36719,30.61328 -3.95036,0.33436 -8.56046,-1.23958 -12.8418,-0.49609 -2.90873,0.10966 -5.28804,1.49275 -7.8457,-0.30664 -2.52635,0.66318 -4.03849,-2.67386 -6.47266,-0.58985 -1.8161,1.14972 -8.226918,3.36481 -6.173826,-0.1582 3.053246,-16.15343 1.269066,-32.83392 1.787676,-49.18943 -0.79837,-7.43188 1.59276,-16.22027 -3.041582,-22.72268 3.254552,0 6.509112,0 9.763672,0 z m 62.55273,0 c 9.16217,-0.52759 19.39126,0.51746 25.47071,8.30078 8.24795,9.3587 13.09222,21.90203 13.66601,34.28711 -2.1278,10.7107 -5.14901,22.56462 -13.36328,30.28516 -4.36718,-0.16443 -8.52635,1.88295 -12.83789,0.44531 -5.97295,-0.26469 -12.18911,-0.43066 -17.87109,-1.69922 -1.83637,0.82224 -1.28269,3.63031 -3.79883,1.97266 2.20771,-19.06927 1.44178,-38.45603 1.85547,-57.65235 -0.32399,-5.30987 0.70487,-11.51696 -2.98047,-15.93945 3.28646,0 6.57292,0 9.85937,0 z m 62.34961,0 c 9.04371,-0.62329 8.79592,-0.57434 5.65039,6.61523 -0.0733,22.04599 0.14581,44.48645 -0.10937,66.28711 -3.14414,-1.72902 -4.50339,2.35472 -7.57422,1.11719 -7.20968,1.34702 -3.84276,-6.94553 -4.56641,-11.4668 -0.48747,-19.37635 0.99102,-38.89147 -0.94726,-58.1914 -0.32626,-1.60386 -1.06241,-3.11187 -2.11914,-4.36133 3.222,0 6.44401,0 9.66601,0 z m 61.54688,0 c 1.8082,0.95816 10.87631,-1.80205 8.86523,1.09961 -3.71314,7.85852 -1.51873,17.13411 -2.26312,25.5293 -0.41043,15.53089 0.76159,31.2537 -1.35406,46.60546 -3.12551,-0.0504 -6.96836,-0.44892 -9.78516,0.22461 -1.84488,-23.27505 -0.7993,-46.76422 -1.10938,-70.15039 -7.58184,-5.65457 1.66857,-2.47887 5.64649,-3.30859 z m 86.72851,0 c 1.83639,0.92754 11.64401,-1.90762 8.1836,1.45703 -3.81732,7.17791 -1.20971,15.98479 -2.0586,23.73633 -0.17756,6.19644 -1.72611,13.76387 7,11.05664 4.76629,-1.40038 15.86274,3.52941 14.5,-4 -0.83042,-10.00536 1.67403,-20.69582 -1.77148,-30.32813 -3.8007,-4.09689 5.66761,-0.94767 7.70508,-1.92187 1.66995,0.97471 10.70572,-1.81907 8.59179,1.08008 -3.70228,8.09391 -1.51223,17.57985 -2.26002,26.20115 -0.0287,15.61457 -0.01,31.22918 -0.0154,46.84377 -4.02558,-0.39236 -12.66776,1.64604 -12.15234,-4.43555 -0.154,-7.06188 -0.0607,-14.12643 -0.0996,-21.18945 -7.16601,0 -14.33203,0 -21.49805,0 -0.27989,8.1922 0.53748,17.33849 -0.4375,25.08398 -3.523,-1.59003 -7.51389,0.9488 -10.64843,1.26758 -2.92085,-7.67948 0.53349,-16.82738 -2.19336,-24.68359 -0.72841,-2.57864 -5.92312,-0.34966 -3.63545,-3.5615 5.57408,-13.25114 5.32555,-28.02922 4.00263,-42.0596 0.26266,-2.13607 -4.68838,-5.30641 -0.65429,-4.54687 2.48047,0 4.96094,0 7.4414,0 z m 75,0 c 7.875,0 15.75,0 23.625,0 -0.35872,4.69408 0.70008,12.14392 -0.51367,15.17578 -4.84585,-3.4848 -11.12964,-3.02146 -16.76172,-2.92578 -0.583,20.3688 0.13689,41.51168 -1.75195,61.38477 -2.94592,-2.64497 -6.53051,1.33972 -9.38672,0.22851 -2.34909,-16.69995 -0.83539,-34.05737 -1.33153,-51.05664 0.5309,-6.53746 1.09088,-13.1069 -7.46144,-10.55664 -3.54142,-0.0147 -7.2319,0.80813 -10.04297,3.06445 1.46551,-4.63931 -3.25919,-15.46883 3,-15.31445 6.875,0 13.75,0 20.625,0 z m -58.01172,11.10352 c 0.21309,4.80342 1.0499,10.69957 -0.28124,14.86914 -0.58631,-5.22078 -0.36844,-10.54153 0.16796,-15.76172 l 0.11328,0.89258 z m -282.76757,2.74218 c -2.75198,4.49 -0.95021,10.81465 -1.74162,15.93686 0.29759,12.31167 -1.132,24.90169 1.0463,37.05533 2.48029,4.50201 7.61952,-0.29105 9.40625,-3.07226 6.44647,-9.12845 11.76098,-21.38077 6.79688,-32.39649 -2.9132,-6.81654 -6.27933,-15.56747 -14.01758,-17.85742 -0.5243,0.0205 -1.13033,-0.25658 -1.49023,0.33398 z m 62.5,0 c -2.75198,4.49 -0.95021,10.81465 -1.74162,15.93686 0.29759,12.31167 -1.132,24.90169 1.0463,37.05533 2.48029,4.50201 7.61952,-0.29105 9.40625,-3.07226 6.44647,-9.12845 11.76098,-21.38077 6.79688,-32.39649 -2.9132,-6.81654 -6.27933,-15.56747 -14.01758,-17.85742 -0.5243,0.0205 -1.13033,-0.25658 -1.49023,0.33398 z m 158.48047,13.65039 c 6.31924,8.42408 11.6552,18.35323 20.48828,24.39649 3.21659,1.14314 3.59266,5.78847 7.38476,6.40625 0.65577,2.60548 1.0664,7.59721 0.0156,8.81054 -5.74827,-3.18397 -11.92992,1.0414 -14.83594,6.03321 -4.91666,6.30099 -9.81827,12.66746 -13.88086,19.5625 -0.8079,-21.96423 -0.60127,-44.1706 0.23047,-66.14063 l 0.53995,0.8417 0.0577,0.0899 z m 61.74023,32.03907 c 0.63975,14.21697 0.0897,28.51957 -0.32031,42.69531 -0.15789,-14.33553 -0.72442,-28.73025 0.26562,-43.03711 l 0.0547,0.3418 z M 216.125,272.95703 c 0.004,8.4349 -0.0323,16.94226 -0.36328,25.29492 -3.78194,-7.88397 -6.88116,-16.07051 -10.30078,-24.11328 4.50429,-5.62118 8.29037,-11.86502 10.61328,-18.70898 0.0169,5.84245 0.0339,11.68489 0.0508,17.52734 z m -63.78711,-14.18945 c -1.09639,8.18708 -6.89276,17.05692 -3.10547,25.28711 1.33037,2.43194 5.56429,1.97311 4.4043,5.7832 -0.19958,1.99043 0.87394,11.13609 -0.87305,7.39063 -3.53477,-7.5803 -6.54335,-15.39021 -9.80273,-23.08985 3.69636,-4.51505 7.47866,-10.70389 9.37695,-15.37109 z m -61.144531,33.32031 c -0.256954,4.19284 0.872898,9.04276 -1.802734,12.65234 0.549786,-4.38465 1.037751,-8.79908 1.787109,-13.10156 l 0.01563,0.44922 z"
         id="path5420"
         inkscape:connector-curvature="0" />
      <path
         style="fill:#bedec1"
         d="m 227.96484,183.23828 c -5.94239,0.41159 -15.60783,-1.31953 -17.62695,6.28125 -1.58319,4.96305 2.42363,8.93125 5.26953,12.27344 0.83631,3.90738 0.42901,7.95304 0.52539,11.91992 -5.19861,-12.33938 -13.51971,-25.86206 -27.30078,-29.4707 -11.76629,-1.43124 -23.86021,-1.53813 -35.62695,-0.14258 -7.16104,1.73046 -6.92256,11.56187 -2.0957,15.70703 3.76758,3.57155 2.12101,9.31261 2.52539,13.91016 -5.1483,-12.20381 -13.30447,-25.54073 -26.83399,-29.33399 -19.07273,-2.05094 -38.377596,-0.94557 -57.537108,-0.90039 -4.960469,-0.21283 -12.141727,0.56372 -12.837891,6.78906 -1.147801,5.41451 3.835095,9.45996 6.039063,13.34766 -0.03845,30.37145 -0.89747,60.93538 4.326956,90.99254 1.832048,7.91079 0.931462,16.90321 4.917184,24.17348 3.531827,5.30421 11.820239,3.62714 14.794922,-0.47266 2.707401,5.34994 10.027824,2.82956 14.744144,3.79883 8.40248,-0.39149 17.39299,1.34306 25.41992,-1.65821 5.6174,-3.7956 3.51848,-11.94529 -0.90235,-15.81445 -2.60256,-3.82353 0.10239,-1.36435 1.88779,0.82201 5.54899,4.77361 9.31896,11.99615 15.83487,15.53151 12.43632,2.09588 25.26,0.93949 37.84269,1.00285 4.88611,0.47677 10.96875,-1.72181 11.24325,-7.38566 0.78616,-5.11271 -3.77259,-8.45327 -5.6875,-12.58399 6.479,5.86897 11.34434,13.76654 18.54687,18.72656 12.51362,2.61287 25.58801,0.75925 38.29297,1.42807 11.59277,-0.57034 23.59809,1.22178 34.96094,-1.48666 5.74957,-3.78863 3.27662,-12.21566 4.02734,-17.98633 -0.64693,-6.1284 1.81743,-15.69535 -5.34765,-18.79883 -5.76502,-2.44483 -10.61016,2.72425 -15.23438,5.05664 -4.3294,0.86728 -8.78644,0.34973 -13.16797,0.50391 0,-28.76172 0,-57.52344 0,-86.28516 4.57745,-4.10808 9.07389,-12.25866 3.60547,-17.50195 -6.44977,-3.97923 -14.80371,-1.73911 -21.98826,-2.45443 -0.8724,0.004 -1.7448,0.007 -2.61721,0.0111 z m 62.5,0 c -5.92708,0.41916 -15.5612,-1.32472 -17.61132,6.23242 -1.75049,5.63373 3.4578,10.15469 5.86132,14.14844 -0.0384,30.37145 -0.89747,60.93538 4.32696,90.99254 1.83205,7.91079 0.93146,16.90321 4.91718,24.17348 4.25335,5.8557 14.97335,3.6797 15.7424,-3.88588 0.98413,-2.46878 0.89419,-6.87405 1.71464,-8.26842 5.33809,9.49527 15.62439,16.42359 26.79492,15.56055 9.17616,0.16304 19.61594,-0.12584 26.74414,-6.76953 1.12022,6.80103 9.07906,6.49548 14.30416,6.57338 19.5578,0.017 39.24702,1.09262 58.72904,-0.77065 6.7916,-1.40769 6.91722,-10.67765 2.80078,-14.97461 -5.98772,-4.90708 -2.34146,-13.27848 -3.32422,-19.99414 0.41325,-21.28889 -0.84973,-43.00209 0.78711,-64.05664 2.94267,-0.45875 5.47473,-2.28417 7.71289,-4.1543 -0.60071,27.4956 0.57067,55.02781 4.86489,82.21983 1.95643,6.55106 -0.55475,15.97523 6.08238,20.30361 5.20595,3.25029 14.44975,0.87551 14.11133,-6.36524 4.58978,-27.47065 8.71666,-55.17573 7.6914,-83.11718 1.02489,-2.81271 -2.01438,-14.13852 1.41797,-11.88672 4.3678,4.15377 13.43142,4.15671 15.19922,-2.59766 1.27625,-9.38333 1.56661,-19.22142 -0.24805,-28.53906 -2.47675,-5.97186 -10.58205,-3.63113 -15.55433,-4.53617 -35.50811,-0.25826 -71.06569,-0.92521 -106.55113,0.44242 -4.0091,-0.51003 -7.37927,2.94848 -8.26172,5.83203 -9.5298,-8.04666 -23.18009,-7.08937 -34.79492,-5.75195 -2.9209,-0.24767 -5.84552,3.47113 -8.37891,2.0957 -5.95708,-4.65677 -14.48003,-2.11933 -21.46093,-2.92155 -1.20573,0.005 -2.41146,0.0102 -3.6172,0.0153 z m 44.44141,10.2207 c 10.22431,-0.67971 21.81582,5.27556 22.89648,16.42383 1.19552,7.27401 1.00891,14.70185 0.67188,22.03907 -5.84091,-6.95004 -10.98081,-14.52197 -15.57617,-22.27735 -3.42535,-3.79019 -10.1154,-5.77534 -13.60938,-0.91601 -6.75023,3.8269 -3.67862,11.75849 -4.32422,18.12695 0,21.85156 0,43.70312 0,65.55469 1.96412,1.88812 3.83831,4.04022 5.95899,5.6914 -2.74577,-0.6256 -5.01146,0.51804 -7.60352,-0.50586 -3.46539,-1.03662 -6.9414,2.81174 -9.79101,-0.0547 -1.01845,-28.52167 -1.2703,-57.81818 -0.16602,-86.61329 0.89999,-10.6216 11.36863,-18.68674 21.54297,-17.46875 z m -256.738281,0.01 c 1.875133,1.0672 11.795016,-2.11731 8.826172,1.47461 -3.454549,8.56616 -1.298472,18.31295 -2.004745,27.31445 0.206627,25.03256 -0.526274,50.2682 -5.973771,74.70117 -2.390126,-1.61207 -1.489416,-6.63978 -2.519531,-9.30273 -4.871546,-29.86551 -2.477834,-60.43008 -5.144532,-90.55469 0.03774,-2.02623 -3.464757,-4.69173 0.843653,-3.61345 1.990802,-0.0266 3.981846,-0.0116 5.972754,-0.0194 z m 29.994141,0 c 8.81669,-0.43603 18.8572,0.24011 24.89453,7.72461 8.97341,9.09664 13.19063,21.87729 14.38477,34.2832 -1.62148,12.72363 -7.16968,25.21632 -15.90821,34.60156 -1.46837,6.07784 3.68879,11.68828 5.08553,17.34438 1.21542,3.35075 3.06113,7.10169 3.62346,10.40172 -6.48151,-0.0533 -9.9473,-7.33838 -14.40964,-11.12703 -3.46863,-2.56339 -10.01911,-13.47456 -11.39143,-10.36048 -0.24799,7.21852 -0.49662,14.43701 -0.74581,21.65548 -1.88103,-1.05478 -5.39865,0.82846 -6.24804,-0.49414 -0.74242,-3.1797 -3.55514,-0.77821 -4.67774,-0.28516 -2.57359,-1.12034 -0.57953,-5.9234 -1.30469,-8.25781 -0.44782,-3.75633 1.48708,-11.61401 -4.236324,-11.98633 -2.285601,-0.80714 1.010739,-5.50607 1.11914,-7.69531 5.135614,-14.86105 2.287064,-30.97194 3.109984,-46.35547 -0.63809,-9.13774 1.27619,-18.87621 -1.846312,-27.6582 -3.439198,-3.70473 4.829922,-0.96815 6.787112,-1.79102 l 1,0 0.76367,0 z m 62.5,0 c 8.81675,-0.43593 18.85727,0.23943 24.89453,7.72461 8.97042,9.09768 13.19187,21.87509 14.38477,34.28125 -1.60519,12.77101 -7.18529,25.14145 -15.89844,34.62305 -1.37446,6.25934 3.82101,12.00796 5.275,17.8346 0.9091,3.28646 3.91256,7.73767 3.38711,10.4779 -4.9139,0.98786 -7.54036,-5.49427 -10.91504,-7.97558 -4.94338,-5.3763 -9.85077,-10.78585 -14.77832,-16.17677 -0.26851,7.74615 -0.53807,15.49227 -0.81055,23.23828 -3.4883,-0.68252 -10.71668,-1.62295 -11.91211,0.68164 -1.25301,-6.54458 1.20853,-13.95133 -1.7539,-20.06835 -1.58882,-1.83006 -5.37645,-0.29534 -3.21094,-3.88282 6.52861,-15.6353 4.12641,-32.84726 4.63582,-49.30859 -0.69996,-9.79514 1.39136,-20.21963 -1.84871,-29.6582 -3.4392,-3.70473 4.82992,-0.96815 6.78711,-1.79102 l 1,0 0.76367,0 z m 62.40234,0 c 9.04371,-0.62329 8.79592,-0.57434 5.65039,6.61523 0,32.64779 0,65.29558 0,97.94336 -4.07321,-0.34042 -8.16378,-0.44598 -12.25,-0.3457 -0.36761,-32.55809 0.76658,-65.16596 -0.67773,-97.69531 -0.2327,-2.32088 -0.79926,-4.72737 -2.38867,-6.51758 3.222,0 6.44401,0 9.66601,0 z m 61.54688,0 c 1.80954,0.95737 10.86941,-1.80008 8.86719,1.09766 -3.77202,8.03489 -1.49177,17.51497 -2.25596,26.08984 0.27218,26.0638 -0.49251,52.25213 -6.01748,77.77344 -3.75067,-14.32585 -4.76889,-30.16126 -5.82492,-45.1344 -0.7721,-18.7703 -0.31112,-37.68772 -0.41532,-56.51795 -7.58184,-5.65457 1.66857,-2.47887 5.64649,-3.30859 z m 86.72851,0 c 1.83639,0.92754 11.64401,-1.90762 8.1836,1.45703 -3.81732,7.17791 -1.20971,15.98479 -2.0586,23.73633 -0.17756,6.19644 -1.72611,13.76387 7,11.05664 4.76629,-1.40038 15.86274,3.52941 14.5,-4 -0.83042,-10.00536 1.67403,-20.69582 -1.77148,-30.32813 -3.8007,-4.09689 5.66761,-0.94767 7.70508,-1.92187 1.66809,0.99144 10.80715,-1.8637 8.56445,1.12695 -3.44822,8.29325 -1.47622,17.79252 -2.2039,26.54491 -0.41098,25.53432 0.69048,51.13145 -0.73946,76.62697 -3.25643,-0.21108 -5.87439,2.11724 -9.41601,1.20117 -4.90656,-1.13967 -0.78159,-11.31086 -2.13868,-16 0,-13.66667 0,-27.33333 0,-41 -7.16666,0 -14.33333,0 -21.5,0 -0.33046,18.73259 0.67935,38.07029 -0.59179,56.4668 -3.22323,-2.60065 -7.87227,1.14508 -11.65821,0.50781 0,-18.99154 0,-37.98307 0,-56.97461 -7.58826,2.21568 -4.17449,-3.41555 -2.69726,-7.70898 3.67603,-11.64738 3.06903,-24.24446 2.03515,-36.24415 0.26266,-2.13607 -4.68838,-5.30641 -0.65429,-4.54687 2.48047,0 4.96094,0 7.4414,0 z m 75,0 c 7.875,0 15.75,0 23.625,0 -0.35738,4.69816 0.69745,12.13116 -0.51172,15.17969 -4.90787,-3.54091 -11.2893,-2.99613 -16.98828,-2.92969 0.16432,28.74352 0.66947,57.58592 -4.76817,85.873 0.0146,2.36725 -1.48325,9.08164 -2.54433,3.21489 -5.44679,-29.43348 -5.1612,-59.25968 -4.9375,-89.08789 -5.81653,0.10497 -12.60465,-0.9296 -17.5,3.06445 1.46551,-4.63931 -3.25919,-15.46883 3,-15.31445 6.875,0 13.75,0 20.625,0 z m -58.01172,11.10352 c 0.21309,4.80342 1.0499,10.69957 -0.28124,14.86914 -0.58631,-5.22078 -0.36844,-10.54153 0.16796,-15.76172 l 0.11328,0.89258 z m -282.76757,2.74218 c -2.75198,4.49 -0.95021,10.81465 -1.74162,15.93686 0.29759,12.31167 -1.132,24.90169 1.0463,37.05533 2.48029,4.50201 7.61952,-0.29105 9.40625,-3.07226 6.44647,-9.12845 11.76098,-21.38077 6.79688,-32.39649 -2.9132,-6.81654 -6.27933,-15.56747 -14.01758,-17.85742 -0.5243,0.0205 -1.13033,-0.25658 -1.49023,0.33398 z m 62.5,0 c -2.75198,4.49 -0.95021,10.81465 -1.74162,15.93686 0.29759,12.31167 -1.132,24.90169 1.0463,37.05533 2.48029,4.50201 7.61952,-0.29105 9.40625,-3.07226 6.44647,-9.12845 11.76098,-21.38077 6.79688,-32.39649 -2.9132,-6.81654 -6.27933,-15.56747 -14.01758,-17.85742 -0.5243,0.0205 -1.13033,-0.25658 -1.49023,0.33398 z m 158.48047,13.65039 c 6.31924,8.42408 11.6552,18.35323 20.48828,24.39649 3.21659,1.14314 3.59266,5.78847 7.38476,6.40625 0.65577,2.60548 1.0664,7.59721 0.0156,8.81054 -5.74827,-3.18397 -11.92992,1.0414 -14.83594,6.03321 -4.91666,6.30099 -9.81827,12.66746 -13.88086,19.5625 -0.8079,-21.96423 -0.60127,-44.1706 0.23047,-66.14063 l 0.53995,0.8417 0.0577,0.0899 z m 61.74023,32.03907 c 0.63975,14.21697 0.0897,28.51957 -0.32031,42.69531 -0.15789,-14.33553 -0.72442,-28.73025 0.26562,-43.03711 l 0.0547,0.3418 z M 216.125,272.95703 c 0.004,8.4349 -0.0323,16.94226 -0.36328,25.29492 -3.78194,-7.88397 -6.88116,-16.07051 -10.30078,-24.11328 4.50429,-5.62118 8.29037,-11.86502 10.61328,-18.70898 0.0169,5.84245 0.0339,11.68489 0.0508,17.52734 z m -63.78711,-14.18945 c -1.09639,8.18708 -6.89276,17.05692 -3.10547,25.28711 1.33037,2.43194 5.56429,1.97311 4.4043,5.7832 -0.19958,1.99043 0.87394,11.13609 -0.87305,7.39063 -3.53477,-7.5803 -6.54335,-15.39021 -9.80273,-23.08985 3.69636,-4.51505 7.47866,-10.70389 9.37695,-15.37109 z m 206.10742,23.97656 c -0.44465,5.20396 1.68759,12.55277 -2.49804,16.21094 -4.84915,-0.83492 -10.84251,-1.7477 -15.22266,0.32812 -1.85827,-0.54111 -2.30337,-0.68571 -0.1875,-1.55664 5.10501,-3.63744 6.35086,-10.47774 10.81371,-14.84183 3.24984,-3.91676 8.46706,-13.38914 7.02624,-2.89633 0.0228,0.91858 0.0455,1.83716 0.0683,2.75574 z m -267.251951,9.34375 c -0.256954,4.19284 0.872898,9.04276 -1.802734,12.65234 0.549786,-4.38465 1.037751,-8.79908 1.787109,-13.10156 l 0.01563,0.44922 z m 181.269531,4.35742 c 1.56648,3.00649 -5.08138,2.34699 -1.69922,1.08985 0.49085,-0.0657 1.72583,-2.02194 1.69922,-1.08985 z"
         id="path5418"
         inkscape:connector-curvature="0" />
      <path
         style="fill:#232722"
         d="m 73.977676,318.30416 c -2.235158,-2.23515 -2.350457,-2.82621 -6.414192,-32.88109 -2.58409,-19.11161 -3.099197,-27.96295 -3.099197,-53.25497 l 0,-30.33369 -3.125,-3.37193 c -3.563569,-3.84516 -4.032988,-8.40657 -1.160714,-11.27884 1.683238,-1.68324 6.467428,-1.96036 33.4375,-1.93684 27.785547,0.0242 32.059057,0.29505 36.473217,2.31132 9.7061,4.43347 19.78623,18.46684 23.69801,32.99192 l 1.76246,6.54431 0.0823,-12.62997 c 0.0768,-11.79684 -0.12387,-12.8524 -3.04273,-16.0019 -3.56357,-3.84516 -4.03299,-8.40657 -1.16072,-11.27884 1.59722,-1.59723 5.15941,-1.95916 19.0625,-1.93684 13.85968,0.0223 18.04525,0.46004 22.09822,2.31132 9.7061,4.43347 19.78622,18.46684 23.69801,32.99192 l 1.76246,6.54431 0.0823,-13.21208 c 0.0784,-12.58416 -0.0662,-13.34122 -3.04272,-15.92923 -3.55359,-3.08981 -4.06795,-7.86217 -1.16072,-10.7694 1.58964,-1.58964 5.14882,-1.96429 18.66072,-1.96429 13.5119,0 17.07107,0.37465 18.66071,1.96429 2.85739,2.85738 2.40977,7.31446 -1.16071,11.55775 l -3.125,3.71385 0,44.50705 0,44.50706 8.25705,0 c 6.98383,0 8.82972,-0.48187 11.97091,-3.125 4.24329,-3.57049 8.70036,-4.0181 11.55775,-1.16071 1.54449,1.54448 1.96429,4.86471 1.96429,15.53571 0,10.74115 -0.4147,13.98612 -1.98852,15.55995 -1.72782,1.72782 -6.57803,1.97682 -36.9967,1.8994 -34.51583,-0.0879 -35.04603,-0.12831 -37.69898,-2.87621 -1.47994,-1.5329 -6.48768,-6.858 -11.1283,-11.83355 -8.02588,-8.60511 -8.4375,-8.87127 -8.4375,-5.45555 0,2.09778 1.2994,4.99297 3.125,6.96283 3.57346,3.85583 4.03155,8.40801 1.13735,11.3022 -1.67075,1.67075 -5.38089,1.96982 -23.27038,1.87574 -20.24633,-0.1065 -21.41261,-0.2465 -23.94985,-2.87535 -1.46692,-1.51989 -6.464,-6.83432 -11.10462,-11.80987 -8.02587,-8.60511 -8.4375,-8.87127 -8.4375,-5.45555 0,2.09778 1.29939,4.99297 3.125,6.96283 3.56357,3.84515 4.03298,8.40657 1.16071,11.27884 -1.58914,1.58915 -5.11036,1.96064 -18.4375,1.94515 -9.060267,-0.01 -17.200198,-0.48035 -18.088736,-1.04405 -0.888537,-0.56369 -2.105813,-2.66445 -2.705058,-4.66835 -0.880339,-2.9439 -1.110167,-3.12059 -1.196978,-0.92025 -0.229982,5.82916 -7.745811,8.83485 -11.844052,4.7366 z m 9.220603,-32.54824 c 3.325267,-24.20708 3.765492,-30.93548 3.765734,-57.5555 2.6e-4,-28.60283 0.132724,-30.31231 2.590999,-33.4375 l 2.590725,-3.29357 -13.783906,0 -13.783908,0 3.068182,3.06818 3.068182,3.06818 0,30.53734 c 0,25.62211 0.509019,34.33305 3.162429,54.11932 3.583388,26.72105 4.44404,32.01718 5.096885,31.36433 0.25257,-0.25256 2.153675,-12.79442 4.224678,-27.87078 z m 35.010061,24.72273 c -2.3028,-3.11471 -2.54245,-4.97974 -2.22492,-17.31514 l 0.35587,-13.82444 16.08266,17.37831 c 8.84546,9.55807 16.29709,17.16388 16.55916,16.90181 0.26208,-0.26208 -3.37262,-9.71238 -8.07711,-21.00067 l -8.55361,-20.52417 3.30343,-3.81725 c 1.81688,-2.09949 4.48752,-5.75574 5.93476,-8.125 3.34157,-5.47045 7.87571,-20.18436 7.87571,-25.55775 0,-5.37339 -4.53414,-20.0873 -7.87571,-25.55775 -4.27449,-6.99774 -9.69041,-12.55017 -14.76865,-15.14089 -3.86331,-1.97092 -7.36338,-2.42636 -18.64657,-2.42636 l -13.890523,0 2.590725,3.29357 c 2.462081,3.13003 2.590725,4.82606 2.590725,34.15606 0,29.34069 -0.148742,31.29981 -3.016559,39.73154 -1.659106,4.87798 -2.690356,9.19525 -2.291666,9.59394 0.39869,0.39869 1.756141,0.72489 3.016559,0.72489 2.087795,0 2.291666,1.26383 2.291666,14.20643 0,12.47951 -0.314925,14.60678 -2.590725,17.49999 l -2.590725,3.29358 13.253143,0 13.25315,0 -2.58079,-3.4907 z m -2.49405,-75.8843 c 0,-14.09375 0.43734,-25.625 0.97186,-25.625 4.36077,0 11.61956,11.1496 13.91767,21.37772 0.96496,4.29476 0.70275,6.82331 -1.3588,13.10325 -2.6785,8.15925 -8.70966,16.76903 -11.74674,16.76903 -1.48731,0 -1.78399,-4.26152 -1.78399,-25.625 z m 7.71455,-4.02739 c -1.07929,-2.95771 -1.26266,-2.26788 -1.23668,4.65239 0.0289,7.68392 0.0976,7.87244 1.26719,3.47261 0.82409,-3.10024 0.81392,-5.81093 -0.0305,-8.125 z m 57.2795,79.91169 c -2.3028,-3.11471 -2.54245,-4.97974 -2.22492,-17.31514 l 0.35587,-13.82444 16.08266,17.37831 c 8.84546,9.55807 16.30916,17.15181 16.586,16.87497 0.27684,-0.27683 -3.35793,-9.72713 -8.07725,-21.00066 l -8.58058,-20.49734 3.30357,-3.81725 c 1.81695,-2.09949 4.48766,-5.75574 5.9349,-8.125 3.34156,-5.47045 7.8757,-20.18436 7.8757,-25.55775 0,-5.37339 -4.53414,-20.0873 -7.8757,-25.55775 -4.2745,-6.99774 -9.69042,-12.55017 -14.76865,-15.14089 -3.86332,-1.97092 -7.36339,-2.42636 -18.64658,-2.42636 l -13.89052,0 2.59072,3.29357 c 2.46208,3.13003 2.59073,4.82606 2.59073,34.15606 0,29.34069 -0.14875,31.29981 -3.01656,39.73154 -1.65911,4.87798 -2.69036,9.19525 -2.29167,9.59394 0.39869,0.39869 1.75614,0.72489 3.01656,0.72489 2.0878,0 2.29167,1.26383 2.29167,14.20643 0,12.47951 -0.31493,14.60678 -2.59073,17.49999 l -2.59072,3.29358 13.25314,0 13.25314,0 -2.58078,-3.4907 z m -2.49405,-75.8843 c 0,-14.09375 0.43734,-25.625 0.97186,-25.625 4.36077,0 11.61956,11.1496 13.91766,21.37772 0.96498,4.29476 0.70276,6.82331 -1.3588,13.10325 -2.67849,8.15925 -8.70965,16.76903 -11.74673,16.76903 -1.48731,0 -1.78399,-4.26152 -1.78399,-25.625 z m 7.71455,-4.02739 c -1.07929,-2.95771 -1.26267,-2.26788 -1.23668,4.65239 0.0289,7.68392 0.0976,7.87244 1.26719,3.47261 0.82409,-3.10024 0.81391,-5.81093 -0.0305,-8.125 z m 88.53545,72.77739 c 0,-5.84375 -0.30478,-10.625 -0.67727,-10.625 -0.3725,0 -1.88481,1.125 -3.3607,2.5 -2.34036,2.18037 -4.41125,2.5 -16.19773,2.5 l -13.5143,0 0,-49.81747 0,-49.81747 3.06531,-3.30753 3.06531,-3.30753 -13.78104,0 -13.78103,0 2.59072,3.29357 c 2.53126,3.21798 2.59073,4.54824 2.59073,57.95643 0,53.40819 -0.0595,54.73845 -2.59073,57.95642 l -2.59072,3.29358 27.59072,0 27.59073,0 0,-10.625 z M 93.214287,294.41182 c 0,-6.78038 -0.432934,-9.19247 -1.649909,-9.19247 -1.131495,0 -2.113395,3.48116 -3.125,11.07917 -0.8113,6.09354 -1.475091,11.74753 -1.475091,12.56441 0,0.81687 1.40625,-0.0321 3.125,-1.88671 2.744361,-2.96121 3.125,-4.49161 3.125,-12.5644 z m 62.500003,0.19299 c 0,-8.11559 -0.2984,-9.3117 -2.4971,-10.00954 -4.12375,-1.30883 -4.33848,-6.21316 -0.78975,-18.03789 1.91215,-6.37147 3.2496,-13.77754 3.19779,-17.70757 l -0.089,-6.75546 -2.18018,7.5 c -2.45826,8.45662 -5.29501,14.39014 -9.68312,20.25379 l -2.99627,4.0038 6.48432,15.6243 c 3.56638,8.59337 6.94986,15.33659 7.51884,14.98493 0.56898,-0.35165 1.03452,-4.78701 1.03452,-9.85636 z m 62.41095,-21.64673 -0.089,-30.86373 -2.18019,7.5 c -2.45826,8.45662 -5.295,14.39014 -9.68311,20.25379 l -2.99628,4.0038 6.48433,15.6243 c 3.56637,8.59337 6.94985,15.33659 7.51883,14.98493 0.56898,-0.35165 0.99444,-14.52804 0.94547,-31.50309 z m 72.10243,45.34608 c -2.23515,-2.23515 -2.35045,-2.82621 -6.41418,-32.88109 -2.58409,-19.11161 -3.0992,-27.96295 -3.0992,-53.25497 l 0,-30.33369 -3.125,-3.37193 c -3.56358,-3.84516 -4.03299,-8.40657 -1.16072,-11.27884 1.58964,-1.58964 5.14882,-1.96429 18.66072,-1.96429 13.84295,0 17.04858,0.35216 18.75702,2.06059 1.91411,1.91412 2.36774,1.91412 6.38169,0 2.96412,-1.41349 7.65704,-2.06059 14.94385,-2.06059 11.31175,0 17.72721,1.84377 22.71287,6.52755 l 2.82957,2.65823 0,-2.6286 c 0,-1.44574 0.88392,-3.51254 1.96428,-4.59289 1.73099,-1.73099 9.06927,-1.96429 61.78572,-1.96429 52.71645,0 60.05472,0.2333 61.78571,1.96429 1.54449,1.54448 1.96429,4.86471 1.96429,15.53571 0,10.671 -0.4198,13.99123 -1.96429,15.53571 -2.88385,2.88385 -7.32535,2.40062 -11.6898,-1.27183 l -3.84591,-3.23611 0,24.33789 c 0,20.46998 -0.59908,28.48359 -3.76953,50.42362 -2.07324,14.34715 -4.07947,27.06878 -4.45831,28.27032 -0.90001,2.85452 -6.16348,4.11902 -9.95485,2.39155 -1.64909,-0.75136 -3.2735,-2.65089 -3.60981,-4.22114 -0.33632,-1.57026 -2.04048,-14.10501 -3.78704,-27.85501 -2.43104,-19.13865 -3.17496,-30.6676 -3.17301,-49.17362 l 0.003,-24.17361 -3.84592,3.23611 c -2.11523,1.77987 -4.92773,3.23612 -6.25,3.23612 -2.3237,0 -2.40408,1.38362 -2.40408,41.38205 l 0,41.38206 3.125,3.71385 c 3.57048,4.24329 4.0181,8.70036 1.16071,11.55775 -1.6882,1.6882 -6.6829,1.96429 -35.53571,1.96429 -28.85282,0 -33.84752,-0.27609 -35.53572,-1.96429 -1.08036,-1.08035 -1.96428,-3.14716 -1.96428,-4.59289 l 0,-2.62861 -2.82957,2.65824 c -4.99888,4.69621 -11.39696,6.52755 -22.80508,6.52755 -8.09013,0 -11.85104,-0.58438 -15.35265,-2.38553 -5.31382,-2.73328 -10.35169,-7.80822 -13.1428,-13.23947 -2.18458,-4.25097 -2.72135,-3.45138 -3.97594,5.92256 -0.43596,3.25741 -1.64314,6.77304 -2.6826,7.8125 -2.43473,2.43474 -7.25054,2.4222 -9.69798,-0.0252 z m 9.2206,-32.54824 c 3.32528,-24.20708 3.7655,-30.93548 3.76574,-57.5555 2.6e-4,-28.60283 0.13273,-30.31231 2.591,-33.4375 l 2.59073,-3.29357 -13.78392,0 -13.7839,0 3.06818,3.06818 3.06819,3.06818 0,30.53734 c 0,25.62211 0.50901,34.33305 3.16242,54.11932 3.58339,26.72105 4.44405,32.01718 5.09689,31.36433 0.25257,-0.25256 2.15367,-12.79442 4.22467,-27.87078 z m 48.50332,25.84644 c 5.32306,-2.71677 7.85882,-5.32537 10.77775,-11.0873 1.63402,-3.22556 1.99257,-7.01884 1.71323,-18.125 l -0.35328,-14.04571 -8.27162,10.625 c -4.54937,5.84375 -8.67563,11.92285 -9.16945,13.5091 -0.80333,2.58049 -5.02786,5.2409 -8.32212,5.2409 -0.674,0 -2.60613,-1.38068 -4.29363,-3.06818 l -3.06818,-3.06818 0,-38.86364 0,-38.86364 3.06818,-3.06818 c 1.6875,-1.6875 3.61963,-3.06818 4.29363,-3.06818 3.28881,0 7.52022,2.65938 8.33894,5.24089 0.93643,2.95269 14.54568,21.49133 16.79928,22.88413 0.80323,0.49643 1.24997,-3.959 1.24997,-12.4664 0,-18.08941 -2.73702,-24.42472 -12.7627,-29.54163 -5.22138,-2.66488 -17.35487,-3.20801 -23.09343,-1.03373 -4.74109,1.79635 -8.89457,5.8312 -11.76552,11.42944 -2.20447,4.29864 -2.37835,7.84361 -2.37835,48.4873 0,40.64369 0.17388,44.18866 2.37835,48.4873 2.77635,5.41377 6.97108,9.60339 11.37228,11.35839 1.7184,0.68521 6.6624,1.2815 10.98667,1.32507 5.37762,0.0543 9.32792,-0.66879 12.5,-2.28775 z m 44.80815,-0.92846 -3.29545,-3.29546 0,-31.70454 0,-31.70455 8.75,0 8.75,0 0,31.70455 0,31.70454 -3.29545,3.29546 -3.29547,3.29545 14.00558,0 14.00557,0 -2.58512,-3.63046 c -2.51814,-3.53642 -2.58511,-5.03787 -2.58511,-57.95643 0,-53.06737 0.06,-54.40227 2.59072,-57.61954 l 2.59073,-3.29357 -13.30645,0 -13.30645,0 2.59072,3.29357 c 2.29035,2.91171 2.59073,5.01319 2.59073,18.125 l 0,14.83143 -8.75,0 -8.75,0 0,-15.05682 c 0,-14.31958 0.15022,-15.20705 3.06818,-18.125 l 3.06818,-3.06818 -14.26136,0 -14.26137,0 3.06818,3.06818 c 2.89779,2.89779 3.06819,3.85751 3.06819,17.28106 0,11.78445 -0.52122,15.74532 -3.05054,23.18182 l -3.05053,8.96894 3.05053,0 3.05054,0 0,31.69247 0,31.69247 -3.06532,3.30754 -3.06531,3.30752 14.48576,0 14.48578,0 -3.29546,-3.29545 z m 67.89796,-25.30901 c 3.24256,-22.76894 3.80659,-30.50157 3.80659,-52.1875 l 0,-25.45804 5.11953,0 c 3.17209,0 6.50055,0.98337 8.75,2.58512 l 3.63047,2.58511 0,-10.71011 0,-10.71012 -25.625,0 -25.625,0 0,10.71572 0,10.71573 3.29357,-2.59073 c 2.18953,-1.72228 5.12263,-2.59072 8.75,-2.59072 l 5.45643,0 0,25.77741 c 0,20.30571 0.67265,30.98539 3.1689,50.3125 3.28707,25.45013 4.34952,31.65949 5.05362,29.53509 0.22786,-0.6875 2.12725,-13.27825 4.22089,-27.97946 z m -93.95871,15.93357 c -0.31207,-0.93618 -0.87868,-0.36956 -1.32069,1.32069 -0.54371,2.07918 -0.38104,2.56722 0.54655,1.63964 0.72637,-0.72638 1.07474,-2.05853 0.77414,-2.96033 z m 33.72717,-23.99497 c 0.32899,-26.4492 0.2777,-27.08414 -2.1875,-27.08414 -2.45361,0 -2.52437,0.74749 -2.52437,26.66667 0,14.66666 0.38671,27.05338 0.85937,27.52604 2.90239,2.90239 3.53455,-1.54588 3.8525,-27.10857 z m -63.46187,11.07604 c 0,-1.93388 15.13977,-22.66067 18.51507,-25.34768 2.69755,-2.14746 7.1597,-1.95916 9.52064,0.40179 1.78571,1.78571 1.96429,1.282 1.96429,-5.54077 0,-6.34157 -0.37765,-7.62491 -2.43607,-8.27823 -1.33982,-0.42524 -2.76623,-1.81348 -3.16978,-3.08496 -0.40357,-1.27149 -2.0005,-2.62973 -3.54877,-3.01832 -1.6267,-0.40828 -6.29403,-5.34174 -11.05635,-11.68677 -4.53271,-6.03913 -8.93126,-12.32186 -9.77453,-13.96162 -1.20747,-2.34794 -1.76618,-2.61352 -2.62972,-1.25 -1.22232,1.93005 -1.57187,68.51286 -0.37605,71.62915 0.9559,2.49104 2.99127,2.58454 2.99127,0.13741 z m 63.73086,-76.59768 c -0.01,-5.32813 -0.57303,-10.53125 -1.25,-11.5625 -1.0941,-1.66667 -1.36763,-1.66667 -2.46173,0 -0.67697,1.03125 -1.23947,6.23437 -1.25,11.5625 -0.0175,8.86055 0.19428,9.6875 2.48087,9.6875 2.28658,0 2.49836,-0.82695 2.48086,-9.6875 z m -34.98678,-11.20291 c -1.36201,-2.12411 -1.39728,-2.12138 -0.71347,0.0551 0.39566,1.25936 0.7638,2.94686 0.81807,3.75 0.0713,1.05395 0.26974,1.03861 0.71347,-0.0551 0.33813,-0.83347 -0.03,-2.52097 -0.81807,-3.75 z"
         id="path5416"
         inkscape:connector-curvature="0" />
      <path
         style="fill:#1c221b"
         d="m 451.4013,303.00209 c -1.25905,-1.18676 -1.8955,-1.45462 -1.41433,-0.59524 0.50922,0.90947 0.17157,1.5625 -0.80791,1.5625 -0.92552,0 -1.77019,-0.98438 -1.87704,-2.1875 -0.10687,-1.20313 -1.15235,-8.375 -2.32333,-15.9375 -1.26804,-8.18929 -2.43448,-25.55378 -2.88424,-42.93726 l -0.75516,-29.18726 -3.5019,3.24976 c -1.92605,1.78737 -4.59034,3.24976 -5.92065,3.24976 -2.33643,0 -2.42997,1.41105 -2.7481,41.45925 l -0.32935,41.45924 -2.8125,0.20686 -2.8125,0.20685 0,-52.74753 c 0,-51.4705 0.0627,-52.82726 2.59072,-56.0411 l 2.59073,-3.29357 -13.30645,0 -13.30645,0 2.59072,3.29357 c 2.29035,2.91171 2.59073,5.01319 2.59073,18.125 l 0,14.83143 -8.75,0 -8.75,0 0,-15.05682 c 0,-14.31958 0.15022,-15.20705 3.06818,-18.125 l 3.06818,-3.06818 -14.26136,0 -14.26137,0 3.06818,3.06818 c 2.89779,2.89779 3.06819,3.85751 3.06819,17.28106 0,11.78445 -0.52122,15.74532 -3.05054,23.18182 l -3.05053,8.96894 3.07357,0 3.07357,0 -0.33554,29.0625 -0.33553,29.0625 -2.8125,0.14183 c -1.54688,0.078 -2.8125,-0.37707 -2.8125,-1.01127 0,-0.63421 -0.70313,-0.7143 -1.5625,-0.17799 -0.85938,0.53631 -2.43623,1.11159 -3.50413,1.2784 -1.68719,0.26355 -1.87302,-1.62053 -1.41817,-14.37788 0.28788,-8.07465 0.31163,-15.78099 0.0528,-17.1252 -0.36439,-1.89208 -2.33557,-0.0484 -8.72843,8.16405 -4.54176,5.83443 -8.66179,11.90591 -9.1556,13.49216 -1.94031,6.23271 -12.03587,5.9233 -14.45635,-0.44306 -0.70434,-1.85258 -1.22757,-19.20198 -1.22757,-40.70423 l 0,-37.47545 3.06818,-3.06818 c 1.6875,-1.6875 3.61963,-3.06818 4.29363,-3.06818 3.28881,0 7.52022,2.65938 8.33894,5.24089 0.93643,2.95269 14.54568,21.49133 16.79928,22.88413 0.80323,0.49643 1.24997,-3.959 1.24997,-12.4664 0,-18.08941 -2.73702,-24.42472 -12.7627,-29.54163 -5.22138,-2.66488 -17.35487,-3.20801 -23.09343,-1.03373 -4.74109,1.79635 -8.89457,5.8312 -11.76552,11.42944 -2.20407,4.29786 -2.37835,7.84137 -2.37835,48.35613 0,24.23481 0.52322,45.09461 1.17403,46.80639 1.04949,2.76034 0.87104,3.0547 -1.68195,2.77446 -1.57078,-0.17244 -3.50536,-0.71485 -4.29903,-1.20537 -0.79368,-0.49052 -1.44305,-0.38002 -1.44305,0.24556 0,0.62558 -1.54688,1.08065 -3.4375,1.01127 -4.00953,-0.14713 -3.99858,1.21988 -0.21073,-26.30001 1.8177,-13.20616 2.39823,-24.73911 2.39823,-47.64393 0,-28.68007 0.13202,-30.38789 2.59072,-33.51363 l 2.59073,-3.29357 -13.78392,0 -13.7839,0 3.06818,3.06818 3.06819,3.06818 0.0465,30.99432 c 0.0375,24.97327 0.5998,35.1463 2.89473,52.36729 l 2.84825,21.37298 -3.20723,-0.12298 c -3.16779,-0.12146 -3.24075,-0.35366 -5.93029,-18.87297 -2.1966,-15.12518 -2.74033,-24.8165 -2.8125,-50.12997 l -0.0895,-31.37997 -3.125,-3.37193 c -3.56358,-3.84516 -4.03299,-8.40657 -1.16072,-11.27884 1.58964,-1.58964 5.14882,-1.96429 18.66072,-1.96429 13.84295,0 17.04858,0.35216 18.75702,2.06059 1.91411,1.91412 2.36774,1.91412 6.38169,0 2.96412,-1.41349 7.65704,-2.06059 14.94385,-2.06059 11.31175,0 17.72721,1.84377 22.71287,6.52755 l 2.82957,2.65823 0,-2.6286 c 0,-1.44574 0.88392,-3.51254 1.96428,-4.59289 1.73099,-1.73099 9.06927,-1.96429 61.78572,-1.96429 52.71645,0 60.05472,0.2333 61.78571,1.96429 1.54449,1.54448 1.96429,4.86471 1.96429,15.53571 0,10.671 -0.4198,13.99123 -1.96429,15.53571 -2.90341,2.90342 -7.44658,2.39149 -11.40881,-1.28557 l -3.5019,-3.24985 -0.74383,28.56235 c -0.43086,16.54485 -1.62967,34.34763 -2.84924,42.31236 -2.99036,19.52938 -2.95387,19.40938 -5.77076,18.97949 -1.34571,-0.20537 -2.72332,-0.64998 -3.06136,-0.98801 -0.33804,-0.33804 0.77246,-10.42501 2.46779,-22.41549 2.45773,-17.38283 3.0824,-26.93311 3.0824,-47.12593 l 0,-25.32506 5.11953,0 c 3.17209,0 6.50055,0.98337 8.75,2.58512 l 3.63047,2.58511 0,-10.71011 0,-10.71012 -25.625,0 -25.625,0 0,10.71572 0,10.71573 3.29357,-2.59073 c 2.18953,-1.72228 5.12263,-2.59072 8.75,-2.59072 l 5.45643,0 0.022,25.9375 c 0.017,20.00676 0.69847,31.08224 2.98058,48.4375 1.62724,12.375 2.84949,22.62723 2.71612,22.78274 -0.13338,0.1555 -1.27263,-0.68825 -2.53168,-1.875 z M 336.96429,288.42597 c 0,-1.88417 15.19925,-22.70465 18.53807,-25.39412 2.66675,-2.14811 7.13685,-1.95901 9.49764,0.40179 1.78571,1.78571 1.96429,1.282 1.96429,-5.54077 0,-6.34157 -0.37765,-7.62491 -2.43607,-8.27823 -1.33982,-0.42524 -2.76623,-1.81348 -3.16978,-3.08496 -0.40357,-1.27149 -1.98398,-2.62558 -3.51204,-3.0091 -2.99048,-0.75057 -20.88211,-23.46018 -20.88211,-26.50539 0,-2.41188 -2.04369,-2.28795 -2.99127,0.18139 -0.99015,2.5803 -0.99015,68.46524 0,71.04554 0.9471,2.46812 2.99127,2.59376 2.99127,0.18385 z m 63.75,-77.50785 c 0,-6.39315 -0.54769,-10.88971 -1.38975,-11.41014 -2.44635,-1.51193 -3.57147,2.33358 -3.59112,12.27387 -0.0175,8.86055 0.19428,9.6875 2.48087,9.6875 2.30255,0 2.5,-0.83333 2.5,-10.55123 z m -35.00592,-10.33918 c -1.36201,-2.12411 -1.39728,-2.12138 -0.71347,0.0551 0.39566,1.25936 0.7638,2.94686 0.81807,3.75 0.0713,1.05395 0.26974,1.03861 0.71347,-0.0551 0.33813,-0.83347 -0.03,-2.52097 -0.81807,-3.75 z m 26.95079,102.25347 c -0.47719,-0.77211 -1.39125,-1.08022 -2.03125,-0.68468 -0.70559,0.43608 -1.16362,-10.87267 -1.16362,-28.72961 l 0,-29.44877 8.75,0 8.75,0 0,29.82933 0,29.82933 -2.8125,-0.14183 -2.8125,-0.14183 -0.33737,-26.5625 c -0.3242,-25.52666 -0.43387,-26.5625 -2.8125,-26.5625 -2.38473,0 -2.47583,0.92452 -2.49427,25.3125 -0.0179,23.57954 -0.82879,30.87189 -3.03599,27.30056 z m -213.91302,-1.78005 c -0.35182,-0.91684 -0.47479,-6.22364 -0.27327,-11.79289 l 0.36642,-10.12591 9.0625,10.07712 c 4.98437,5.54242 9.01808,10.98985 8.96381,12.1054 -0.0581,1.19457 -0.34925,1.41176 -0.7083,0.52838 -0.4322,-1.06339 -1.5156,-1.15543 -3.72275,-0.31628 -1.71223,0.65099 -2.8577,0.76344 -2.54549,0.24989 0.3122,-0.51355 -0.78065,-1.94436 -2.42856,-3.17958 -2.5688,-1.92548 -2.99621,-1.97006 -2.99621,-0.3125 0,1.06335 -0.87695,1.93336 -1.94878,1.93336 -1.07182,0 -1.60112,0.5625 -1.17622,1.25 0.4249,0.6875 0.15918,1.25 -0.59047,1.25 -0.74964,0 -1.65085,-0.75014 -2.00268,-1.66699 z m 42.28065,0.64255 -2.8125,-0.39944 -0.0891,-29.60056 -0.089,-29.60056 -2.18019,7.5 c -2.46198,8.4694 -5.29551,14.39108 -9.70565,20.28333 l -3.01879,4.03333 4.55304,10.96667 c 7.24169,17.44267 6.97472,15.96953 2.9038,16.02365 -3.39029,0.0451 -3.90415,-0.71679 -9.69874,-14.37969 l -6.11877,-14.42729 2.81528,-3.125 c 5.19778,-5.76957 9.15792,-13.0643 11.77723,-21.69417 1.43049,-4.71304 2.60089,-10.41942 2.60089,-12.68083 0,-5.37339 -4.53414,-20.0873 -7.8757,-25.55775 -4.2745,-6.99774 -9.69042,-12.55017 -14.76865,-15.14089 -3.86332,-1.97092 -7.36339,-2.42636 -18.64658,-2.42636 l -13.89052,0 2.59072,3.29357 c 2.46208,3.13003 2.59073,4.82606 2.59073,34.15606 0,29.34069 -0.14875,31.29981 -3.01656,39.73154 -1.65911,4.87798 -2.69036,9.19525 -2.29167,9.59394 0.39869,0.39869 1.75614,0.72489 3.01656,0.72489 2.04769,0 2.29157,1.16445 2.29078,10.9375 -8.7e-4,10.78417 -0.0447,10.94003 -3.125,11.11777 -3.02195,0.17437 -3.12411,-0.0784 -3.12411,-7.72827 0,-6.80764 -0.34761,-8.01886 -2.4971,-8.70108 -4.13308,-1.31179 -4.34556,-6.22396 -0.77529,-17.92372 1.99245,-6.52923 3.26238,-13.5563 3.19914,-17.7022 l -0.10486,-6.875 -2.18018,7.5 c -2.46357,8.47488 -5.29574,14.39148 -9.71535,20.29606 l -3.02851,4.04605 5.05108,12.08863 c 2.77808,6.64875 5.05107,12.73115 5.05107,13.51645 0,0.78529 -1.39439,1.42781 -3.09863,1.42781 -2.76758,0 -3.74973,-1.54251 -9.19271,-14.4375 l -6.09408,-14.4375 3.31419,-3.81725 c 1.8228,-2.09949 4.49828,-5.75574 5.94552,-8.125 3.34157,-5.47045 7.87571,-20.18436 7.87571,-25.55775 0,-5.37339 -4.53414,-20.0873 -7.87571,-25.55775 -4.27449,-6.99774 -9.69041,-12.55017 -14.76865,-15.14089 -3.86331,-1.97092 -7.36338,-2.42636 -18.64657,-2.42636 l -13.890523,0 2.590725,3.29357 c 2.462081,3.13003 2.590725,4.82606 2.590725,34.15606 0,29.34069 -0.148742,31.29981 -3.016559,39.73154 -1.659106,4.87798 -2.690356,9.19525 -2.291666,9.59394 0.39869,0.39869 1.756141,0.72489 3.016559,0.72489 2.041226,0 2.291666,1.15307 2.291666,10.55123 0,5.80317 -0.5625,10.89887 -1.25,11.32377 -0.6875,0.4249 -1.25,0.1945 -1.25,-0.512 0,-0.7065 -0.84375,-0.96076 -1.875,-0.56503 -1.538279,0.59029 -1.875,-0.62739 -1.875,-6.7805 0,-5.51355 -0.496611,-7.69057 -1.875,-8.2195 -1.4266,-0.54744 -1.876667,0.24264 -1.881971,3.30376 -0.0039,2.2128 -0.603317,6.17083 -1.332183,8.79562 -1.164515,4.19364 -1.57171,4.57259 -3.357977,3.125 -1.725336,-1.39821 -1.874219,-1.36378 -0.984437,0.22765 0.848214,1.51708 0.72977,1.57952 -0.620481,0.32707 -1.38895,-1.28834 -1.206188,-5.06161 1.089799,-22.5 2.18501,-16.59548 2.75379,-27.08997 2.73543,-50.471 -0.02197,-27.98956 0.11105,-29.68956 2.567545,-32.8125 l 2.590725,-3.29357 -13.783906,0 -13.783908,0 3.068182,3.06818 3.068182,3.06818 0,30.51346 c 0,23.52622 0.572471,34.74099 2.5,48.97518 2.848891,21.03817 2.989842,23.57528 1.25,22.5 -0.6875,-0.4249 -1.25,-0.2706 -1.25,0.34289 0,0.6135 -0.774816,1.11544 -1.721814,1.11544 -1.276266,0 -2.40837,-5.06799 -4.375,-19.58522 -2.087007,-15.40581 -2.653186,-25.9922 -2.653186,-49.60913 l 0,-30.02392 -3.125,-3.37193 c -3.563569,-3.84516 -4.032988,-8.40657 -1.160714,-11.27884 1.681423,-1.68143 6.484685,-1.96429 33.355344,-1.96429 29.090273,0 31.778993,0.18779 36.683843,2.56219 6.27238,3.03641 14.21095,11.29969 18.13432,18.87604 1.54846,2.99022 3.79835,8.81177 4.99974,12.93677 l 2.18436,7.5 0.089,-12.62997 c 0.0832,-11.80154 -0.11592,-12.85115 -3.03594,-16.0019 -3.56357,-3.84516 -4.03299,-8.40657 -1.16072,-11.27884 1.59722,-1.59723 5.15941,-1.95916 19.0625,-1.93684 13.85968,0.0223 18.04525,0.46004 22.09822,2.31132 9.7061,4.43347 19.78622,18.46684 23.69801,32.99192 l 1.76246,6.54431 0.0823,-12.92784 c 0.0707,-11.11206 -0.26886,-13.37424 -2.41772,-16.10607 -3.00159,-3.8159 -3.21729,-8.19524 -0.53572,-10.8768 1.58202,-1.58201 5.09199,-1.96429 18.03572,-1.96429 12.94372,0 16.4537,0.38228 18.03571,1.96429 2.87227,2.87227 2.40286,7.43368 -1.16071,11.27884 l -3.125,3.37193 0,44.81747 0,44.81747 8.25705,0 c 6.98383,0 8.82972,-0.48187 11.97091,-3.125 2.04261,-1.71875 5.03676,-3.125 6.65366,-3.125 4.65135,0 6.86838,3.20964 6.86838,9.9435 0,4.90389 -0.44842,6.13218 -2.42763,6.64976 -1.33519,0.34916 -2.74144,0.32101 -3.125,-0.0625 -0.38355,-0.38355 -0.69737,-2.95886 -0.69737,-5.72291 l 0,-5.02553 -3.5059,3.35887 c -3.35809,3.21725 -4.06955,3.35886 -16.875,3.35886 l -13.3691,0 0,-49.81747 0,-49.81747 3.06531,-3.30753 3.06531,-3.30753 -13.72774,0 -13.72772,0 2.55137,3.45092 c 2.4851,3.36129 2.54289,4.79801 2.22492,55.3125 l -0.32645,51.86158 -2.8125,-0.39944 z m -105.3125,-11.8989 c 0,-6.39611 0.46718,-10.80974 1.07323,-10.13916 0.59027,0.65312 4.80902,5.30994 9.375,10.34847 4.56597,5.03854 8.30177,9.60538 8.30177,10.14854 0,1.69982 -7.81662,0.16642 -10.21473,-2.00383 -1.99382,-1.80439 -2.28527,-1.8229 -2.28527,-0.14514 0,1.05858 -1.40476,2.19155 -3.125,2.5204 l -3.125,0.59738 0,-11.32666 z m 0,-55.20166 c 0,-14.09375 0.43734,-25.625 0.97186,-25.625 4.36077,0 11.61956,11.1496 13.91767,21.37772 0.96496,4.29476 0.70275,6.82331 -1.3588,13.10325 -2.6785,8.15925 -8.70966,16.76903 -11.74674,16.76903 -1.48731,0 -1.78399,-4.26152 -1.78399,-25.625 z m 7.80843,-3.4375 c -1.18729,-3.70113 -1.30321,-3.33976 -1.30321,4.0625 0,7.40226 0.11592,7.76363 1.30321,4.0625 0.90429,-2.81893 0.90429,-5.30607 0,-8.125 z m 54.69157,3.4375 c 0,-14.09375 0.43734,-25.625 0.97186,-25.625 4.36077,0 11.61956,11.1496 13.91766,21.37772 0.96498,4.29476 0.70276,6.82331 -1.3588,13.10325 -2.67849,8.15925 -8.70965,16.76903 -11.74673,16.76903 -1.48731,0 -1.78399,-4.26152 -1.78399,-25.625 z m 7.80843,-3.4375 c -1.18728,-3.70113 -1.30321,-3.33976 -1.30321,4.0625 0,7.40226 0.11588,7.76363 1.30321,4.0625 0.90429,-2.81893 0.90429,-5.30607 0,-8.125 z"
         id="path5414"
         inkscape:connector-curvature="0" />
      <path
         style="fill:#081207"
         d="m 426.02679,263.69373 c -2.80858,-1.35452 -2.8125,-1.40127 -2.8125,-33.49683 0,-30.62284 0.12237,-32.29592 2.59072,-35.43398 l 2.59073,-3.29357 -13.30645,0 -13.30645,0 2.59072,3.29357 c 2.29035,2.91171 2.59073,5.01319 2.59073,18.125 l 0,14.83143 -8.75,0 -8.75,0 0,-15.05682 c 0,-14.31958 0.15022,-15.20705 3.06818,-18.125 l 3.06818,-3.06818 -14.26136,0 -14.26137,0 3.06818,3.06818 c 2.89779,2.89779 3.06819,3.85751 3.06819,17.28106 0,11.78445 -0.52122,15.74532 -3.05054,23.18182 l -3.05053,8.96894 3.05053,0 c 2.95861,0 3.05054,0.27813 3.05054,9.22921 0,8.08623 -0.30065,9.30783 -2.42763,9.86405 -1.33519,0.34916 -2.74144,0.32101 -3.125,-0.0625 -0.38355,-0.38355 -0.69737,-3.37822 -0.69737,-6.65481 0,-4.80749 -0.47023,-6.10668 -2.43607,-6.73061 -1.33982,-0.42524 -2.76623,-1.81348 -3.16978,-3.08496 -0.40357,-1.27149 -1.98398,-2.62558 -3.51204,-3.0091 -2.99048,-0.75057 -20.88211,-23.46018 -20.88211,-26.50539 0,-2.41188 -2.04369,-2.28795 -2.99127,0.18139 -0.41731,1.08748 -0.75913,11.63436 -0.75962,23.4375 l -8.8e-4,21.46027 -3.12412,0.18027 -3.12411,0.18026 0,-24.29958 c 0,-24.13289 0.021,-24.32063 3.06818,-27.36777 1.6875,-1.6875 3.61963,-3.06818 4.29363,-3.06818 3.28881,0 7.52022,2.65938 8.33894,5.24089 0.93643,2.95269 14.54568,21.49133 16.79928,22.88413 0.80323,0.49643 1.24997,-3.959 1.24997,-12.4664 0,-18.08941 -2.73702,-24.42472 -12.7627,-29.54163 -5.22138,-2.66488 -17.35487,-3.20801 -23.09343,-1.03373 -4.74109,1.79635 -8.89457,5.8312 -11.76552,11.42944 -2.12125,4.13636 -2.37835,7.55631 -2.37835,31.63627 0,17.68074 -0.4314,26.73195 -1.25,26.22603 -0.6875,-0.4249 -1.25,-0.22662 -1.25,0.44062 0,0.66725 -0.98438,1.06894 -2.1875,0.89267 -2.00877,-0.29431 -2.2148,-2.9644 -2.52169,-32.67802 -0.3194,-30.92566 -0.22095,-32.51068 2.22492,-35.81889 l 2.5591,-3.46138 -13.7306,0 -13.7306,0 3.06818,3.06818 3.06819,3.06818 0,33.43182 c 0,24.70877 -0.36589,33.06593 -1.40233,32.0295 -0.77127,-0.77127 -2.17752,-1.10484 -3.125,-0.74126 -1.43464,0.55052 -1.72267,-4.45143 -1.72267,-29.91516 l 0,-30.5762 -3.125,-3.37193 c -3.56358,-3.84516 -4.03299,-8.40657 -1.16072,-11.27884 1.58964,-1.58964 5.14882,-1.96429 18.66072,-1.96429 13.84295,0 17.04858,0.35216 18.75702,2.06059 1.91411,1.91412 2.36774,1.91412 6.38169,0 2.96412,-1.41349 7.65704,-2.06059 14.94385,-2.06059 11.31175,0 17.72721,1.84377 22.71287,6.52755 l 2.82957,2.65823 0,-2.6286 c 0,-1.44574 0.88392,-3.51254 1.96428,-4.59289 1.73099,-1.73099 9.06927,-1.96429 61.78572,-1.96429 52.71645,0 60.05472,0.2333 61.78571,1.96429 1.54449,1.54448 1.96429,4.86471 1.96429,15.53571 0,10.671 -0.4198,13.99123 -1.96429,15.53571 -2.9026,2.9026 -7.44583,2.39181 -11.40881,-1.28269 l -3.5019,-3.24699 -0.33794,24.98113 -0.33793,24.98112 -3.41207,0.65548 c -1.87664,0.36051 -3.41206,0.56453 -3.41206,0.45336 0,-0.11116 0.16116,-12.999 0.35813,-28.63962 l 0.35814,-28.4375 5.0739,0 c 3.12595,0 6.4677,0.99247 8.70436,2.58512 l 3.63047,2.58511 0,-10.71011 0,-10.71012 -25.625,0 -25.625,0 0,10.71572 0,10.71573 3.29357,-2.59073 c 2.18953,-1.72228 5.12263,-2.59072 8.75,-2.59072 l 5.45643,0 0,27.97928 0,27.97928 -3.10019,0.59263 -3.10018,0.59264 -0.33732,-25.56884 -0.33731,-25.56883 -3.5019,3.24692 c -1.92605,1.7858 -4.59793,3.24692 -5.9375,3.24692 -2.31429,0 -2.44298,1.07403 -2.58363,21.5625 -0.0814,11.85937 -0.0814,21.98437 0,22.5 0.17555,1.11179 0.27041,1.12875 -3.28947,-0.58812 z m -25.3125,-52.77561 c 0,-6.39315 -0.54769,-10.88971 -1.38975,-11.41014 -2.44635,-1.51193 -3.57147,2.33358 -3.59112,12.27387 -0.0175,8.86055 0.19428,9.6875 2.48087,9.6875 2.30255,0 2.5,-0.83333 2.5,-10.55123 z m -35.00592,-10.33918 c -1.36201,-2.12411 -1.39728,-2.12138 -0.71347,0.0551 0.39566,1.25936 0.7638,2.94686 0.81807,3.75 0.0713,1.05395 0.26974,1.03861 0.71347,-0.0551 0.33813,-0.83347 -0.03,-2.52097 -0.81807,-3.75 z m -119.72311,62.45291 c -0.14904,-0.85938 -0.69285,-1.49589 -1.20847,-1.41447 -3.96325,0.62577 -4.0625,-0.15209 -4.0625,-31.8405 l 0,-31.69247 3.06531,-3.30753 3.06531,-3.30753 -13.78104,0 -13.78103,0 2.59072,3.29357 c 2.4656,3.1345 2.59073,4.81791 2.59073,34.85428 l 0,31.56071 -3.125,0.59738 c -3.12003,0.59643 -3.12514,0.58125 -3.21405,-9.54178 l -0.089,-10.13916 -2.17195,7.5 c -3.02682,10.45194 -4.48832,12.76104 -7.8972,12.47723 -1.63378,-0.13601 -2.78893,-0.99338 -2.67227,-1.9834 0.113,-0.95911 1.41612,-5.07074 2.89575,-9.13695 4.20169,-11.5467 4.50023,-17.87283 1.34123,-28.42035 -4.15579,-13.87568 -11.3875,-24.07612 -20.33016,-28.67601 -3.74123,-1.92439 -7.31248,-2.38552 -18.47493,-2.38552 l -13.83722,0 2.55989,3.46243 c 2.44215,3.30319 2.54448,4.89851 2.22492,34.6875 l -0.33496,31.22507 -3.11828,-0.0148 c -3.07072,-0.0145 -3.11398,-0.15753 -2.83612,-9.375 l 0.28217,-9.36023 -2.23186,7.56458 c -2.14424,7.26762 -6.47091,15.31379 -6.47091,12.03376 0,-0.87061 -0.98438,-1.41765 -2.1875,-1.21564 -2.54471,0.42728 -2.52391,0.22108 0.9608,-9.52582 4.15613,-11.62489 4.44229,-17.90913 1.29416,-28.42035 -4.15579,-13.87568 -11.3875,-24.07612 -20.33017,-28.67601 -3.74438,-1.92602 -7.31332,-2.38552 -18.52822,-2.38552 l -13.890523,0 2.590725,3.29357 c 2.462457,3.13051 2.590725,4.82521 2.590725,34.22928 l 0,30.93571 -3.434315,0.65651 c -1.888873,0.36108 -3.78731,0.0854 -4.21875,-0.61273 -0.515625,-0.8343 -1.081751,-0.78818 -1.652057,0.1346 -2.515952,4.07089 -3.194878,-2.52571 -3.194878,-31.04214 0,-29.47686 0.127899,-31.17025 2.590725,-34.30123 l 2.590725,-3.29357 -13.783906,0 -13.783908,0 3.068182,3.06818 3.068182,3.06818 0,31.1611 0,31.1611 -3.125,0.59738 -3.125,0.59738 0,-29.64413 0,-29.64413 -3.125,-3.37193 c -3.563569,-3.84516 -4.032988,-8.40657 -1.160714,-11.27884 1.681423,-1.68143 6.484685,-1.96429 33.355344,-1.96429 29.090273,0 31.778993,0.18779 36.683843,2.56219 6.27238,3.03641 14.21095,11.29969 18.13432,18.87604 1.54846,2.99022 3.79835,8.81177 4.99974,12.93677 l 2.18436,7.5 0.089,-12.7481 c 0.0833,-11.92742 -0.11212,-12.96517 -3.03594,-16.12003 -3.56811,-3.85005 -4.02325,-8.18005 -1.16072,-11.04258 1.59332,-1.59332 5.17787,-1.96429 18.98035,-1.96429 14.59897,0 17.76788,0.36395 22.30884,2.56219 6.27238,3.03641 14.21095,11.29969 18.13431,18.87604 1.54847,2.99022 3.79835,8.81177 4.99975,12.93677 l 2.18437,7.5 0.089,-12.92784 c 0.0766,-11.11836 -0.26082,-13.37269 -2.4109,-16.10607 -3.00159,-3.8159 -3.21729,-8.19524 -0.53572,-10.8768 1.58202,-1.58201 5.09199,-1.96429 18.03572,-1.96429 12.94372,0 16.4537,0.38228 18.03571,1.96429 2.80075,2.80074 2.42754,7.57286 -0.84821,10.84576 -2.73098,2.7286 -2.83183,3.73413 -3.47903,34.6875 -0.36659,17.5326 -0.78846,31.17432 -0.9375,30.31495 z m 110.97903,-0.3265 c 0,-0.6798 1.40625,-1.236 3.125,-1.236 1.71875,0 3.125,0.43981 3.125,0.97736 0,0.53756 -1.40625,1.09375 -3.125,1.236 -1.71875,0.14225 -3.125,-0.29756 -3.125,-0.97736 z m 32.5,-8.60226 0,-10.13374 8.80257,0 8.80259,0 -0.36509,9.56649 c -0.33699,8.83051 -0.58145,9.59924 -3.17757,9.99216 -2.62703,0.39759 -2.8125,-0.0272 -2.8125,-6.44149 0,-6.03383 -0.30338,-6.86716 -2.5,-6.86716 -2.16667,0 -2.5,0.83333 -2.5,6.25 0,3.4375 -0.5165,6.25 -1.14777,6.25 -0.63127,0 -2.03752,0.34143 -3.125,0.75874 -1.70277,0.65341 -1.97723,-0.64792 -1.97723,-9.375 z m -273.75,-19.50874 c 0,-14.09375 0.48664,-25.625 1.08142,-25.625 5.06878,0 14.08595,16.12941 14.22683,25.44813 0.13871,9.17547 -9.02888,25.80187 -14.22683,25.80187 -0.59478,0 -1.08142,-11.53125 -1.08142,-25.625 z m 7.80843,-3.4375 c -1.18729,-3.70113 -1.30321,-3.33976 -1.30321,4.0625 0,7.40226 0.11592,7.76363 1.30321,4.0625 0.90429,-2.81893 0.90429,-5.30607 0,-8.125 z m 54.69157,3.4375 c 0,-14.09375 0.48664,-25.625 1.08142,-25.625 5.06878,0 14.08595,16.12941 14.22683,25.44813 0.13871,9.17547 -9.02888,25.80187 -14.22683,25.80187 -0.59478,0 -1.08142,-11.53125 -1.08142,-25.625 z m 7.80843,-3.4375 c -1.18728,-3.70113 -1.30321,-3.33976 -1.30321,4.0625 0,7.40226 0.11588,7.76363 1.30321,4.0625 0.90429,-2.81893 0.90429,-5.30607 0,-8.125 z"
         id="path5412"
         inkscape:connector-curvature="0" />
    </g>
  </g>
</svg>
